G04 #@! TF.GenerationSoftware,KiCad,Pcbnew,(5.1.6-0)*
G04 #@! TF.CreationDate,2020-06-20T23:38:09-05:00*
G04 #@! TF.ProjectId,vectrex-cartridge,76656374-7265-4782-9d63-617274726964,v1.0*
G04 #@! TF.SameCoordinates,Original*
G04 #@! TF.FileFunction,Soldermask,Bot*
G04 #@! TF.FilePolarity,Negative*
%FSLAX46Y46*%
G04 Gerber Fmt 4.6, Leading zero omitted, Abs format (unit mm)*
G04 Created by KiCad (PCBNEW (5.1.6-0)) date 2020-06-20 23:38:09*
%MOMM*%
%LPD*%
G01*
G04 APERTURE LIST*
%ADD10C,0.010000*%
%ADD11C,0.100000*%
%ADD12R,2.000000X1.300000*%
%ADD13O,1.800000X1.800000*%
%ADD14R,1.800000X1.800000*%
%ADD15C,4.400000*%
%ADD16C,3.900000*%
%ADD17C,5.400000*%
%ADD18O,1.720000X9.000000*%
G04 APERTURE END LIST*
D10*
G36*
X146817482Y-74889188D02*
G01*
X146322475Y-74983630D01*
X145810231Y-75146778D01*
X145413254Y-75312345D01*
X145081780Y-75462788D01*
X144928345Y-75347905D01*
X144778607Y-75246364D01*
X144617766Y-75151735D01*
X144602391Y-75143639D01*
X144573265Y-75129660D01*
X144539442Y-75117239D01*
X144495662Y-75106298D01*
X144436661Y-75096759D01*
X144357178Y-75088546D01*
X144251951Y-75081580D01*
X144115717Y-75075784D01*
X143943214Y-75071081D01*
X143729180Y-75067393D01*
X143468353Y-75064642D01*
X143155471Y-75062752D01*
X142785272Y-75061645D01*
X142352493Y-75061242D01*
X141851872Y-75061468D01*
X141278148Y-75062244D01*
X140626058Y-75063492D01*
X139890339Y-75065136D01*
X139356398Y-75066400D01*
X134282923Y-75078546D01*
X133385435Y-75524100D01*
X133145809Y-75343500D01*
X133003590Y-75239717D01*
X132876748Y-75152958D01*
X132805309Y-75109178D01*
X132765879Y-75101192D01*
X132676875Y-75093949D01*
X132535099Y-75087422D01*
X132337355Y-75081586D01*
X132080445Y-75076415D01*
X131761173Y-75071881D01*
X131376343Y-75067961D01*
X130922758Y-75064626D01*
X130397220Y-75061853D01*
X129796533Y-75059614D01*
X129117501Y-75057884D01*
X128356927Y-75056636D01*
X127511613Y-75055845D01*
X126578364Y-75055484D01*
X126195066Y-75055455D01*
X125269339Y-75055370D01*
X124431391Y-75055248D01*
X123676643Y-75055285D01*
X123000510Y-75055678D01*
X122398411Y-75056625D01*
X121865763Y-75058322D01*
X121397983Y-75060966D01*
X120990490Y-75064754D01*
X120638700Y-75069883D01*
X120338031Y-75076550D01*
X120083902Y-75084952D01*
X119871728Y-75095286D01*
X119696928Y-75107749D01*
X119554920Y-75122538D01*
X119441120Y-75139849D01*
X119350947Y-75159881D01*
X119279818Y-75182829D01*
X119223150Y-75208891D01*
X119176362Y-75238264D01*
X119134870Y-75271144D01*
X119094092Y-75307729D01*
X119049446Y-75348215D01*
X119032069Y-75363334D01*
X118870490Y-75544028D01*
X118780689Y-75756280D01*
X118756175Y-76017983D01*
X118760743Y-76110985D01*
X118768693Y-76188671D01*
X118783762Y-76263404D01*
X118811467Y-76345163D01*
X118857325Y-76443931D01*
X118926852Y-76569688D01*
X119025565Y-76732413D01*
X119158981Y-76942089D01*
X119332617Y-77208696D01*
X119551031Y-77540761D01*
X119743700Y-77834650D01*
X119918758Y-78104711D01*
X120069963Y-78341077D01*
X120191076Y-78533875D01*
X120275855Y-78673237D01*
X120318059Y-78749292D01*
X120321636Y-78759501D01*
X120298337Y-78810325D01*
X120232543Y-78929183D01*
X120130408Y-79105595D01*
X119998086Y-79329081D01*
X119841731Y-79589163D01*
X119667496Y-79875361D01*
X119640454Y-79919479D01*
X119421060Y-80278777D01*
X119246141Y-80570305D01*
X119110698Y-80804286D01*
X119009729Y-80990943D01*
X118938236Y-81140500D01*
X118891217Y-81263181D01*
X118863672Y-81369209D01*
X118850599Y-81468808D01*
X118847367Y-81540965D01*
X118884799Y-81771375D01*
X118994593Y-82005134D01*
X119159999Y-82221290D01*
X119364270Y-82398895D01*
X119590657Y-82516998D01*
X119639990Y-82532430D01*
X119684949Y-82538423D01*
X119776051Y-82543945D01*
X119915784Y-82549005D01*
X120106634Y-82553612D01*
X120351090Y-82557772D01*
X120651639Y-82561496D01*
X121010769Y-82564792D01*
X121430966Y-82567668D01*
X121914718Y-82570133D01*
X122464513Y-82572195D01*
X123082838Y-82573863D01*
X123772181Y-82575145D01*
X124535028Y-82576049D01*
X125373868Y-82576585D01*
X126291188Y-82576761D01*
X127289475Y-82576585D01*
X128371217Y-82576066D01*
X129538901Y-82575211D01*
X130795014Y-82574031D01*
X131566909Y-82573198D01*
X132797436Y-82571797D01*
X133938997Y-82570444D01*
X134994990Y-82569113D01*
X135968811Y-82567775D01*
X136863858Y-82566402D01*
X137683530Y-82564966D01*
X138431223Y-82563439D01*
X139110334Y-82561792D01*
X139724263Y-82559997D01*
X140276404Y-82558027D01*
X140770158Y-82555853D01*
X141208920Y-82553447D01*
X141596088Y-82550781D01*
X141935060Y-82547826D01*
X142229233Y-82544555D01*
X142482006Y-82540940D01*
X142696774Y-82536951D01*
X142876936Y-82532562D01*
X143025890Y-82527743D01*
X143147032Y-82522468D01*
X143243760Y-82516707D01*
X143319473Y-82510433D01*
X143377566Y-82503617D01*
X143421438Y-82496231D01*
X143454487Y-82488247D01*
X143480109Y-82479637D01*
X143492776Y-82474403D01*
X143706117Y-82344669D01*
X143880106Y-82154585D01*
X144022118Y-81893812D01*
X144132004Y-81578636D01*
X144185075Y-81535745D01*
X144271183Y-81520909D01*
X144374412Y-81549159D01*
X144493651Y-81641346D01*
X144583970Y-81736942D01*
X144877653Y-82011957D01*
X145242321Y-82248350D01*
X145682771Y-82448553D01*
X146203800Y-82614994D01*
X146426572Y-82670512D01*
X146659297Y-82704964D01*
X146954053Y-82719558D01*
X147282885Y-82715258D01*
X147617837Y-82693031D01*
X147930955Y-82653842D01*
X148146182Y-82611114D01*
X148654939Y-82452389D01*
X149124351Y-82238093D01*
X149531578Y-81978713D01*
X149543689Y-81969510D01*
X149832833Y-81748474D01*
X149878564Y-81868756D01*
X149974983Y-82048951D01*
X150114703Y-82225254D01*
X150267285Y-82361157D01*
X150312739Y-82389540D01*
X150350431Y-82406390D01*
X150402108Y-82420763D01*
X150475165Y-82432903D01*
X150576996Y-82443057D01*
X150714994Y-82451471D01*
X150896554Y-82458391D01*
X151129069Y-82464061D01*
X151419935Y-82468730D01*
X151776545Y-82472641D01*
X152206292Y-82476041D01*
X152716572Y-82479176D01*
X153064545Y-82481032D01*
X153646565Y-82484072D01*
X154143826Y-82486216D01*
X154563932Y-82486658D01*
X154914487Y-82484589D01*
X155203097Y-82479203D01*
X155437364Y-82469693D01*
X155624894Y-82455251D01*
X155773291Y-82435070D01*
X155890159Y-82408343D01*
X155983102Y-82374263D01*
X156059726Y-82332022D01*
X156127634Y-82280813D01*
X156194430Y-82219829D01*
X156267720Y-82148263D01*
X156276087Y-82140116D01*
X156414100Y-81982944D01*
X156540809Y-81800694D01*
X156599416Y-81693469D01*
X156634668Y-81614605D01*
X156661679Y-81539874D01*
X156681552Y-81456004D01*
X156695388Y-81349719D01*
X156704289Y-81207745D01*
X156709357Y-81016809D01*
X156711695Y-80763634D01*
X156712403Y-80434949D01*
X156712458Y-80331727D01*
X156713379Y-79974002D01*
X156715834Y-79734761D01*
X155829394Y-79734761D01*
X155828873Y-80160641D01*
X155826091Y-80514860D01*
X155820610Y-80804318D01*
X155811991Y-81035915D01*
X155799797Y-81216548D01*
X155783591Y-81353119D01*
X155762934Y-81452525D01*
X155737388Y-81521667D01*
X155706515Y-81567444D01*
X155669878Y-81596755D01*
X155636760Y-81612730D01*
X155571748Y-81620780D01*
X155423578Y-81628419D01*
X155201454Y-81635482D01*
X154914581Y-81641803D01*
X154572163Y-81647216D01*
X154183405Y-81651556D01*
X153757512Y-81654658D01*
X153303689Y-81656357D01*
X153199595Y-81656527D01*
X150863918Y-81659455D01*
X150767634Y-81555546D01*
X150710985Y-81479820D01*
X150662767Y-81377225D01*
X150618921Y-81233200D01*
X150575384Y-81033185D01*
X150528099Y-80762618D01*
X150503807Y-80609407D01*
X150471453Y-80388188D01*
X150455813Y-80234879D01*
X150456684Y-80126589D01*
X150473867Y-80040425D01*
X150498232Y-79974407D01*
X150566014Y-79812182D01*
X151878898Y-79812182D01*
X152272049Y-79811501D01*
X152582566Y-79809138D01*
X152820170Y-79804618D01*
X152994582Y-79797460D01*
X153115524Y-79787189D01*
X153192716Y-79773327D01*
X153235881Y-79755395D01*
X153247594Y-79744932D01*
X153284854Y-79679521D01*
X153265048Y-79633198D01*
X153179702Y-79603222D01*
X153020337Y-79586848D01*
X152778477Y-79581335D01*
X152741846Y-79581273D01*
X152503697Y-79578296D01*
X152341132Y-79567965D01*
X152237523Y-79548179D01*
X152176239Y-79516839D01*
X152167299Y-79508701D01*
X152138044Y-79463718D01*
X152117558Y-79387359D01*
X152104449Y-79265203D01*
X152097328Y-79082828D01*
X152096178Y-78965719D01*
X150431609Y-78965719D01*
X150407898Y-79304013D01*
X150362450Y-79560025D01*
X150195881Y-80038374D01*
X149951498Y-80484492D01*
X149639482Y-80886536D01*
X149270013Y-81232663D01*
X148853272Y-81511031D01*
X148567811Y-81647602D01*
X148101383Y-81792077D01*
X147600657Y-81864225D01*
X147089913Y-81863135D01*
X146593428Y-81787893D01*
X146381809Y-81729814D01*
X145886808Y-81524809D01*
X145431363Y-81238049D01*
X145162993Y-81012307D01*
X145040256Y-80895082D01*
X144952949Y-80796916D01*
X144904767Y-80706761D01*
X144899405Y-80613568D01*
X144940557Y-80506287D01*
X145031919Y-80373870D01*
X145177185Y-80205269D01*
X145380051Y-79989434D01*
X145571545Y-79790616D01*
X145804781Y-79550756D01*
X145984834Y-79370584D01*
X146121184Y-79241933D01*
X146223313Y-79156637D01*
X146300701Y-79106528D01*
X146362828Y-79083442D01*
X146397507Y-79079129D01*
X146527383Y-79100528D01*
X146619903Y-79191732D01*
X146620398Y-79192486D01*
X146729604Y-79299512D01*
X146898504Y-79401196D01*
X147094917Y-79482685D01*
X147286664Y-79529131D01*
X147361811Y-79534640D01*
X147606700Y-79492218D01*
X147813017Y-79368850D01*
X147967979Y-79172280D01*
X147971849Y-79165054D01*
X148057072Y-78920550D01*
X148065861Y-78672388D01*
X148001960Y-78441211D01*
X147869117Y-78247665D01*
X147793548Y-78182477D01*
X147594242Y-78089977D01*
X147360792Y-78064917D01*
X147117648Y-78103334D01*
X146889257Y-78201270D01*
X146700068Y-78354762D01*
X146695017Y-78360452D01*
X146584248Y-78466439D01*
X146475731Y-78511978D01*
X146380561Y-78519091D01*
X146318029Y-78515325D01*
X146257258Y-78498482D01*
X146187809Y-78460247D01*
X146099241Y-78392303D01*
X145981117Y-78286335D01*
X145822997Y-78134025D01*
X145632330Y-77944811D01*
X144926836Y-77944811D01*
X144911906Y-78011912D01*
X144881944Y-78067733D01*
X144871130Y-78083082D01*
X144836190Y-78118797D01*
X144781564Y-78144799D01*
X144692028Y-78163418D01*
X144552356Y-78176984D01*
X144347324Y-78187827D01*
X144134425Y-78195818D01*
X143859212Y-78208744D01*
X143639188Y-78226128D01*
X143486459Y-78246716D01*
X143413130Y-78269249D01*
X143411265Y-78270885D01*
X143395321Y-78322578D01*
X143382733Y-78445031D01*
X143373372Y-78642405D01*
X143367110Y-78918857D01*
X143363818Y-79278548D01*
X143363369Y-79725637D01*
X143363587Y-79817976D01*
X143364482Y-80230621D01*
X143364234Y-80561258D01*
X143362287Y-80820239D01*
X143358088Y-81017917D01*
X143351079Y-81164644D01*
X143340707Y-81270775D01*
X143326417Y-81346661D01*
X143307653Y-81402656D01*
X143283861Y-81449113D01*
X143275387Y-81463182D01*
X143182994Y-81613273D01*
X141017795Y-81613273D01*
X140922079Y-81491590D01*
X140896080Y-81455315D01*
X140875268Y-81413017D01*
X140859068Y-81354700D01*
X140846903Y-81270370D01*
X140838197Y-81150031D01*
X140832373Y-80983689D01*
X140828855Y-80761349D01*
X140827066Y-80473017D01*
X140826431Y-80108696D01*
X140826363Y-79831770D01*
X140825554Y-79389636D01*
X140822945Y-79032435D01*
X140818754Y-78782020D01*
X139048363Y-78782020D01*
X139048363Y-81482888D01*
X138939338Y-81571171D01*
X138898158Y-81599458D01*
X138845438Y-81620996D01*
X138768982Y-81636695D01*
X138656598Y-81647462D01*
X138496091Y-81654209D01*
X138275267Y-81657843D01*
X137981931Y-81659275D01*
X137755273Y-81659455D01*
X137410180Y-81658941D01*
X137145254Y-81656795D01*
X136948301Y-81652108D01*
X136807127Y-81643970D01*
X136709538Y-81631472D01*
X136643339Y-81613705D01*
X136596337Y-81589761D01*
X136571207Y-81571187D01*
X136462182Y-81482920D01*
X136446024Y-79721661D01*
X136429867Y-77960402D01*
X136192457Y-77974201D01*
X136041529Y-77991197D01*
X135963245Y-78024379D01*
X135940086Y-78066725D01*
X135961096Y-78133265D01*
X136061701Y-78180623D01*
X136078199Y-78185096D01*
X136231273Y-78224742D01*
X136243557Y-79478689D01*
X136255842Y-80732636D01*
X135880143Y-81151185D01*
X135727013Y-81317920D01*
X135589100Y-81461054D01*
X135481681Y-81565184D01*
X135420622Y-81614594D01*
X135351164Y-81627397D01*
X135200782Y-81638585D01*
X134980909Y-81647766D01*
X134702976Y-81654547D01*
X134378417Y-81658534D01*
X134115600Y-81659455D01*
X133740182Y-81658788D01*
X133446741Y-81656408D01*
X133224900Y-81651739D01*
X133064279Y-81644211D01*
X132954500Y-81633250D01*
X132885184Y-81618282D01*
X132845952Y-81598736D01*
X132835774Y-81588814D01*
X132812077Y-81552050D01*
X132804495Y-81508330D01*
X132818231Y-81449000D01*
X132827102Y-81430579D01*
X132654346Y-81430579D01*
X132539909Y-81545017D01*
X132425471Y-81659455D01*
X130088154Y-81659455D01*
X129476072Y-81658529D01*
X128954960Y-81655735D01*
X128523445Y-81651044D01*
X128180150Y-81644427D01*
X127923702Y-81635856D01*
X127752726Y-81625304D01*
X127665847Y-81612741D01*
X127657600Y-81609556D01*
X127586868Y-81552398D01*
X127527475Y-81456035D01*
X127475561Y-81308404D01*
X127427267Y-81097441D01*
X127378733Y-80811082D01*
X127358787Y-80675529D01*
X127324713Y-80428027D01*
X127305036Y-80253689D01*
X127299390Y-80134503D01*
X127307408Y-80052457D01*
X127328722Y-79989539D01*
X127344202Y-79959710D01*
X127414008Y-79835273D01*
X128751549Y-79812182D01*
X129137663Y-79805305D01*
X129441317Y-79798974D01*
X129672405Y-79792334D01*
X129840821Y-79784532D01*
X129956458Y-79774714D01*
X130029209Y-79762025D01*
X130068969Y-79745612D01*
X130085630Y-79724621D01*
X130089087Y-79698197D01*
X130089091Y-79696727D01*
X130082573Y-79656673D01*
X130052638Y-79628977D01*
X129983715Y-79610247D01*
X129860232Y-79597089D01*
X129666617Y-79586112D01*
X129559212Y-79581273D01*
X129330673Y-79570316D01*
X129176906Y-79558377D01*
X129080376Y-79541325D01*
X129023546Y-79515029D01*
X128988880Y-79475358D01*
X128971075Y-79442727D01*
X128946629Y-79346066D01*
X128928463Y-79180773D01*
X128916829Y-78970384D01*
X128911979Y-78738433D01*
X128914166Y-78508458D01*
X128923642Y-78303992D01*
X128940661Y-78148571D01*
X128956493Y-78083370D01*
X128980046Y-78030508D01*
X129014433Y-77996306D01*
X129077731Y-77976701D01*
X129188014Y-77967634D01*
X129363356Y-77965044D01*
X129483807Y-77964909D01*
X129738500Y-77962451D01*
X129914693Y-77952980D01*
X130026169Y-77933348D01*
X130086711Y-77900407D01*
X130110102Y-77851011D01*
X130112182Y-77821423D01*
X130108269Y-77795339D01*
X130089703Y-77775029D01*
X130046242Y-77759771D01*
X129967643Y-77748847D01*
X129843664Y-77741535D01*
X129664065Y-77737116D01*
X129418601Y-77734871D01*
X129097032Y-77734078D01*
X128868571Y-77734000D01*
X128480190Y-77733674D01*
X128173836Y-77731421D01*
X127939174Y-77725326D01*
X127765869Y-77713476D01*
X127643584Y-77693957D01*
X127561984Y-77664856D01*
X127510733Y-77624259D01*
X127479496Y-77570252D01*
X127457936Y-77500922D01*
X127450450Y-77471432D01*
X127444400Y-77364662D01*
X127456983Y-77192166D01*
X127484263Y-76976287D01*
X127522300Y-76739369D01*
X127567157Y-76503758D01*
X127614895Y-76291798D01*
X127661577Y-76125833D01*
X127671153Y-76103407D01*
X127341273Y-76103407D01*
X127315792Y-76168086D01*
X127242819Y-76300272D01*
X127127561Y-76491614D01*
X126975224Y-76733762D01*
X126791012Y-77018369D01*
X126580133Y-77337083D01*
X126466808Y-77505899D01*
X125592344Y-78802548D01*
X125927977Y-79295819D01*
X126244504Y-79761714D01*
X126512186Y-80157446D01*
X126734737Y-80488801D01*
X126915875Y-80761566D01*
X127059314Y-80981527D01*
X127168771Y-81154471D01*
X127247961Y-81286185D01*
X127300600Y-81382454D01*
X127330404Y-81449066D01*
X127341089Y-81491807D01*
X127341273Y-81496709D01*
X127336578Y-81566526D01*
X127316325Y-81622335D01*
X127271262Y-81665695D01*
X127192138Y-81698166D01*
X127069700Y-81721307D01*
X126894698Y-81736678D01*
X126657878Y-81745838D01*
X126349990Y-81750346D01*
X125961781Y-81751763D01*
X125827794Y-81751818D01*
X125424079Y-81750910D01*
X125102889Y-81747885D01*
X124854401Y-81742296D01*
X124668793Y-81733693D01*
X124536240Y-81721627D01*
X124446921Y-81705649D01*
X124392775Y-81686237D01*
X124315154Y-81624174D01*
X124199558Y-81504821D01*
X124062061Y-81345789D01*
X123928929Y-81178115D01*
X123591904Y-80735574D01*
X123228906Y-81194746D01*
X123082922Y-81374293D01*
X122949417Y-81529222D01*
X122842638Y-81643604D01*
X122776830Y-81701511D01*
X122774444Y-81702869D01*
X122702551Y-81716808D01*
X122552977Y-81728460D01*
X122340374Y-81737804D01*
X122079397Y-81744814D01*
X121784700Y-81749469D01*
X121470938Y-81751745D01*
X121152763Y-81751620D01*
X120844830Y-81749069D01*
X120561793Y-81744071D01*
X120318306Y-81736601D01*
X120129023Y-81726637D01*
X120008598Y-81714156D01*
X119979569Y-81707270D01*
X119909330Y-81676404D01*
X119860110Y-81639299D01*
X119835306Y-81588387D01*
X119838310Y-81516097D01*
X119872518Y-81414860D01*
X119941326Y-81277105D01*
X120048127Y-81095264D01*
X120196317Y-80861765D01*
X120389290Y-80569040D01*
X120630441Y-80209518D01*
X120692669Y-80117190D01*
X121580419Y-78800669D01*
X120754755Y-77576288D01*
X120505586Y-77207028D01*
X120303162Y-76906798D01*
X120142980Y-76667785D01*
X120020538Y-76482174D01*
X119931334Y-76342154D01*
X119870865Y-76239911D01*
X119834628Y-76167631D01*
X119818121Y-76117502D01*
X119816842Y-76081711D01*
X119826289Y-76052445D01*
X119841958Y-76021890D01*
X119849752Y-76005832D01*
X119904612Y-75885428D01*
X121370183Y-75897623D01*
X122835755Y-75909818D01*
X123119375Y-76264214D01*
X123252966Y-76432280D01*
X123374350Y-76587005D01*
X123465239Y-76704992D01*
X123493654Y-76743063D01*
X123584312Y-76867517D01*
X123898741Y-76457940D01*
X124016550Y-76301242D01*
X124111288Y-76175892D01*
X124194566Y-76078424D01*
X124277995Y-76005376D01*
X124373189Y-75953281D01*
X124491757Y-75918675D01*
X124645312Y-75898093D01*
X124845466Y-75888072D01*
X125103830Y-75885146D01*
X125432015Y-75885850D01*
X125813152Y-75886727D01*
X126228721Y-75887073D01*
X126561192Y-75888986D01*
X126819829Y-75893780D01*
X127013899Y-75902769D01*
X127152667Y-75917267D01*
X127245396Y-75938586D01*
X127301354Y-75968042D01*
X127329805Y-76006948D01*
X127340013Y-76056617D01*
X127341273Y-76103407D01*
X127671153Y-76103407D01*
X127703264Y-76028207D01*
X127705327Y-76025273D01*
X127789949Y-75909818D01*
X130119304Y-75897855D01*
X130655466Y-75895444D01*
X131106613Y-75894291D01*
X131480085Y-75894559D01*
X131783225Y-75896412D01*
X132023373Y-75900013D01*
X132207871Y-75905527D01*
X132344060Y-75913118D01*
X132439283Y-75922948D01*
X132500879Y-75935183D01*
X132536191Y-75949985D01*
X132538874Y-75951842D01*
X132557815Y-75968338D01*
X132573953Y-75992713D01*
X132587552Y-76032100D01*
X132598879Y-76093632D01*
X132608196Y-76184441D01*
X132615769Y-76311661D01*
X132621863Y-76482425D01*
X132626741Y-76703866D01*
X132630669Y-76983117D01*
X132633911Y-77327311D01*
X132636732Y-77743582D01*
X132639396Y-78239061D01*
X132641719Y-78724186D01*
X132654346Y-81430579D01*
X132827102Y-81430579D01*
X132858489Y-81365406D01*
X132930474Y-81248892D01*
X133039389Y-81090806D01*
X133190438Y-80882491D01*
X133388826Y-80615294D01*
X133552753Y-80396446D01*
X134226143Y-79499055D01*
X133946094Y-79231933D01*
X133684544Y-78935371D01*
X133517022Y-78662104D01*
X133450843Y-78521791D01*
X133407817Y-78405457D01*
X133382989Y-78286121D01*
X133371405Y-78136802D01*
X133368112Y-77930517D01*
X133368000Y-77850426D01*
X133370214Y-77616113D01*
X133379775Y-77447386D01*
X133401063Y-77317514D01*
X133438457Y-77199767D01*
X133496253Y-77067590D01*
X133721035Y-76687280D01*
X134005619Y-76376231D01*
X134347127Y-76136995D01*
X134723683Y-75977937D01*
X134801495Y-75955402D01*
X134882478Y-75936899D01*
X134976230Y-75922034D01*
X135092349Y-75910414D01*
X135240435Y-75901643D01*
X135430086Y-75895328D01*
X135670901Y-75891075D01*
X135972479Y-75888490D01*
X136344418Y-75887178D01*
X136796317Y-75886745D01*
X136944798Y-75886727D01*
X137417054Y-75886830D01*
X137805583Y-75887415D01*
X138119022Y-75888899D01*
X138366006Y-75891700D01*
X138555174Y-75896232D01*
X138695160Y-75902914D01*
X138794602Y-75912160D01*
X138862136Y-75924389D01*
X138906399Y-75940016D01*
X138936027Y-75959459D01*
X138959657Y-75983132D01*
X138960388Y-75983939D01*
X138978878Y-76007578D01*
X138994582Y-76039197D01*
X139007727Y-76086018D01*
X139018539Y-76155262D01*
X139027246Y-76254148D01*
X139034075Y-76389899D01*
X139039253Y-76569734D01*
X139043007Y-76800874D01*
X139045563Y-77090540D01*
X139047149Y-77445953D01*
X139047993Y-77874333D01*
X139048320Y-78382900D01*
X139048363Y-78782020D01*
X140818754Y-78782020D01*
X140818264Y-78752749D01*
X140811239Y-78543162D01*
X140801599Y-78396256D01*
X140789072Y-78304613D01*
X140773387Y-78260816D01*
X140768636Y-78256271D01*
X140703013Y-78240781D01*
X140564103Y-78224740D01*
X140370958Y-78209851D01*
X140142625Y-78197815D01*
X140092233Y-78195818D01*
X139842230Y-78185784D01*
X139667765Y-78175293D01*
X139552059Y-78160913D01*
X139478336Y-78139213D01*
X139429818Y-78106763D01*
X139389725Y-78060130D01*
X139382657Y-78050701D01*
X139291757Y-77928675D01*
X139516424Y-77038371D01*
X139595219Y-76729860D01*
X139657393Y-76498352D01*
X139707582Y-76330963D01*
X139750423Y-76214813D01*
X139790551Y-76137020D01*
X139832603Y-76084702D01*
X139871421Y-76052034D01*
X139906308Y-76028446D01*
X139946811Y-76008982D01*
X140001765Y-75993168D01*
X140080006Y-75980530D01*
X140190367Y-75970596D01*
X140341683Y-75962892D01*
X140542790Y-75956946D01*
X140802521Y-75952283D01*
X141129712Y-75948432D01*
X141533198Y-75944918D01*
X141926512Y-75941961D01*
X142347310Y-75939602D01*
X142745857Y-75938723D01*
X143111225Y-75939249D01*
X143432487Y-75941107D01*
X143698715Y-75944220D01*
X143898979Y-75948514D01*
X144022353Y-75953915D01*
X144048411Y-75956466D01*
X144176748Y-75981365D01*
X144279799Y-76022286D01*
X144365018Y-76090880D01*
X144439858Y-76198798D01*
X144511773Y-76357692D01*
X144588216Y-76579214D01*
X144676641Y-76875015D01*
X144709376Y-76989697D01*
X144798162Y-77306232D01*
X144862397Y-77547141D01*
X144903985Y-77725294D01*
X144924830Y-77853561D01*
X144926836Y-77944811D01*
X145632330Y-77944811D01*
X145614441Y-77927059D01*
X145524786Y-77837350D01*
X145272696Y-77583421D01*
X145082245Y-77383478D01*
X144949623Y-77226333D01*
X144871023Y-77100797D01*
X144842637Y-76995682D01*
X144860656Y-76899797D01*
X144921274Y-76801955D01*
X145020681Y-76690967D01*
X145105467Y-76605299D01*
X145492194Y-76279695D01*
X145928106Y-76028674D01*
X146417525Y-75850196D01*
X146922363Y-75747817D01*
X147457140Y-75718074D01*
X147972622Y-75773780D01*
X148460905Y-75909802D01*
X148914085Y-76121009D01*
X149324257Y-76402267D01*
X149683517Y-76748446D01*
X149983960Y-77154411D01*
X150217683Y-77615031D01*
X150336666Y-77964735D01*
X150395425Y-78260954D01*
X150427262Y-78606324D01*
X150431609Y-78965719D01*
X152096178Y-78965719D01*
X152094804Y-78825813D01*
X152094727Y-78755938D01*
X152098146Y-78444614D01*
X152108628Y-78220927D01*
X152126511Y-78080393D01*
X152150145Y-78020327D01*
X152229536Y-77991250D01*
X152396491Y-77972693D01*
X152646762Y-77965083D01*
X152698672Y-77964909D01*
X152937410Y-77961580D01*
X153098715Y-77950391D01*
X153197323Y-77929535D01*
X153247594Y-77897659D01*
X153279383Y-77851064D01*
X153283086Y-77814173D01*
X153250223Y-77785874D01*
X153172316Y-77765052D01*
X153040887Y-77750593D01*
X152847456Y-77741382D01*
X152583546Y-77736305D01*
X152240678Y-77734248D01*
X152002257Y-77734000D01*
X151631755Y-77733824D01*
X151342730Y-77732729D01*
X151124294Y-77729864D01*
X150965560Y-77724378D01*
X150855639Y-77715420D01*
X150783645Y-77702141D01*
X150738691Y-77683688D01*
X150709888Y-77659211D01*
X150688800Y-77631361D01*
X150640917Y-77520096D01*
X150621373Y-77356776D01*
X150630337Y-77131574D01*
X150667975Y-76834662D01*
X150706361Y-76607064D01*
X150757111Y-76349991D01*
X150805390Y-76167684D01*
X150857635Y-76042978D01*
X150920285Y-75958706D01*
X150963273Y-75922071D01*
X151017246Y-75915407D01*
X151154613Y-75909149D01*
X151366404Y-75903428D01*
X151643650Y-75898376D01*
X151977381Y-75894125D01*
X152358627Y-75890806D01*
X152778419Y-75888551D01*
X153227788Y-75887492D01*
X153322933Y-75887434D01*
X153844318Y-75887345D01*
X154281163Y-75887632D01*
X154641293Y-75888610D01*
X154932530Y-75890594D01*
X155162699Y-75893897D01*
X155339623Y-75898834D01*
X155471127Y-75905719D01*
X155565034Y-75914867D01*
X155629168Y-75926591D01*
X155671354Y-75941207D01*
X155699413Y-75959028D01*
X155721172Y-75980368D01*
X155724388Y-75983906D01*
X155743368Y-76008381D01*
X155759474Y-76041445D01*
X155772988Y-76090524D01*
X155784192Y-76163050D01*
X155793369Y-76266451D01*
X155800801Y-76408155D01*
X155806771Y-76595593D01*
X155811561Y-76836192D01*
X155815453Y-77137383D01*
X155818731Y-77506593D01*
X155821677Y-77951253D01*
X155824573Y-78478790D01*
X155825403Y-78640421D01*
X155828092Y-79230320D01*
X155829394Y-79734761D01*
X156715834Y-79734761D01*
X156716204Y-79698716D01*
X156721512Y-79495955D01*
X156729882Y-79355803D01*
X156741891Y-79268345D01*
X156758119Y-79223668D01*
X156777816Y-79211818D01*
X156818022Y-79248432D01*
X156904573Y-79352765D01*
X157031301Y-79516550D01*
X157192040Y-79731524D01*
X157380620Y-79989420D01*
X157590874Y-80281975D01*
X157816634Y-80600923D01*
X157851543Y-80650657D01*
X158082957Y-80979272D01*
X158302684Y-81288553D01*
X158503980Y-81569209D01*
X158680099Y-81811952D01*
X158824299Y-82007490D01*
X158929835Y-82146533D01*
X158989963Y-82219792D01*
X158992700Y-82222623D01*
X159234563Y-82407540D01*
X159507285Y-82518239D01*
X159793611Y-82554646D01*
X160076288Y-82516684D01*
X160338062Y-82404279D01*
X160550812Y-82229411D01*
X160612589Y-82151930D01*
X160718686Y-82007220D01*
X160864224Y-81802524D01*
X161044324Y-81545086D01*
X161254106Y-81242148D01*
X161488692Y-80900954D01*
X161743202Y-80528746D01*
X162012758Y-80132766D01*
X162292479Y-79720259D01*
X162577488Y-79298466D01*
X162862904Y-78874631D01*
X163143849Y-78455996D01*
X163415444Y-78049805D01*
X163672808Y-77663301D01*
X163911064Y-77303725D01*
X164125333Y-76978322D01*
X164310733Y-76694333D01*
X164462388Y-76459003D01*
X164575418Y-76279573D01*
X164644942Y-76163287D01*
X164665936Y-76120683D01*
X164672829Y-76002036D01*
X163614265Y-76002036D01*
X163614260Y-76002182D01*
X163588720Y-76052338D01*
X163516248Y-76171381D01*
X163401855Y-76351823D01*
X163250552Y-76586174D01*
X163067349Y-76866948D01*
X162857257Y-77186656D01*
X162625286Y-77537810D01*
X162376447Y-77912921D01*
X162115750Y-78304502D01*
X161848205Y-78705065D01*
X161578824Y-79107121D01*
X161312616Y-79503182D01*
X161054593Y-79885760D01*
X160809764Y-80247367D01*
X160583140Y-80580515D01*
X160379731Y-80877715D01*
X160204548Y-81131480D01*
X160062602Y-81334321D01*
X159958903Y-81478750D01*
X159898462Y-81557279D01*
X159893498Y-81562845D01*
X159821594Y-81632270D01*
X159773324Y-81636737D01*
X159713573Y-81583018D01*
X159674688Y-81531317D01*
X159588622Y-81409314D01*
X159459715Y-81223367D01*
X159292310Y-80979833D01*
X159090745Y-80685069D01*
X158859363Y-80345432D01*
X158602503Y-79967281D01*
X158324506Y-79556971D01*
X158029713Y-79120861D01*
X157802908Y-78784679D01*
X157500001Y-78334048D01*
X157212764Y-77904250D01*
X156945336Y-77501634D01*
X156701854Y-77132547D01*
X156486458Y-76803337D01*
X156303283Y-76520353D01*
X156156470Y-76289940D01*
X156050155Y-76118448D01*
X155988477Y-76012223D01*
X155974000Y-75979134D01*
X155976700Y-75952800D01*
X155991308Y-75932012D01*
X156027583Y-75916114D01*
X156095285Y-75904452D01*
X156204175Y-75896369D01*
X156364013Y-75891211D01*
X156584560Y-75888323D01*
X156875574Y-75887049D01*
X157246817Y-75886733D01*
X157350395Y-75886727D01*
X158726790Y-75886727D01*
X158867205Y-76036818D01*
X158948726Y-76130405D01*
X159070469Y-76278154D01*
X159216754Y-76460708D01*
X159371898Y-76658706D01*
X159390968Y-76683364D01*
X159533042Y-76864838D01*
X159655537Y-77016569D01*
X159747351Y-77125156D01*
X159797382Y-77177199D01*
X159802277Y-77179818D01*
X159838277Y-77145077D01*
X159920532Y-77048801D01*
X160039302Y-76902911D01*
X160184849Y-76719328D01*
X160312787Y-76554931D01*
X160477682Y-76347023D01*
X160629787Y-76165631D01*
X160757810Y-76023430D01*
X160850460Y-75933095D01*
X160890031Y-75906983D01*
X160959481Y-75901459D01*
X161108570Y-75897314D01*
X161324579Y-75894641D01*
X161594793Y-75893530D01*
X161906494Y-75894072D01*
X162246966Y-75896359D01*
X162300909Y-75896870D01*
X162683545Y-75900839D01*
X162983775Y-75904875D01*
X163211555Y-75909775D01*
X163376839Y-75916338D01*
X163489584Y-75925363D01*
X163559743Y-75937646D01*
X163597273Y-75953988D01*
X163612129Y-75975185D01*
X163614265Y-76002036D01*
X164672829Y-76002036D01*
X164679190Y-75892569D01*
X164617011Y-75651282D01*
X164489978Y-75417308D01*
X164308674Y-75211133D01*
X164127011Y-75077229D01*
X163930124Y-74961846D01*
X157354335Y-74974014D01*
X150778545Y-74986182D01*
X150517131Y-75114557D01*
X150298729Y-75249465D01*
X150093130Y-75424729D01*
X149932268Y-75611672D01*
X149891320Y-75676558D01*
X149863663Y-75708234D01*
X149818720Y-75713143D01*
X149740877Y-75685930D01*
X149614520Y-75621242D01*
X149435296Y-75520183D01*
X148853129Y-75223018D01*
X148296623Y-75014018D01*
X147764853Y-74892893D01*
X147314909Y-74858763D01*
X146817482Y-74889188D01*
G37*
X146817482Y-74889188D02*
X146322475Y-74983630D01*
X145810231Y-75146778D01*
X145413254Y-75312345D01*
X145081780Y-75462788D01*
X144928345Y-75347905D01*
X144778607Y-75246364D01*
X144617766Y-75151735D01*
X144602391Y-75143639D01*
X144573265Y-75129660D01*
X144539442Y-75117239D01*
X144495662Y-75106298D01*
X144436661Y-75096759D01*
X144357178Y-75088546D01*
X144251951Y-75081580D01*
X144115717Y-75075784D01*
X143943214Y-75071081D01*
X143729180Y-75067393D01*
X143468353Y-75064642D01*
X143155471Y-75062752D01*
X142785272Y-75061645D01*
X142352493Y-75061242D01*
X141851872Y-75061468D01*
X141278148Y-75062244D01*
X140626058Y-75063492D01*
X139890339Y-75065136D01*
X139356398Y-75066400D01*
X134282923Y-75078546D01*
X133385435Y-75524100D01*
X133145809Y-75343500D01*
X133003590Y-75239717D01*
X132876748Y-75152958D01*
X132805309Y-75109178D01*
X132765879Y-75101192D01*
X132676875Y-75093949D01*
X132535099Y-75087422D01*
X132337355Y-75081586D01*
X132080445Y-75076415D01*
X131761173Y-75071881D01*
X131376343Y-75067961D01*
X130922758Y-75064626D01*
X130397220Y-75061853D01*
X129796533Y-75059614D01*
X129117501Y-75057884D01*
X128356927Y-75056636D01*
X127511613Y-75055845D01*
X126578364Y-75055484D01*
X126195066Y-75055455D01*
X125269339Y-75055370D01*
X124431391Y-75055248D01*
X123676643Y-75055285D01*
X123000510Y-75055678D01*
X122398411Y-75056625D01*
X121865763Y-75058322D01*
X121397983Y-75060966D01*
X120990490Y-75064754D01*
X120638700Y-75069883D01*
X120338031Y-75076550D01*
X120083902Y-75084952D01*
X119871728Y-75095286D01*
X119696928Y-75107749D01*
X119554920Y-75122538D01*
X119441120Y-75139849D01*
X119350947Y-75159881D01*
X119279818Y-75182829D01*
X119223150Y-75208891D01*
X119176362Y-75238264D01*
X119134870Y-75271144D01*
X119094092Y-75307729D01*
X119049446Y-75348215D01*
X119032069Y-75363334D01*
X118870490Y-75544028D01*
X118780689Y-75756280D01*
X118756175Y-76017983D01*
X118760743Y-76110985D01*
X118768693Y-76188671D01*
X118783762Y-76263404D01*
X118811467Y-76345163D01*
X118857325Y-76443931D01*
X118926852Y-76569688D01*
X119025565Y-76732413D01*
X119158981Y-76942089D01*
X119332617Y-77208696D01*
X119551031Y-77540761D01*
X119743700Y-77834650D01*
X119918758Y-78104711D01*
X120069963Y-78341077D01*
X120191076Y-78533875D01*
X120275855Y-78673237D01*
X120318059Y-78749292D01*
X120321636Y-78759501D01*
X120298337Y-78810325D01*
X120232543Y-78929183D01*
X120130408Y-79105595D01*
X119998086Y-79329081D01*
X119841731Y-79589163D01*
X119667496Y-79875361D01*
X119640454Y-79919479D01*
X119421060Y-80278777D01*
X119246141Y-80570305D01*
X119110698Y-80804286D01*
X119009729Y-80990943D01*
X118938236Y-81140500D01*
X118891217Y-81263181D01*
X118863672Y-81369209D01*
X118850599Y-81468808D01*
X118847367Y-81540965D01*
X118884799Y-81771375D01*
X118994593Y-82005134D01*
X119159999Y-82221290D01*
X119364270Y-82398895D01*
X119590657Y-82516998D01*
X119639990Y-82532430D01*
X119684949Y-82538423D01*
X119776051Y-82543945D01*
X119915784Y-82549005D01*
X120106634Y-82553612D01*
X120351090Y-82557772D01*
X120651639Y-82561496D01*
X121010769Y-82564792D01*
X121430966Y-82567668D01*
X121914718Y-82570133D01*
X122464513Y-82572195D01*
X123082838Y-82573863D01*
X123772181Y-82575145D01*
X124535028Y-82576049D01*
X125373868Y-82576585D01*
X126291188Y-82576761D01*
X127289475Y-82576585D01*
X128371217Y-82576066D01*
X129538901Y-82575211D01*
X130795014Y-82574031D01*
X131566909Y-82573198D01*
X132797436Y-82571797D01*
X133938997Y-82570444D01*
X134994990Y-82569113D01*
X135968811Y-82567775D01*
X136863858Y-82566402D01*
X137683530Y-82564966D01*
X138431223Y-82563439D01*
X139110334Y-82561792D01*
X139724263Y-82559997D01*
X140276404Y-82558027D01*
X140770158Y-82555853D01*
X141208920Y-82553447D01*
X141596088Y-82550781D01*
X141935060Y-82547826D01*
X142229233Y-82544555D01*
X142482006Y-82540940D01*
X142696774Y-82536951D01*
X142876936Y-82532562D01*
X143025890Y-82527743D01*
X143147032Y-82522468D01*
X143243760Y-82516707D01*
X143319473Y-82510433D01*
X143377566Y-82503617D01*
X143421438Y-82496231D01*
X143454487Y-82488247D01*
X143480109Y-82479637D01*
X143492776Y-82474403D01*
X143706117Y-82344669D01*
X143880106Y-82154585D01*
X144022118Y-81893812D01*
X144132004Y-81578636D01*
X144185075Y-81535745D01*
X144271183Y-81520909D01*
X144374412Y-81549159D01*
X144493651Y-81641346D01*
X144583970Y-81736942D01*
X144877653Y-82011957D01*
X145242321Y-82248350D01*
X145682771Y-82448553D01*
X146203800Y-82614994D01*
X146426572Y-82670512D01*
X146659297Y-82704964D01*
X146954053Y-82719558D01*
X147282885Y-82715258D01*
X147617837Y-82693031D01*
X147930955Y-82653842D01*
X148146182Y-82611114D01*
X148654939Y-82452389D01*
X149124351Y-82238093D01*
X149531578Y-81978713D01*
X149543689Y-81969510D01*
X149832833Y-81748474D01*
X149878564Y-81868756D01*
X149974983Y-82048951D01*
X150114703Y-82225254D01*
X150267285Y-82361157D01*
X150312739Y-82389540D01*
X150350431Y-82406390D01*
X150402108Y-82420763D01*
X150475165Y-82432903D01*
X150576996Y-82443057D01*
X150714994Y-82451471D01*
X150896554Y-82458391D01*
X151129069Y-82464061D01*
X151419935Y-82468730D01*
X151776545Y-82472641D01*
X152206292Y-82476041D01*
X152716572Y-82479176D01*
X153064545Y-82481032D01*
X153646565Y-82484072D01*
X154143826Y-82486216D01*
X154563932Y-82486658D01*
X154914487Y-82484589D01*
X155203097Y-82479203D01*
X155437364Y-82469693D01*
X155624894Y-82455251D01*
X155773291Y-82435070D01*
X155890159Y-82408343D01*
X155983102Y-82374263D01*
X156059726Y-82332022D01*
X156127634Y-82280813D01*
X156194430Y-82219829D01*
X156267720Y-82148263D01*
X156276087Y-82140116D01*
X156414100Y-81982944D01*
X156540809Y-81800694D01*
X156599416Y-81693469D01*
X156634668Y-81614605D01*
X156661679Y-81539874D01*
X156681552Y-81456004D01*
X156695388Y-81349719D01*
X156704289Y-81207745D01*
X156709357Y-81016809D01*
X156711695Y-80763634D01*
X156712403Y-80434949D01*
X156712458Y-80331727D01*
X156713379Y-79974002D01*
X156715834Y-79734761D01*
X155829394Y-79734761D01*
X155828873Y-80160641D01*
X155826091Y-80514860D01*
X155820610Y-80804318D01*
X155811991Y-81035915D01*
X155799797Y-81216548D01*
X155783591Y-81353119D01*
X155762934Y-81452525D01*
X155737388Y-81521667D01*
X155706515Y-81567444D01*
X155669878Y-81596755D01*
X155636760Y-81612730D01*
X155571748Y-81620780D01*
X155423578Y-81628419D01*
X155201454Y-81635482D01*
X154914581Y-81641803D01*
X154572163Y-81647216D01*
X154183405Y-81651556D01*
X153757512Y-81654658D01*
X153303689Y-81656357D01*
X153199595Y-81656527D01*
X150863918Y-81659455D01*
X150767634Y-81555546D01*
X150710985Y-81479820D01*
X150662767Y-81377225D01*
X150618921Y-81233200D01*
X150575384Y-81033185D01*
X150528099Y-80762618D01*
X150503807Y-80609407D01*
X150471453Y-80388188D01*
X150455813Y-80234879D01*
X150456684Y-80126589D01*
X150473867Y-80040425D01*
X150498232Y-79974407D01*
X150566014Y-79812182D01*
X151878898Y-79812182D01*
X152272049Y-79811501D01*
X152582566Y-79809138D01*
X152820170Y-79804618D01*
X152994582Y-79797460D01*
X153115524Y-79787189D01*
X153192716Y-79773327D01*
X153235881Y-79755395D01*
X153247594Y-79744932D01*
X153284854Y-79679521D01*
X153265048Y-79633198D01*
X153179702Y-79603222D01*
X153020337Y-79586848D01*
X152778477Y-79581335D01*
X152741846Y-79581273D01*
X152503697Y-79578296D01*
X152341132Y-79567965D01*
X152237523Y-79548179D01*
X152176239Y-79516839D01*
X152167299Y-79508701D01*
X152138044Y-79463718D01*
X152117558Y-79387359D01*
X152104449Y-79265203D01*
X152097328Y-79082828D01*
X152096178Y-78965719D01*
X150431609Y-78965719D01*
X150407898Y-79304013D01*
X150362450Y-79560025D01*
X150195881Y-80038374D01*
X149951498Y-80484492D01*
X149639482Y-80886536D01*
X149270013Y-81232663D01*
X148853272Y-81511031D01*
X148567811Y-81647602D01*
X148101383Y-81792077D01*
X147600657Y-81864225D01*
X147089913Y-81863135D01*
X146593428Y-81787893D01*
X146381809Y-81729814D01*
X145886808Y-81524809D01*
X145431363Y-81238049D01*
X145162993Y-81012307D01*
X145040256Y-80895082D01*
X144952949Y-80796916D01*
X144904767Y-80706761D01*
X144899405Y-80613568D01*
X144940557Y-80506287D01*
X145031919Y-80373870D01*
X145177185Y-80205269D01*
X145380051Y-79989434D01*
X145571545Y-79790616D01*
X145804781Y-79550756D01*
X145984834Y-79370584D01*
X146121184Y-79241933D01*
X146223313Y-79156637D01*
X146300701Y-79106528D01*
X146362828Y-79083442D01*
X146397507Y-79079129D01*
X146527383Y-79100528D01*
X146619903Y-79191732D01*
X146620398Y-79192486D01*
X146729604Y-79299512D01*
X146898504Y-79401196D01*
X147094917Y-79482685D01*
X147286664Y-79529131D01*
X147361811Y-79534640D01*
X147606700Y-79492218D01*
X147813017Y-79368850D01*
X147967979Y-79172280D01*
X147971849Y-79165054D01*
X148057072Y-78920550D01*
X148065861Y-78672388D01*
X148001960Y-78441211D01*
X147869117Y-78247665D01*
X147793548Y-78182477D01*
X147594242Y-78089977D01*
X147360792Y-78064917D01*
X147117648Y-78103334D01*
X146889257Y-78201270D01*
X146700068Y-78354762D01*
X146695017Y-78360452D01*
X146584248Y-78466439D01*
X146475731Y-78511978D01*
X146380561Y-78519091D01*
X146318029Y-78515325D01*
X146257258Y-78498482D01*
X146187809Y-78460247D01*
X146099241Y-78392303D01*
X145981117Y-78286335D01*
X145822997Y-78134025D01*
X145632330Y-77944811D01*
X144926836Y-77944811D01*
X144911906Y-78011912D01*
X144881944Y-78067733D01*
X144871130Y-78083082D01*
X144836190Y-78118797D01*
X144781564Y-78144799D01*
X144692028Y-78163418D01*
X144552356Y-78176984D01*
X144347324Y-78187827D01*
X144134425Y-78195818D01*
X143859212Y-78208744D01*
X143639188Y-78226128D01*
X143486459Y-78246716D01*
X143413130Y-78269249D01*
X143411265Y-78270885D01*
X143395321Y-78322578D01*
X143382733Y-78445031D01*
X143373372Y-78642405D01*
X143367110Y-78918857D01*
X143363818Y-79278548D01*
X143363369Y-79725637D01*
X143363587Y-79817976D01*
X143364482Y-80230621D01*
X143364234Y-80561258D01*
X143362287Y-80820239D01*
X143358088Y-81017917D01*
X143351079Y-81164644D01*
X143340707Y-81270775D01*
X143326417Y-81346661D01*
X143307653Y-81402656D01*
X143283861Y-81449113D01*
X143275387Y-81463182D01*
X143182994Y-81613273D01*
X141017795Y-81613273D01*
X140922079Y-81491590D01*
X140896080Y-81455315D01*
X140875268Y-81413017D01*
X140859068Y-81354700D01*
X140846903Y-81270370D01*
X140838197Y-81150031D01*
X140832373Y-80983689D01*
X140828855Y-80761349D01*
X140827066Y-80473017D01*
X140826431Y-80108696D01*
X140826363Y-79831770D01*
X140825554Y-79389636D01*
X140822945Y-79032435D01*
X140818754Y-78782020D01*
X139048363Y-78782020D01*
X139048363Y-81482888D01*
X138939338Y-81571171D01*
X138898158Y-81599458D01*
X138845438Y-81620996D01*
X138768982Y-81636695D01*
X138656598Y-81647462D01*
X138496091Y-81654209D01*
X138275267Y-81657843D01*
X137981931Y-81659275D01*
X137755273Y-81659455D01*
X137410180Y-81658941D01*
X137145254Y-81656795D01*
X136948301Y-81652108D01*
X136807127Y-81643970D01*
X136709538Y-81631472D01*
X136643339Y-81613705D01*
X136596337Y-81589761D01*
X136571207Y-81571187D01*
X136462182Y-81482920D01*
X136446024Y-79721661D01*
X136429867Y-77960402D01*
X136192457Y-77974201D01*
X136041529Y-77991197D01*
X135963245Y-78024379D01*
X135940086Y-78066725D01*
X135961096Y-78133265D01*
X136061701Y-78180623D01*
X136078199Y-78185096D01*
X136231273Y-78224742D01*
X136243557Y-79478689D01*
X136255842Y-80732636D01*
X135880143Y-81151185D01*
X135727013Y-81317920D01*
X135589100Y-81461054D01*
X135481681Y-81565184D01*
X135420622Y-81614594D01*
X135351164Y-81627397D01*
X135200782Y-81638585D01*
X134980909Y-81647766D01*
X134702976Y-81654547D01*
X134378417Y-81658534D01*
X134115600Y-81659455D01*
X133740182Y-81658788D01*
X133446741Y-81656408D01*
X133224900Y-81651739D01*
X133064279Y-81644211D01*
X132954500Y-81633250D01*
X132885184Y-81618282D01*
X132845952Y-81598736D01*
X132835774Y-81588814D01*
X132812077Y-81552050D01*
X132804495Y-81508330D01*
X132818231Y-81449000D01*
X132827102Y-81430579D01*
X132654346Y-81430579D01*
X132539909Y-81545017D01*
X132425471Y-81659455D01*
X130088154Y-81659455D01*
X129476072Y-81658529D01*
X128954960Y-81655735D01*
X128523445Y-81651044D01*
X128180150Y-81644427D01*
X127923702Y-81635856D01*
X127752726Y-81625304D01*
X127665847Y-81612741D01*
X127657600Y-81609556D01*
X127586868Y-81552398D01*
X127527475Y-81456035D01*
X127475561Y-81308404D01*
X127427267Y-81097441D01*
X127378733Y-80811082D01*
X127358787Y-80675529D01*
X127324713Y-80428027D01*
X127305036Y-80253689D01*
X127299390Y-80134503D01*
X127307408Y-80052457D01*
X127328722Y-79989539D01*
X127344202Y-79959710D01*
X127414008Y-79835273D01*
X128751549Y-79812182D01*
X129137663Y-79805305D01*
X129441317Y-79798974D01*
X129672405Y-79792334D01*
X129840821Y-79784532D01*
X129956458Y-79774714D01*
X130029209Y-79762025D01*
X130068969Y-79745612D01*
X130085630Y-79724621D01*
X130089087Y-79698197D01*
X130089091Y-79696727D01*
X130082573Y-79656673D01*
X130052638Y-79628977D01*
X129983715Y-79610247D01*
X129860232Y-79597089D01*
X129666617Y-79586112D01*
X129559212Y-79581273D01*
X129330673Y-79570316D01*
X129176906Y-79558377D01*
X129080376Y-79541325D01*
X129023546Y-79515029D01*
X128988880Y-79475358D01*
X128971075Y-79442727D01*
X128946629Y-79346066D01*
X128928463Y-79180773D01*
X128916829Y-78970384D01*
X128911979Y-78738433D01*
X128914166Y-78508458D01*
X128923642Y-78303992D01*
X128940661Y-78148571D01*
X128956493Y-78083370D01*
X128980046Y-78030508D01*
X129014433Y-77996306D01*
X129077731Y-77976701D01*
X129188014Y-77967634D01*
X129363356Y-77965044D01*
X129483807Y-77964909D01*
X129738500Y-77962451D01*
X129914693Y-77952980D01*
X130026169Y-77933348D01*
X130086711Y-77900407D01*
X130110102Y-77851011D01*
X130112182Y-77821423D01*
X130108269Y-77795339D01*
X130089703Y-77775029D01*
X130046242Y-77759771D01*
X129967643Y-77748847D01*
X129843664Y-77741535D01*
X129664065Y-77737116D01*
X129418601Y-77734871D01*
X129097032Y-77734078D01*
X128868571Y-77734000D01*
X128480190Y-77733674D01*
X128173836Y-77731421D01*
X127939174Y-77725326D01*
X127765869Y-77713476D01*
X127643584Y-77693957D01*
X127561984Y-77664856D01*
X127510733Y-77624259D01*
X127479496Y-77570252D01*
X127457936Y-77500922D01*
X127450450Y-77471432D01*
X127444400Y-77364662D01*
X127456983Y-77192166D01*
X127484263Y-76976287D01*
X127522300Y-76739369D01*
X127567157Y-76503758D01*
X127614895Y-76291798D01*
X127661577Y-76125833D01*
X127671153Y-76103407D01*
X127341273Y-76103407D01*
X127315792Y-76168086D01*
X127242819Y-76300272D01*
X127127561Y-76491614D01*
X126975224Y-76733762D01*
X126791012Y-77018369D01*
X126580133Y-77337083D01*
X126466808Y-77505899D01*
X125592344Y-78802548D01*
X125927977Y-79295819D01*
X126244504Y-79761714D01*
X126512186Y-80157446D01*
X126734737Y-80488801D01*
X126915875Y-80761566D01*
X127059314Y-80981527D01*
X127168771Y-81154471D01*
X127247961Y-81286185D01*
X127300600Y-81382454D01*
X127330404Y-81449066D01*
X127341089Y-81491807D01*
X127341273Y-81496709D01*
X127336578Y-81566526D01*
X127316325Y-81622335D01*
X127271262Y-81665695D01*
X127192138Y-81698166D01*
X127069700Y-81721307D01*
X126894698Y-81736678D01*
X126657878Y-81745838D01*
X126349990Y-81750346D01*
X125961781Y-81751763D01*
X125827794Y-81751818D01*
X125424079Y-81750910D01*
X125102889Y-81747885D01*
X124854401Y-81742296D01*
X124668793Y-81733693D01*
X124536240Y-81721627D01*
X124446921Y-81705649D01*
X124392775Y-81686237D01*
X124315154Y-81624174D01*
X124199558Y-81504821D01*
X124062061Y-81345789D01*
X123928929Y-81178115D01*
X123591904Y-80735574D01*
X123228906Y-81194746D01*
X123082922Y-81374293D01*
X122949417Y-81529222D01*
X122842638Y-81643604D01*
X122776830Y-81701511D01*
X122774444Y-81702869D01*
X122702551Y-81716808D01*
X122552977Y-81728460D01*
X122340374Y-81737804D01*
X122079397Y-81744814D01*
X121784700Y-81749469D01*
X121470938Y-81751745D01*
X121152763Y-81751620D01*
X120844830Y-81749069D01*
X120561793Y-81744071D01*
X120318306Y-81736601D01*
X120129023Y-81726637D01*
X120008598Y-81714156D01*
X119979569Y-81707270D01*
X119909330Y-81676404D01*
X119860110Y-81639299D01*
X119835306Y-81588387D01*
X119838310Y-81516097D01*
X119872518Y-81414860D01*
X119941326Y-81277105D01*
X120048127Y-81095264D01*
X120196317Y-80861765D01*
X120389290Y-80569040D01*
X120630441Y-80209518D01*
X120692669Y-80117190D01*
X121580419Y-78800669D01*
X120754755Y-77576288D01*
X120505586Y-77207028D01*
X120303162Y-76906798D01*
X120142980Y-76667785D01*
X120020538Y-76482174D01*
X119931334Y-76342154D01*
X119870865Y-76239911D01*
X119834628Y-76167631D01*
X119818121Y-76117502D01*
X119816842Y-76081711D01*
X119826289Y-76052445D01*
X119841958Y-76021890D01*
X119849752Y-76005832D01*
X119904612Y-75885428D01*
X121370183Y-75897623D01*
X122835755Y-75909818D01*
X123119375Y-76264214D01*
X123252966Y-76432280D01*
X123374350Y-76587005D01*
X123465239Y-76704992D01*
X123493654Y-76743063D01*
X123584312Y-76867517D01*
X123898741Y-76457940D01*
X124016550Y-76301242D01*
X124111288Y-76175892D01*
X124194566Y-76078424D01*
X124277995Y-76005376D01*
X124373189Y-75953281D01*
X124491757Y-75918675D01*
X124645312Y-75898093D01*
X124845466Y-75888072D01*
X125103830Y-75885146D01*
X125432015Y-75885850D01*
X125813152Y-75886727D01*
X126228721Y-75887073D01*
X126561192Y-75888986D01*
X126819829Y-75893780D01*
X127013899Y-75902769D01*
X127152667Y-75917267D01*
X127245396Y-75938586D01*
X127301354Y-75968042D01*
X127329805Y-76006948D01*
X127340013Y-76056617D01*
X127341273Y-76103407D01*
X127671153Y-76103407D01*
X127703264Y-76028207D01*
X127705327Y-76025273D01*
X127789949Y-75909818D01*
X130119304Y-75897855D01*
X130655466Y-75895444D01*
X131106613Y-75894291D01*
X131480085Y-75894559D01*
X131783225Y-75896412D01*
X132023373Y-75900013D01*
X132207871Y-75905527D01*
X132344060Y-75913118D01*
X132439283Y-75922948D01*
X132500879Y-75935183D01*
X132536191Y-75949985D01*
X132538874Y-75951842D01*
X132557815Y-75968338D01*
X132573953Y-75992713D01*
X132587552Y-76032100D01*
X132598879Y-76093632D01*
X132608196Y-76184441D01*
X132615769Y-76311661D01*
X132621863Y-76482425D01*
X132626741Y-76703866D01*
X132630669Y-76983117D01*
X132633911Y-77327311D01*
X132636732Y-77743582D01*
X132639396Y-78239061D01*
X132641719Y-78724186D01*
X132654346Y-81430579D01*
X132827102Y-81430579D01*
X132858489Y-81365406D01*
X132930474Y-81248892D01*
X133039389Y-81090806D01*
X133190438Y-80882491D01*
X133388826Y-80615294D01*
X133552753Y-80396446D01*
X134226143Y-79499055D01*
X133946094Y-79231933D01*
X133684544Y-78935371D01*
X133517022Y-78662104D01*
X133450843Y-78521791D01*
X133407817Y-78405457D01*
X133382989Y-78286121D01*
X133371405Y-78136802D01*
X133368112Y-77930517D01*
X133368000Y-77850426D01*
X133370214Y-77616113D01*
X133379775Y-77447386D01*
X133401063Y-77317514D01*
X133438457Y-77199767D01*
X133496253Y-77067590D01*
X133721035Y-76687280D01*
X134005619Y-76376231D01*
X134347127Y-76136995D01*
X134723683Y-75977937D01*
X134801495Y-75955402D01*
X134882478Y-75936899D01*
X134976230Y-75922034D01*
X135092349Y-75910414D01*
X135240435Y-75901643D01*
X135430086Y-75895328D01*
X135670901Y-75891075D01*
X135972479Y-75888490D01*
X136344418Y-75887178D01*
X136796317Y-75886745D01*
X136944798Y-75886727D01*
X137417054Y-75886830D01*
X137805583Y-75887415D01*
X138119022Y-75888899D01*
X138366006Y-75891700D01*
X138555174Y-75896232D01*
X138695160Y-75902914D01*
X138794602Y-75912160D01*
X138862136Y-75924389D01*
X138906399Y-75940016D01*
X138936027Y-75959459D01*
X138959657Y-75983132D01*
X138960388Y-75983939D01*
X138978878Y-76007578D01*
X138994582Y-76039197D01*
X139007727Y-76086018D01*
X139018539Y-76155262D01*
X139027246Y-76254148D01*
X139034075Y-76389899D01*
X139039253Y-76569734D01*
X139043007Y-76800874D01*
X139045563Y-77090540D01*
X139047149Y-77445953D01*
X139047993Y-77874333D01*
X139048320Y-78382900D01*
X139048363Y-78782020D01*
X140818754Y-78782020D01*
X140818264Y-78752749D01*
X140811239Y-78543162D01*
X140801599Y-78396256D01*
X140789072Y-78304613D01*
X140773387Y-78260816D01*
X140768636Y-78256271D01*
X140703013Y-78240781D01*
X140564103Y-78224740D01*
X140370958Y-78209851D01*
X140142625Y-78197815D01*
X140092233Y-78195818D01*
X139842230Y-78185784D01*
X139667765Y-78175293D01*
X139552059Y-78160913D01*
X139478336Y-78139213D01*
X139429818Y-78106763D01*
X139389725Y-78060130D01*
X139382657Y-78050701D01*
X139291757Y-77928675D01*
X139516424Y-77038371D01*
X139595219Y-76729860D01*
X139657393Y-76498352D01*
X139707582Y-76330963D01*
X139750423Y-76214813D01*
X139790551Y-76137020D01*
X139832603Y-76084702D01*
X139871421Y-76052034D01*
X139906308Y-76028446D01*
X139946811Y-76008982D01*
X140001765Y-75993168D01*
X140080006Y-75980530D01*
X140190367Y-75970596D01*
X140341683Y-75962892D01*
X140542790Y-75956946D01*
X140802521Y-75952283D01*
X141129712Y-75948432D01*
X141533198Y-75944918D01*
X141926512Y-75941961D01*
X142347310Y-75939602D01*
X142745857Y-75938723D01*
X143111225Y-75939249D01*
X143432487Y-75941107D01*
X143698715Y-75944220D01*
X143898979Y-75948514D01*
X144022353Y-75953915D01*
X144048411Y-75956466D01*
X144176748Y-75981365D01*
X144279799Y-76022286D01*
X144365018Y-76090880D01*
X144439858Y-76198798D01*
X144511773Y-76357692D01*
X144588216Y-76579214D01*
X144676641Y-76875015D01*
X144709376Y-76989697D01*
X144798162Y-77306232D01*
X144862397Y-77547141D01*
X144903985Y-77725294D01*
X144924830Y-77853561D01*
X144926836Y-77944811D01*
X145632330Y-77944811D01*
X145614441Y-77927059D01*
X145524786Y-77837350D01*
X145272696Y-77583421D01*
X145082245Y-77383478D01*
X144949623Y-77226333D01*
X144871023Y-77100797D01*
X144842637Y-76995682D01*
X144860656Y-76899797D01*
X144921274Y-76801955D01*
X145020681Y-76690967D01*
X145105467Y-76605299D01*
X145492194Y-76279695D01*
X145928106Y-76028674D01*
X146417525Y-75850196D01*
X146922363Y-75747817D01*
X147457140Y-75718074D01*
X147972622Y-75773780D01*
X148460905Y-75909802D01*
X148914085Y-76121009D01*
X149324257Y-76402267D01*
X149683517Y-76748446D01*
X149983960Y-77154411D01*
X150217683Y-77615031D01*
X150336666Y-77964735D01*
X150395425Y-78260954D01*
X150427262Y-78606324D01*
X150431609Y-78965719D01*
X152096178Y-78965719D01*
X152094804Y-78825813D01*
X152094727Y-78755938D01*
X152098146Y-78444614D01*
X152108628Y-78220927D01*
X152126511Y-78080393D01*
X152150145Y-78020327D01*
X152229536Y-77991250D01*
X152396491Y-77972693D01*
X152646762Y-77965083D01*
X152698672Y-77964909D01*
X152937410Y-77961580D01*
X153098715Y-77950391D01*
X153197323Y-77929535D01*
X153247594Y-77897659D01*
X153279383Y-77851064D01*
X153283086Y-77814173D01*
X153250223Y-77785874D01*
X153172316Y-77765052D01*
X153040887Y-77750593D01*
X152847456Y-77741382D01*
X152583546Y-77736305D01*
X152240678Y-77734248D01*
X152002257Y-77734000D01*
X151631755Y-77733824D01*
X151342730Y-77732729D01*
X151124294Y-77729864D01*
X150965560Y-77724378D01*
X150855639Y-77715420D01*
X150783645Y-77702141D01*
X150738691Y-77683688D01*
X150709888Y-77659211D01*
X150688800Y-77631361D01*
X150640917Y-77520096D01*
X150621373Y-77356776D01*
X150630337Y-77131574D01*
X150667975Y-76834662D01*
X150706361Y-76607064D01*
X150757111Y-76349991D01*
X150805390Y-76167684D01*
X150857635Y-76042978D01*
X150920285Y-75958706D01*
X150963273Y-75922071D01*
X151017246Y-75915407D01*
X151154613Y-75909149D01*
X151366404Y-75903428D01*
X151643650Y-75898376D01*
X151977381Y-75894125D01*
X152358627Y-75890806D01*
X152778419Y-75888551D01*
X153227788Y-75887492D01*
X153322933Y-75887434D01*
X153844318Y-75887345D01*
X154281163Y-75887632D01*
X154641293Y-75888610D01*
X154932530Y-75890594D01*
X155162699Y-75893897D01*
X155339623Y-75898834D01*
X155471127Y-75905719D01*
X155565034Y-75914867D01*
X155629168Y-75926591D01*
X155671354Y-75941207D01*
X155699413Y-75959028D01*
X155721172Y-75980368D01*
X155724388Y-75983906D01*
X155743368Y-76008381D01*
X155759474Y-76041445D01*
X155772988Y-76090524D01*
X155784192Y-76163050D01*
X155793369Y-76266451D01*
X155800801Y-76408155D01*
X155806771Y-76595593D01*
X155811561Y-76836192D01*
X155815453Y-77137383D01*
X155818731Y-77506593D01*
X155821677Y-77951253D01*
X155824573Y-78478790D01*
X155825403Y-78640421D01*
X155828092Y-79230320D01*
X155829394Y-79734761D01*
X156715834Y-79734761D01*
X156716204Y-79698716D01*
X156721512Y-79495955D01*
X156729882Y-79355803D01*
X156741891Y-79268345D01*
X156758119Y-79223668D01*
X156777816Y-79211818D01*
X156818022Y-79248432D01*
X156904573Y-79352765D01*
X157031301Y-79516550D01*
X157192040Y-79731524D01*
X157380620Y-79989420D01*
X157590874Y-80281975D01*
X157816634Y-80600923D01*
X157851543Y-80650657D01*
X158082957Y-80979272D01*
X158302684Y-81288553D01*
X158503980Y-81569209D01*
X158680099Y-81811952D01*
X158824299Y-82007490D01*
X158929835Y-82146533D01*
X158989963Y-82219792D01*
X158992700Y-82222623D01*
X159234563Y-82407540D01*
X159507285Y-82518239D01*
X159793611Y-82554646D01*
X160076288Y-82516684D01*
X160338062Y-82404279D01*
X160550812Y-82229411D01*
X160612589Y-82151930D01*
X160718686Y-82007220D01*
X160864224Y-81802524D01*
X161044324Y-81545086D01*
X161254106Y-81242148D01*
X161488692Y-80900954D01*
X161743202Y-80528746D01*
X162012758Y-80132766D01*
X162292479Y-79720259D01*
X162577488Y-79298466D01*
X162862904Y-78874631D01*
X163143849Y-78455996D01*
X163415444Y-78049805D01*
X163672808Y-77663301D01*
X163911064Y-77303725D01*
X164125333Y-76978322D01*
X164310733Y-76694333D01*
X164462388Y-76459003D01*
X164575418Y-76279573D01*
X164644942Y-76163287D01*
X164665936Y-76120683D01*
X164672829Y-76002036D01*
X163614265Y-76002036D01*
X163614260Y-76002182D01*
X163588720Y-76052338D01*
X163516248Y-76171381D01*
X163401855Y-76351823D01*
X163250552Y-76586174D01*
X163067349Y-76866948D01*
X162857257Y-77186656D01*
X162625286Y-77537810D01*
X162376447Y-77912921D01*
X162115750Y-78304502D01*
X161848205Y-78705065D01*
X161578824Y-79107121D01*
X161312616Y-79503182D01*
X161054593Y-79885760D01*
X160809764Y-80247367D01*
X160583140Y-80580515D01*
X160379731Y-80877715D01*
X160204548Y-81131480D01*
X160062602Y-81334321D01*
X159958903Y-81478750D01*
X159898462Y-81557279D01*
X159893498Y-81562845D01*
X159821594Y-81632270D01*
X159773324Y-81636737D01*
X159713573Y-81583018D01*
X159674688Y-81531317D01*
X159588622Y-81409314D01*
X159459715Y-81223367D01*
X159292310Y-80979833D01*
X159090745Y-80685069D01*
X158859363Y-80345432D01*
X158602503Y-79967281D01*
X158324506Y-79556971D01*
X158029713Y-79120861D01*
X157802908Y-78784679D01*
X157500001Y-78334048D01*
X157212764Y-77904250D01*
X156945336Y-77501634D01*
X156701854Y-77132547D01*
X156486458Y-76803337D01*
X156303283Y-76520353D01*
X156156470Y-76289940D01*
X156050155Y-76118448D01*
X155988477Y-76012223D01*
X155974000Y-75979134D01*
X155976700Y-75952800D01*
X155991308Y-75932012D01*
X156027583Y-75916114D01*
X156095285Y-75904452D01*
X156204175Y-75896369D01*
X156364013Y-75891211D01*
X156584560Y-75888323D01*
X156875574Y-75887049D01*
X157246817Y-75886733D01*
X157350395Y-75886727D01*
X158726790Y-75886727D01*
X158867205Y-76036818D01*
X158948726Y-76130405D01*
X159070469Y-76278154D01*
X159216754Y-76460708D01*
X159371898Y-76658706D01*
X159390968Y-76683364D01*
X159533042Y-76864838D01*
X159655537Y-77016569D01*
X159747351Y-77125156D01*
X159797382Y-77177199D01*
X159802277Y-77179818D01*
X159838277Y-77145077D01*
X159920532Y-77048801D01*
X160039302Y-76902911D01*
X160184849Y-76719328D01*
X160312787Y-76554931D01*
X160477682Y-76347023D01*
X160629787Y-76165631D01*
X160757810Y-76023430D01*
X160850460Y-75933095D01*
X160890031Y-75906983D01*
X160959481Y-75901459D01*
X161108570Y-75897314D01*
X161324579Y-75894641D01*
X161594793Y-75893530D01*
X161906494Y-75894072D01*
X162246966Y-75896359D01*
X162300909Y-75896870D01*
X162683545Y-75900839D01*
X162983775Y-75904875D01*
X163211555Y-75909775D01*
X163376839Y-75916338D01*
X163489584Y-75925363D01*
X163559743Y-75937646D01*
X163597273Y-75953988D01*
X163612129Y-75975185D01*
X163614265Y-76002036D01*
X164672829Y-76002036D01*
X164679190Y-75892569D01*
X164617011Y-75651282D01*
X164489978Y-75417308D01*
X164308674Y-75211133D01*
X164127011Y-75077229D01*
X163930124Y-74961846D01*
X157354335Y-74974014D01*
X150778545Y-74986182D01*
X150517131Y-75114557D01*
X150298729Y-75249465D01*
X150093130Y-75424729D01*
X149932268Y-75611672D01*
X149891320Y-75676558D01*
X149863663Y-75708234D01*
X149818720Y-75713143D01*
X149740877Y-75685930D01*
X149614520Y-75621242D01*
X149435296Y-75520183D01*
X148853129Y-75223018D01*
X148296623Y-75014018D01*
X147764853Y-74892893D01*
X147314909Y-74858763D01*
X146817482Y-74889188D01*
G36*
X147123213Y-76111347D02*
G01*
X146677165Y-76188088D01*
X146257296Y-76326550D01*
X146017848Y-76444069D01*
X145873762Y-76535158D01*
X145718135Y-76647929D01*
X145569743Y-76766804D01*
X145447366Y-76876207D01*
X145369782Y-76960558D01*
X145352182Y-76996279D01*
X145381937Y-77041916D01*
X145464245Y-77142936D01*
X145588671Y-77287166D01*
X145744780Y-77462434D01*
X145866375Y-77596043D01*
X146380568Y-78156287D01*
X146547557Y-77996414D01*
X146754733Y-77823997D01*
X146956440Y-77721247D01*
X147186775Y-77674371D01*
X147361091Y-77667318D01*
X147664056Y-77696094D01*
X147914081Y-77788496D01*
X148133132Y-77954112D01*
X148214059Y-78039648D01*
X148386114Y-78282920D01*
X148478142Y-78540849D01*
X148501782Y-78800197D01*
X148459564Y-79120674D01*
X148333844Y-79402593D01*
X148137583Y-79632472D01*
X147867547Y-79819581D01*
X147575339Y-79922699D01*
X147274598Y-79941907D01*
X146978964Y-79877288D01*
X146702076Y-79728924D01*
X146574552Y-79623012D01*
X146434559Y-79490365D01*
X145329091Y-80603383D01*
X145555026Y-80810050D01*
X145840129Y-81039950D01*
X146144595Y-81217776D01*
X146500845Y-81363451D01*
X146797104Y-81440407D01*
X147137518Y-81487714D01*
X147481683Y-81502031D01*
X147789194Y-81480020D01*
X147829989Y-81473319D01*
X148294806Y-81344524D01*
X148727389Y-81135851D01*
X149117544Y-80856655D01*
X149455076Y-80516293D01*
X149729791Y-80124120D01*
X149931494Y-79689493D01*
X149994593Y-79486815D01*
X150049719Y-79167329D01*
X150064515Y-78802036D01*
X150040119Y-78427661D01*
X149977670Y-78080928D01*
X149947767Y-77975217D01*
X149761097Y-77533611D01*
X149498032Y-77133467D01*
X149168830Y-76784274D01*
X148783753Y-76495526D01*
X148353057Y-76276715D01*
X147984545Y-76158878D01*
X147568114Y-76100290D01*
X147123213Y-76111347D01*
G37*
X147123213Y-76111347D02*
X146677165Y-76188088D01*
X146257296Y-76326550D01*
X146017848Y-76444069D01*
X145873762Y-76535158D01*
X145718135Y-76647929D01*
X145569743Y-76766804D01*
X145447366Y-76876207D01*
X145369782Y-76960558D01*
X145352182Y-76996279D01*
X145381937Y-77041916D01*
X145464245Y-77142936D01*
X145588671Y-77287166D01*
X145744780Y-77462434D01*
X145866375Y-77596043D01*
X146380568Y-78156287D01*
X146547557Y-77996414D01*
X146754733Y-77823997D01*
X146956440Y-77721247D01*
X147186775Y-77674371D01*
X147361091Y-77667318D01*
X147664056Y-77696094D01*
X147914081Y-77788496D01*
X148133132Y-77954112D01*
X148214059Y-78039648D01*
X148386114Y-78282920D01*
X148478142Y-78540849D01*
X148501782Y-78800197D01*
X148459564Y-79120674D01*
X148333844Y-79402593D01*
X148137583Y-79632472D01*
X147867547Y-79819581D01*
X147575339Y-79922699D01*
X147274598Y-79941907D01*
X146978964Y-79877288D01*
X146702076Y-79728924D01*
X146574552Y-79623012D01*
X146434559Y-79490365D01*
X145329091Y-80603383D01*
X145555026Y-80810050D01*
X145840129Y-81039950D01*
X146144595Y-81217776D01*
X146500845Y-81363451D01*
X146797104Y-81440407D01*
X147137518Y-81487714D01*
X147481683Y-81502031D01*
X147789194Y-81480020D01*
X147829989Y-81473319D01*
X148294806Y-81344524D01*
X148727389Y-81135851D01*
X149117544Y-80856655D01*
X149455076Y-80516293D01*
X149729791Y-80124120D01*
X149931494Y-79689493D01*
X149994593Y-79486815D01*
X150049719Y-79167329D01*
X150064515Y-78802036D01*
X150040119Y-78427661D01*
X149977670Y-78080928D01*
X149947767Y-77975217D01*
X149761097Y-77533611D01*
X149498032Y-77133467D01*
X149168830Y-76784274D01*
X148783753Y-76495526D01*
X148353057Y-76276715D01*
X147984545Y-76158878D01*
X147568114Y-76100290D01*
X147123213Y-76111347D01*
G36*
X124540185Y-76452455D02*
G01*
X124451854Y-76554484D01*
X124328656Y-76706858D01*
X124190034Y-76885212D01*
X124107150Y-76995091D01*
X123974013Y-77172687D01*
X123850722Y-77335108D01*
X123754318Y-77460006D01*
X123714407Y-77510162D01*
X123614039Y-77632687D01*
X123157027Y-77030303D01*
X122996219Y-76822187D01*
X122847711Y-76637056D01*
X122723266Y-76489048D01*
X122634650Y-76392301D01*
X122602681Y-76364143D01*
X122547281Y-76341285D01*
X122453851Y-76325058D01*
X122310813Y-76314876D01*
X122106587Y-76310152D01*
X121829596Y-76310299D01*
X121591662Y-76312911D01*
X121275049Y-76318059D01*
X121038432Y-76324381D01*
X120869440Y-76333054D01*
X120755706Y-76345253D01*
X120684862Y-76362154D01*
X120644537Y-76384932D01*
X120628164Y-76404496D01*
X120621429Y-76439050D01*
X120636591Y-76496792D01*
X120678319Y-76585610D01*
X120751280Y-76713392D01*
X120860145Y-76888025D01*
X121009581Y-77117397D01*
X121204257Y-77409397D01*
X121358214Y-77637916D01*
X122138077Y-78792296D01*
X121397610Y-79891057D01*
X121205246Y-80178508D01*
X121029083Y-80445581D01*
X120876059Y-80681451D01*
X120753114Y-80875292D01*
X120667188Y-81016278D01*
X120625219Y-81093583D01*
X120622993Y-81099493D01*
X120617848Y-81208668D01*
X120651512Y-81248877D01*
X120715436Y-81261208D01*
X120856403Y-81272053D01*
X121059097Y-81280770D01*
X121308202Y-81286717D01*
X121588401Y-81289253D01*
X121615997Y-81289293D01*
X121944560Y-81288169D01*
X122192802Y-81283676D01*
X122372727Y-81275013D01*
X122496343Y-81261374D01*
X122575654Y-81241959D01*
X122614148Y-81222524D01*
X122673841Y-81163508D01*
X122776314Y-81044208D01*
X122909891Y-80878942D01*
X123062894Y-80682028D01*
X123162304Y-80550440D01*
X123314942Y-80350767D01*
X123449447Y-80183449D01*
X123556072Y-80059930D01*
X123625066Y-79991652D01*
X123645806Y-79982917D01*
X123683384Y-80030706D01*
X123766628Y-80138651D01*
X123885285Y-80293392D01*
X124029105Y-80481571D01*
X124125574Y-80608076D01*
X124284102Y-80812002D01*
X124429433Y-80991342D01*
X124549897Y-81132265D01*
X124633826Y-81220940D01*
X124661340Y-81243076D01*
X124736553Y-81258779D01*
X124890585Y-81271963D01*
X125109911Y-81281982D01*
X125381005Y-81288194D01*
X125646945Y-81290000D01*
X125969561Y-81288767D01*
X126211383Y-81284533D01*
X126383956Y-81276494D01*
X126498823Y-81263847D01*
X126567529Y-81245789D01*
X126599914Y-81223679D01*
X126619341Y-81198059D01*
X126629481Y-81169730D01*
X126625537Y-81130263D01*
X126602711Y-81071228D01*
X126556207Y-80984196D01*
X126481227Y-80860736D01*
X126372973Y-80692419D01*
X126226648Y-80470816D01*
X126037455Y-80187496D01*
X125856739Y-79917791D01*
X125672837Y-79642459D01*
X125505696Y-79390373D01*
X125362328Y-79172260D01*
X125249746Y-78998844D01*
X125174962Y-78880851D01*
X125145148Y-78829442D01*
X125163678Y-78776137D01*
X125228006Y-78657083D01*
X125331735Y-78482729D01*
X125468468Y-78263526D01*
X125631805Y-78009925D01*
X125815351Y-77732377D01*
X125831801Y-77707833D01*
X126061552Y-77365277D01*
X126244641Y-77091169D01*
X126385821Y-76877227D01*
X126489843Y-76715166D01*
X126561457Y-76596704D01*
X126605416Y-76513556D01*
X126626470Y-76457440D01*
X126629370Y-76420072D01*
X126618868Y-76393169D01*
X126599914Y-76368684D01*
X126564180Y-76345346D01*
X126493500Y-76327938D01*
X126376525Y-76315698D01*
X126201909Y-76307865D01*
X125958304Y-76303675D01*
X125634365Y-76302367D01*
X125612859Y-76302364D01*
X124680846Y-76302364D01*
X124540185Y-76452455D01*
G37*
X124540185Y-76452455D02*
X124451854Y-76554484D01*
X124328656Y-76706858D01*
X124190034Y-76885212D01*
X124107150Y-76995091D01*
X123974013Y-77172687D01*
X123850722Y-77335108D01*
X123754318Y-77460006D01*
X123714407Y-77510162D01*
X123614039Y-77632687D01*
X123157027Y-77030303D01*
X122996219Y-76822187D01*
X122847711Y-76637056D01*
X122723266Y-76489048D01*
X122634650Y-76392301D01*
X122602681Y-76364143D01*
X122547281Y-76341285D01*
X122453851Y-76325058D01*
X122310813Y-76314876D01*
X122106587Y-76310152D01*
X121829596Y-76310299D01*
X121591662Y-76312911D01*
X121275049Y-76318059D01*
X121038432Y-76324381D01*
X120869440Y-76333054D01*
X120755706Y-76345253D01*
X120684862Y-76362154D01*
X120644537Y-76384932D01*
X120628164Y-76404496D01*
X120621429Y-76439050D01*
X120636591Y-76496792D01*
X120678319Y-76585610D01*
X120751280Y-76713392D01*
X120860145Y-76888025D01*
X121009581Y-77117397D01*
X121204257Y-77409397D01*
X121358214Y-77637916D01*
X122138077Y-78792296D01*
X121397610Y-79891057D01*
X121205246Y-80178508D01*
X121029083Y-80445581D01*
X120876059Y-80681451D01*
X120753114Y-80875292D01*
X120667188Y-81016278D01*
X120625219Y-81093583D01*
X120622993Y-81099493D01*
X120617848Y-81208668D01*
X120651512Y-81248877D01*
X120715436Y-81261208D01*
X120856403Y-81272053D01*
X121059097Y-81280770D01*
X121308202Y-81286717D01*
X121588401Y-81289253D01*
X121615997Y-81289293D01*
X121944560Y-81288169D01*
X122192802Y-81283676D01*
X122372727Y-81275013D01*
X122496343Y-81261374D01*
X122575654Y-81241959D01*
X122614148Y-81222524D01*
X122673841Y-81163508D01*
X122776314Y-81044208D01*
X122909891Y-80878942D01*
X123062894Y-80682028D01*
X123162304Y-80550440D01*
X123314942Y-80350767D01*
X123449447Y-80183449D01*
X123556072Y-80059930D01*
X123625066Y-79991652D01*
X123645806Y-79982917D01*
X123683384Y-80030706D01*
X123766628Y-80138651D01*
X123885285Y-80293392D01*
X124029105Y-80481571D01*
X124125574Y-80608076D01*
X124284102Y-80812002D01*
X124429433Y-80991342D01*
X124549897Y-81132265D01*
X124633826Y-81220940D01*
X124661340Y-81243076D01*
X124736553Y-81258779D01*
X124890585Y-81271963D01*
X125109911Y-81281982D01*
X125381005Y-81288194D01*
X125646945Y-81290000D01*
X125969561Y-81288767D01*
X126211383Y-81284533D01*
X126383956Y-81276494D01*
X126498823Y-81263847D01*
X126567529Y-81245789D01*
X126599914Y-81223679D01*
X126619341Y-81198059D01*
X126629481Y-81169730D01*
X126625537Y-81130263D01*
X126602711Y-81071228D01*
X126556207Y-80984196D01*
X126481227Y-80860736D01*
X126372973Y-80692419D01*
X126226648Y-80470816D01*
X126037455Y-80187496D01*
X125856739Y-79917791D01*
X125672837Y-79642459D01*
X125505696Y-79390373D01*
X125362328Y-79172260D01*
X125249746Y-78998844D01*
X125174962Y-78880851D01*
X125145148Y-78829442D01*
X125163678Y-78776137D01*
X125228006Y-78657083D01*
X125331735Y-78482729D01*
X125468468Y-78263526D01*
X125631805Y-78009925D01*
X125815351Y-77732377D01*
X125831801Y-77707833D01*
X126061552Y-77365277D01*
X126244641Y-77091169D01*
X126385821Y-76877227D01*
X126489843Y-76715166D01*
X126561457Y-76596704D01*
X126605416Y-76513556D01*
X126626470Y-76457440D01*
X126629370Y-76420072D01*
X126618868Y-76393169D01*
X126599914Y-76368684D01*
X126564180Y-76345346D01*
X126493500Y-76327938D01*
X126376525Y-76315698D01*
X126201909Y-76307865D01*
X125958304Y-76303675D01*
X125634365Y-76302367D01*
X125612859Y-76302364D01*
X124680846Y-76302364D01*
X124540185Y-76452455D01*
G36*
X161889018Y-76211642D02*
G01*
X161639972Y-76217097D01*
X161415698Y-76225596D01*
X161235558Y-76236913D01*
X161118912Y-76250819D01*
X161090809Y-76258504D01*
X161032076Y-76308881D01*
X160928544Y-76421941D01*
X160790073Y-76585913D01*
X160626522Y-76789026D01*
X160447749Y-77019507D01*
X160393285Y-77091351D01*
X159801842Y-77875693D01*
X159269871Y-77169846D01*
X159094022Y-76939279D01*
X158927708Y-76726275D01*
X158782390Y-76545125D01*
X158669525Y-76410122D01*
X158602130Y-76337000D01*
X158466361Y-76210000D01*
X157624271Y-76210707D01*
X157291701Y-76212827D01*
X157041646Y-76219572D01*
X156864307Y-76232471D01*
X156749888Y-76253055D01*
X156688592Y-76282852D01*
X156670620Y-76323392D01*
X156678335Y-76358364D01*
X156713285Y-76421411D01*
X156793485Y-76550401D01*
X156913466Y-76737208D01*
X157067757Y-76973710D01*
X157250889Y-77251782D01*
X157457392Y-77563301D01*
X157681798Y-77900142D01*
X157918635Y-78254183D01*
X158162435Y-78617299D01*
X158407728Y-78981367D01*
X158649044Y-79338262D01*
X158880914Y-79679862D01*
X159097867Y-79998041D01*
X159294436Y-80284677D01*
X159465149Y-80531646D01*
X159604538Y-80730824D01*
X159707132Y-80874086D01*
X159767462Y-80953311D01*
X159781072Y-80966727D01*
X159849707Y-80935117D01*
X159930648Y-80862818D01*
X159983015Y-80794430D01*
X160077953Y-80659875D01*
X160209964Y-80467524D01*
X160373553Y-80225750D01*
X160563222Y-79942924D01*
X160773474Y-79627419D01*
X160998812Y-79287606D01*
X161233739Y-78931856D01*
X161472760Y-78568542D01*
X161710375Y-78206036D01*
X161941090Y-77852710D01*
X162159406Y-77516934D01*
X162359828Y-77207082D01*
X162536857Y-76931524D01*
X162684998Y-76698634D01*
X162798753Y-76516782D01*
X162872625Y-76394340D01*
X162901118Y-76339681D01*
X162901273Y-76338514D01*
X162863728Y-76260850D01*
X162828223Y-76238032D01*
X162745721Y-76224839D01*
X162591189Y-76215831D01*
X162383987Y-76210781D01*
X162143477Y-76209461D01*
X161889018Y-76211642D01*
G37*
X161889018Y-76211642D02*
X161639972Y-76217097D01*
X161415698Y-76225596D01*
X161235558Y-76236913D01*
X161118912Y-76250819D01*
X161090809Y-76258504D01*
X161032076Y-76308881D01*
X160928544Y-76421941D01*
X160790073Y-76585913D01*
X160626522Y-76789026D01*
X160447749Y-77019507D01*
X160393285Y-77091351D01*
X159801842Y-77875693D01*
X159269871Y-77169846D01*
X159094022Y-76939279D01*
X158927708Y-76726275D01*
X158782390Y-76545125D01*
X158669525Y-76410122D01*
X158602130Y-76337000D01*
X158466361Y-76210000D01*
X157624271Y-76210707D01*
X157291701Y-76212827D01*
X157041646Y-76219572D01*
X156864307Y-76232471D01*
X156749888Y-76253055D01*
X156688592Y-76282852D01*
X156670620Y-76323392D01*
X156678335Y-76358364D01*
X156713285Y-76421411D01*
X156793485Y-76550401D01*
X156913466Y-76737208D01*
X157067757Y-76973710D01*
X157250889Y-77251782D01*
X157457392Y-77563301D01*
X157681798Y-77900142D01*
X157918635Y-78254183D01*
X158162435Y-78617299D01*
X158407728Y-78981367D01*
X158649044Y-79338262D01*
X158880914Y-79679862D01*
X159097867Y-79998041D01*
X159294436Y-80284677D01*
X159465149Y-80531646D01*
X159604538Y-80730824D01*
X159707132Y-80874086D01*
X159767462Y-80953311D01*
X159781072Y-80966727D01*
X159849707Y-80935117D01*
X159930648Y-80862818D01*
X159983015Y-80794430D01*
X160077953Y-80659875D01*
X160209964Y-80467524D01*
X160373553Y-80225750D01*
X160563222Y-79942924D01*
X160773474Y-79627419D01*
X160998812Y-79287606D01*
X161233739Y-78931856D01*
X161472760Y-78568542D01*
X161710375Y-78206036D01*
X161941090Y-77852710D01*
X162159406Y-77516934D01*
X162359828Y-77207082D01*
X162536857Y-76931524D01*
X162684998Y-76698634D01*
X162798753Y-76516782D01*
X162872625Y-76394340D01*
X162901118Y-76339681D01*
X162901273Y-76338514D01*
X162863728Y-76260850D01*
X162828223Y-76238032D01*
X162745721Y-76224839D01*
X162591189Y-76215831D01*
X162383987Y-76210781D01*
X162143477Y-76209461D01*
X161889018Y-76211642D01*
G36*
X151288839Y-76312449D02*
G01*
X151225528Y-76380746D01*
X151179023Y-76471766D01*
X151141125Y-76608064D01*
X151103638Y-76812192D01*
X151100778Y-76829854D01*
X151069509Y-77051705D01*
X151060521Y-77197957D01*
X151073361Y-77282534D01*
X151085321Y-77303218D01*
X151120577Y-77322615D01*
X151196442Y-77337725D01*
X151322057Y-77348990D01*
X151506565Y-77356852D01*
X151759109Y-77361753D01*
X152088831Y-77364137D01*
X152352757Y-77364546D01*
X152735552Y-77364049D01*
X153035946Y-77365095D01*
X153263875Y-77371486D01*
X153429275Y-77387028D01*
X153542081Y-77415524D01*
X153612229Y-77460776D01*
X153649654Y-77526590D01*
X153664292Y-77616769D01*
X153666078Y-77735116D01*
X153664909Y-77866891D01*
X153658491Y-78052032D01*
X153629879Y-78180768D01*
X153565033Y-78263235D01*
X153449913Y-78309567D01*
X153270481Y-78329898D01*
X153017324Y-78334364D01*
X152775582Y-78340568D01*
X152607696Y-78358537D01*
X152522345Y-78387303D01*
X152519600Y-78389782D01*
X152489372Y-78465777D01*
X152469704Y-78608217D01*
X152464182Y-78755938D01*
X152469296Y-78941983D01*
X152494437Y-79069122D01*
X152554303Y-79148512D01*
X152663590Y-79191316D01*
X152836997Y-79208694D01*
X153064545Y-79211818D01*
X153309438Y-79215492D01*
X153476759Y-79234382D01*
X153581237Y-79280291D01*
X153637602Y-79365018D01*
X153660583Y-79500368D01*
X153664909Y-79692868D01*
X153665456Y-79829159D01*
X153660769Y-79937485D01*
X153641361Y-80021048D01*
X153597741Y-80083051D01*
X153520419Y-80126698D01*
X153399907Y-80155189D01*
X153226714Y-80171728D01*
X152991352Y-80179517D01*
X152684330Y-80181759D01*
X152296160Y-80181657D01*
X152216641Y-80181636D01*
X151828561Y-80182368D01*
X151523484Y-80184870D01*
X151292060Y-80189601D01*
X151124939Y-80197021D01*
X151012769Y-80207592D01*
X150946200Y-80221771D01*
X150915882Y-80240019D01*
X150912676Y-80245762D01*
X150907280Y-80327898D01*
X150920345Y-80470646D01*
X150947130Y-80645216D01*
X150982892Y-80822818D01*
X151022890Y-80974662D01*
X151041566Y-81028340D01*
X151115018Y-81137744D01*
X151204400Y-81201521D01*
X151269923Y-81209213D01*
X151415812Y-81216041D01*
X151630071Y-81221974D01*
X151900706Y-81226983D01*
X152215722Y-81231039D01*
X152563125Y-81234113D01*
X152930919Y-81236175D01*
X153307110Y-81237195D01*
X153679704Y-81237144D01*
X154036706Y-81235993D01*
X154366121Y-81233712D01*
X154655954Y-81230272D01*
X154894211Y-81225643D01*
X155068897Y-81219796D01*
X155168018Y-81212701D01*
X155176957Y-81211279D01*
X155230325Y-81199934D01*
X155275238Y-81183226D01*
X155312428Y-81153682D01*
X155342621Y-81103831D01*
X155366548Y-81026200D01*
X155384937Y-80913318D01*
X155398516Y-80757712D01*
X155408016Y-80551912D01*
X155414165Y-80288444D01*
X155417691Y-79959836D01*
X155419324Y-79558618D01*
X155419793Y-79077316D01*
X155419818Y-78721750D01*
X155419678Y-78204397D01*
X155419061Y-77771438D01*
X155417671Y-77414903D01*
X155415212Y-77126822D01*
X155411390Y-76899226D01*
X155405908Y-76724145D01*
X155398472Y-76593609D01*
X155388784Y-76499648D01*
X155376551Y-76434294D01*
X155361476Y-76389575D01*
X155343263Y-76357523D01*
X155331568Y-76342116D01*
X155243318Y-76233091D01*
X151410546Y-76207079D01*
X151288839Y-76312449D01*
G37*
X151288839Y-76312449D02*
X151225528Y-76380746D01*
X151179023Y-76471766D01*
X151141125Y-76608064D01*
X151103638Y-76812192D01*
X151100778Y-76829854D01*
X151069509Y-77051705D01*
X151060521Y-77197957D01*
X151073361Y-77282534D01*
X151085321Y-77303218D01*
X151120577Y-77322615D01*
X151196442Y-77337725D01*
X151322057Y-77348990D01*
X151506565Y-77356852D01*
X151759109Y-77361753D01*
X152088831Y-77364137D01*
X152352757Y-77364546D01*
X152735552Y-77364049D01*
X153035946Y-77365095D01*
X153263875Y-77371486D01*
X153429275Y-77387028D01*
X153542081Y-77415524D01*
X153612229Y-77460776D01*
X153649654Y-77526590D01*
X153664292Y-77616769D01*
X153666078Y-77735116D01*
X153664909Y-77866891D01*
X153658491Y-78052032D01*
X153629879Y-78180768D01*
X153565033Y-78263235D01*
X153449913Y-78309567D01*
X153270481Y-78329898D01*
X153017324Y-78334364D01*
X152775582Y-78340568D01*
X152607696Y-78358537D01*
X152522345Y-78387303D01*
X152519600Y-78389782D01*
X152489372Y-78465777D01*
X152469704Y-78608217D01*
X152464182Y-78755938D01*
X152469296Y-78941983D01*
X152494437Y-79069122D01*
X152554303Y-79148512D01*
X152663590Y-79191316D01*
X152836997Y-79208694D01*
X153064545Y-79211818D01*
X153309438Y-79215492D01*
X153476759Y-79234382D01*
X153581237Y-79280291D01*
X153637602Y-79365018D01*
X153660583Y-79500368D01*
X153664909Y-79692868D01*
X153665456Y-79829159D01*
X153660769Y-79937485D01*
X153641361Y-80021048D01*
X153597741Y-80083051D01*
X153520419Y-80126698D01*
X153399907Y-80155189D01*
X153226714Y-80171728D01*
X152991352Y-80179517D01*
X152684330Y-80181759D01*
X152296160Y-80181657D01*
X152216641Y-80181636D01*
X151828561Y-80182368D01*
X151523484Y-80184870D01*
X151292060Y-80189601D01*
X151124939Y-80197021D01*
X151012769Y-80207592D01*
X150946200Y-80221771D01*
X150915882Y-80240019D01*
X150912676Y-80245762D01*
X150907280Y-80327898D01*
X150920345Y-80470646D01*
X150947130Y-80645216D01*
X150982892Y-80822818D01*
X151022890Y-80974662D01*
X151041566Y-81028340D01*
X151115018Y-81137744D01*
X151204400Y-81201521D01*
X151269923Y-81209213D01*
X151415812Y-81216041D01*
X151630071Y-81221974D01*
X151900706Y-81226983D01*
X152215722Y-81231039D01*
X152563125Y-81234113D01*
X152930919Y-81236175D01*
X153307110Y-81237195D01*
X153679704Y-81237144D01*
X154036706Y-81235993D01*
X154366121Y-81233712D01*
X154655954Y-81230272D01*
X154894211Y-81225643D01*
X155068897Y-81219796D01*
X155168018Y-81212701D01*
X155176957Y-81211279D01*
X155230325Y-81199934D01*
X155275238Y-81183226D01*
X155312428Y-81153682D01*
X155342621Y-81103831D01*
X155366548Y-81026200D01*
X155384937Y-80913318D01*
X155398516Y-80757712D01*
X155408016Y-80551912D01*
X155414165Y-80288444D01*
X155417691Y-79959836D01*
X155419324Y-79558618D01*
X155419793Y-79077316D01*
X155419818Y-78721750D01*
X155419678Y-78204397D01*
X155419061Y-77771438D01*
X155417671Y-77414903D01*
X155415212Y-77126822D01*
X155411390Y-76899226D01*
X155405908Y-76724145D01*
X155398472Y-76593609D01*
X155388784Y-76499648D01*
X155376551Y-76434294D01*
X155361476Y-76389575D01*
X155343263Y-76357523D01*
X155331568Y-76342116D01*
X155243318Y-76233091D01*
X151410546Y-76207079D01*
X151288839Y-76312449D01*
G36*
X137338785Y-76306714D02*
G01*
X136931870Y-76309689D01*
X136718314Y-76311404D01*
X134984363Y-76325455D01*
X134693811Y-76459621D01*
X134376267Y-76651981D01*
X134121804Y-76899756D01*
X133935118Y-77190406D01*
X133820904Y-77511392D01*
X133783858Y-77850172D01*
X133828675Y-78194207D01*
X133935853Y-78483865D01*
X134107502Y-78757894D01*
X134340238Y-79023701D01*
X134605851Y-79249448D01*
X134628021Y-79265063D01*
X134733496Y-79338163D01*
X134108475Y-80208496D01*
X133930618Y-80458558D01*
X133772448Y-80685532D01*
X133641563Y-80878136D01*
X133545562Y-81025088D01*
X133492041Y-81115107D01*
X133483454Y-81136608D01*
X133499205Y-81187700D01*
X133553062Y-81226592D01*
X133654939Y-81254753D01*
X133814746Y-81273649D01*
X134042393Y-81284751D01*
X134347793Y-81289524D01*
X134518953Y-81290000D01*
X135375797Y-81290000D01*
X135931091Y-80591222D01*
X135931091Y-79555156D01*
X135930614Y-79219232D01*
X135928604Y-78964529D01*
X135924195Y-78779907D01*
X135916517Y-78654224D01*
X135904704Y-78576341D01*
X135887887Y-78535117D01*
X135865199Y-78519413D01*
X135850273Y-78517622D01*
X135705959Y-78473722D01*
X135590540Y-78363231D01*
X135511669Y-78209446D01*
X135477006Y-78035667D01*
X135494205Y-77865192D01*
X135570923Y-77721317D01*
X135584013Y-77707425D01*
X135635007Y-77660273D01*
X135688391Y-77628648D01*
X135762108Y-77609955D01*
X135874100Y-77601601D01*
X136042310Y-77600993D01*
X136284680Y-77605536D01*
X136288286Y-77605615D01*
X136877818Y-77618546D01*
X136889919Y-79392483D01*
X136894641Y-79913192D01*
X136901130Y-80343855D01*
X136909465Y-80686777D01*
X136919726Y-80944261D01*
X136931994Y-81118609D01*
X136946346Y-81212126D01*
X136953301Y-81228211D01*
X136997387Y-81252810D01*
X137089924Y-81270440D01*
X137241963Y-81281948D01*
X137464551Y-81288185D01*
X137757575Y-81290000D01*
X138510569Y-81290000D01*
X138606284Y-81168317D01*
X138628024Y-81138498D01*
X138646195Y-81103780D01*
X138661118Y-81056155D01*
X138673113Y-80987614D01*
X138682498Y-80890147D01*
X138689595Y-80755743D01*
X138694721Y-80576395D01*
X138698198Y-80344093D01*
X138700345Y-80050827D01*
X138701481Y-79688587D01*
X138701926Y-79249364D01*
X138702000Y-78770215D01*
X138702000Y-76493795D01*
X138577132Y-76395574D01*
X138542904Y-76370346D01*
X138504630Y-76349944D01*
X138452969Y-76333945D01*
X138378579Y-76321925D01*
X138272121Y-76313461D01*
X138124253Y-76308131D01*
X137925635Y-76305512D01*
X137666926Y-76305181D01*
X137338785Y-76306714D01*
G37*
X137338785Y-76306714D02*
X136931870Y-76309689D01*
X136718314Y-76311404D01*
X134984363Y-76325455D01*
X134693811Y-76459621D01*
X134376267Y-76651981D01*
X134121804Y-76899756D01*
X133935118Y-77190406D01*
X133820904Y-77511392D01*
X133783858Y-77850172D01*
X133828675Y-78194207D01*
X133935853Y-78483865D01*
X134107502Y-78757894D01*
X134340238Y-79023701D01*
X134605851Y-79249448D01*
X134628021Y-79265063D01*
X134733496Y-79338163D01*
X134108475Y-80208496D01*
X133930618Y-80458558D01*
X133772448Y-80685532D01*
X133641563Y-80878136D01*
X133545562Y-81025088D01*
X133492041Y-81115107D01*
X133483454Y-81136608D01*
X133499205Y-81187700D01*
X133553062Y-81226592D01*
X133654939Y-81254753D01*
X133814746Y-81273649D01*
X134042393Y-81284751D01*
X134347793Y-81289524D01*
X134518953Y-81290000D01*
X135375797Y-81290000D01*
X135931091Y-80591222D01*
X135931091Y-79555156D01*
X135930614Y-79219232D01*
X135928604Y-78964529D01*
X135924195Y-78779907D01*
X135916517Y-78654224D01*
X135904704Y-78576341D01*
X135887887Y-78535117D01*
X135865199Y-78519413D01*
X135850273Y-78517622D01*
X135705959Y-78473722D01*
X135590540Y-78363231D01*
X135511669Y-78209446D01*
X135477006Y-78035667D01*
X135494205Y-77865192D01*
X135570923Y-77721317D01*
X135584013Y-77707425D01*
X135635007Y-77660273D01*
X135688391Y-77628648D01*
X135762108Y-77609955D01*
X135874100Y-77601601D01*
X136042310Y-77600993D01*
X136284680Y-77605536D01*
X136288286Y-77605615D01*
X136877818Y-77618546D01*
X136889919Y-79392483D01*
X136894641Y-79913192D01*
X136901130Y-80343855D01*
X136909465Y-80686777D01*
X136919726Y-80944261D01*
X136931994Y-81118609D01*
X136946346Y-81212126D01*
X136953301Y-81228211D01*
X136997387Y-81252810D01*
X137089924Y-81270440D01*
X137241963Y-81281948D01*
X137464551Y-81288185D01*
X137757575Y-81290000D01*
X138510569Y-81290000D01*
X138606284Y-81168317D01*
X138628024Y-81138498D01*
X138646195Y-81103780D01*
X138661118Y-81056155D01*
X138673113Y-80987614D01*
X138682498Y-80890147D01*
X138689595Y-80755743D01*
X138694721Y-80576395D01*
X138698198Y-80344093D01*
X138700345Y-80050827D01*
X138701481Y-79688587D01*
X138701926Y-79249364D01*
X138702000Y-78770215D01*
X138702000Y-76493795D01*
X138577132Y-76395574D01*
X138542904Y-76370346D01*
X138504630Y-76349944D01*
X138452969Y-76333945D01*
X138378579Y-76321925D01*
X138272121Y-76313461D01*
X138124253Y-76308131D01*
X137925635Y-76305512D01*
X137666926Y-76305181D01*
X137338785Y-76306714D01*
G36*
X129064976Y-76216877D02*
G01*
X128763538Y-76218475D01*
X128519441Y-76221242D01*
X128343113Y-76225110D01*
X128244983Y-76230017D01*
X128230857Y-76232013D01*
X128132617Y-76280746D01*
X128056996Y-76380035D01*
X127998206Y-76542486D01*
X127950460Y-76780707D01*
X127936952Y-76872228D01*
X127911434Y-77072526D01*
X127902467Y-77200565D01*
X127910410Y-77275022D01*
X127935623Y-77314572D01*
X127945605Y-77321794D01*
X128008054Y-77333069D01*
X128149714Y-77343229D01*
X128357436Y-77351828D01*
X128618067Y-77358424D01*
X128918459Y-77362572D01*
X129190854Y-77363838D01*
X129589143Y-77365491D01*
X129901785Y-77370121D01*
X130135458Y-77378032D01*
X130296839Y-77389526D01*
X130392606Y-77404908D01*
X130426218Y-77419964D01*
X130456172Y-77498093D01*
X130475288Y-77652793D01*
X130481636Y-77857066D01*
X130478133Y-78052562D01*
X130457716Y-78185746D01*
X130405525Y-78268567D01*
X130306701Y-78312977D01*
X130146382Y-78330924D01*
X129909709Y-78334358D01*
X129888086Y-78334364D01*
X129694074Y-78337364D01*
X129530250Y-78345379D01*
X129422365Y-78356928D01*
X129400141Y-78362396D01*
X129361417Y-78396943D01*
X129338719Y-78475937D01*
X129328583Y-78617539D01*
X129327091Y-78745705D01*
X129334486Y-78946058D01*
X129354975Y-79090241D01*
X129382509Y-79156400D01*
X129461745Y-79185710D01*
X129626349Y-79204382D01*
X129869862Y-79211730D01*
X129904363Y-79211818D01*
X130156985Y-79217750D01*
X130331478Y-79235089D01*
X130421386Y-79263148D01*
X130426218Y-79267236D01*
X130456896Y-79344194D01*
X130475803Y-79483206D01*
X130483137Y-79656375D01*
X130479098Y-79835801D01*
X130463884Y-79993585D01*
X130437695Y-80101829D01*
X130420074Y-80129056D01*
X130350251Y-80147316D01*
X130188461Y-80162714D01*
X129935054Y-80175232D01*
X129590381Y-80184854D01*
X129154795Y-80191564D01*
X129069255Y-80192438D01*
X127780000Y-80204727D01*
X127789942Y-80514100D01*
X127819837Y-80804205D01*
X127887285Y-81020793D01*
X127990277Y-81158735D01*
X128057863Y-81197930D01*
X128126032Y-81206597D01*
X128274495Y-81214324D01*
X128491183Y-81221072D01*
X128764033Y-81226804D01*
X129080977Y-81231481D01*
X129429949Y-81235066D01*
X129798883Y-81237522D01*
X130175713Y-81238809D01*
X130548373Y-81238890D01*
X130904796Y-81237727D01*
X131232917Y-81235283D01*
X131520668Y-81231519D01*
X131755985Y-81226398D01*
X131926800Y-81219881D01*
X132021048Y-81211932D01*
X132028727Y-81210401D01*
X132074488Y-81199053D01*
X132112989Y-81184402D01*
X132144856Y-81158958D01*
X132170716Y-81115231D01*
X132191195Y-81045732D01*
X132206921Y-80942971D01*
X132218520Y-80799459D01*
X132226619Y-80607705D01*
X132231845Y-80360221D01*
X132234823Y-80049516D01*
X132236182Y-79668102D01*
X132236548Y-79208489D01*
X132236545Y-78726909D01*
X132236333Y-78195180D01*
X132235539Y-77748273D01*
X132233926Y-77378649D01*
X132231257Y-77078768D01*
X132227297Y-76841089D01*
X132221806Y-76658073D01*
X132214550Y-76522179D01*
X132205292Y-76425868D01*
X132193794Y-76361598D01*
X132179819Y-76321831D01*
X132163132Y-76299025D01*
X132160226Y-76296473D01*
X132124141Y-76280008D01*
X132053826Y-76266188D01*
X131941570Y-76254710D01*
X131779664Y-76245270D01*
X131560396Y-76237565D01*
X131276057Y-76231292D01*
X130918936Y-76226148D01*
X130481323Y-76221829D01*
X130209044Y-76219735D01*
X129798157Y-76217442D01*
X129413325Y-76216511D01*
X129064976Y-76216877D01*
G37*
X129064976Y-76216877D02*
X128763538Y-76218475D01*
X128519441Y-76221242D01*
X128343113Y-76225110D01*
X128244983Y-76230017D01*
X128230857Y-76232013D01*
X128132617Y-76280746D01*
X128056996Y-76380035D01*
X127998206Y-76542486D01*
X127950460Y-76780707D01*
X127936952Y-76872228D01*
X127911434Y-77072526D01*
X127902467Y-77200565D01*
X127910410Y-77275022D01*
X127935623Y-77314572D01*
X127945605Y-77321794D01*
X128008054Y-77333069D01*
X128149714Y-77343229D01*
X128357436Y-77351828D01*
X128618067Y-77358424D01*
X128918459Y-77362572D01*
X129190854Y-77363838D01*
X129589143Y-77365491D01*
X129901785Y-77370121D01*
X130135458Y-77378032D01*
X130296839Y-77389526D01*
X130392606Y-77404908D01*
X130426218Y-77419964D01*
X130456172Y-77498093D01*
X130475288Y-77652793D01*
X130481636Y-77857066D01*
X130478133Y-78052562D01*
X130457716Y-78185746D01*
X130405525Y-78268567D01*
X130306701Y-78312977D01*
X130146382Y-78330924D01*
X129909709Y-78334358D01*
X129888086Y-78334364D01*
X129694074Y-78337364D01*
X129530250Y-78345379D01*
X129422365Y-78356928D01*
X129400141Y-78362396D01*
X129361417Y-78396943D01*
X129338719Y-78475937D01*
X129328583Y-78617539D01*
X129327091Y-78745705D01*
X129334486Y-78946058D01*
X129354975Y-79090241D01*
X129382509Y-79156400D01*
X129461745Y-79185710D01*
X129626349Y-79204382D01*
X129869862Y-79211730D01*
X129904363Y-79211818D01*
X130156985Y-79217750D01*
X130331478Y-79235089D01*
X130421386Y-79263148D01*
X130426218Y-79267236D01*
X130456896Y-79344194D01*
X130475803Y-79483206D01*
X130483137Y-79656375D01*
X130479098Y-79835801D01*
X130463884Y-79993585D01*
X130437695Y-80101829D01*
X130420074Y-80129056D01*
X130350251Y-80147316D01*
X130188461Y-80162714D01*
X129935054Y-80175232D01*
X129590381Y-80184854D01*
X129154795Y-80191564D01*
X129069255Y-80192438D01*
X127780000Y-80204727D01*
X127789942Y-80514100D01*
X127819837Y-80804205D01*
X127887285Y-81020793D01*
X127990277Y-81158735D01*
X128057863Y-81197930D01*
X128126032Y-81206597D01*
X128274495Y-81214324D01*
X128491183Y-81221072D01*
X128764033Y-81226804D01*
X129080977Y-81231481D01*
X129429949Y-81235066D01*
X129798883Y-81237522D01*
X130175713Y-81238809D01*
X130548373Y-81238890D01*
X130904796Y-81237727D01*
X131232917Y-81235283D01*
X131520668Y-81231519D01*
X131755985Y-81226398D01*
X131926800Y-81219881D01*
X132021048Y-81211932D01*
X132028727Y-81210401D01*
X132074488Y-81199053D01*
X132112989Y-81184402D01*
X132144856Y-81158958D01*
X132170716Y-81115231D01*
X132191195Y-81045732D01*
X132206921Y-80942971D01*
X132218520Y-80799459D01*
X132226619Y-80607705D01*
X132231845Y-80360221D01*
X132234823Y-80049516D01*
X132236182Y-79668102D01*
X132236548Y-79208489D01*
X132236545Y-78726909D01*
X132236333Y-78195180D01*
X132235539Y-77748273D01*
X132233926Y-77378649D01*
X132231257Y-77078768D01*
X132227297Y-76841089D01*
X132221806Y-76658073D01*
X132214550Y-76522179D01*
X132205292Y-76425868D01*
X132193794Y-76361598D01*
X132179819Y-76321831D01*
X132163132Y-76299025D01*
X132160226Y-76296473D01*
X132124141Y-76280008D01*
X132053826Y-76266188D01*
X131941570Y-76254710D01*
X131779664Y-76245270D01*
X131560396Y-76237565D01*
X131276057Y-76231292D01*
X130918936Y-76226148D01*
X130481323Y-76221829D01*
X130209044Y-76219735D01*
X129798157Y-76217442D01*
X129413325Y-76216511D01*
X129064976Y-76216877D01*
G36*
X141185226Y-76348287D02*
G01*
X140869281Y-76352048D01*
X140619304Y-76362432D01*
X140426507Y-76382378D01*
X140282100Y-76414826D01*
X140177293Y-76462715D01*
X140103297Y-76528984D01*
X140051321Y-76616573D01*
X140012578Y-76728421D01*
X139978276Y-76867468D01*
X139939627Y-77036653D01*
X139934967Y-77056252D01*
X139880544Y-77288305D01*
X139847313Y-77448958D01*
X139833696Y-77556322D01*
X139838116Y-77628510D01*
X139858993Y-77683635D01*
X139877639Y-77714343D01*
X139911583Y-77760302D01*
X139953529Y-77791587D01*
X140020260Y-77811018D01*
X140128556Y-77821412D01*
X140295199Y-77825588D01*
X140536970Y-77826363D01*
X140544682Y-77826364D01*
X140807731Y-77828890D01*
X140991825Y-77837363D01*
X141110258Y-77853123D01*
X141176327Y-77877511D01*
X141192552Y-77891701D01*
X141208846Y-77941687D01*
X141221774Y-78052032D01*
X141231521Y-78228523D01*
X141238276Y-78476949D01*
X141242225Y-78803098D01*
X141243554Y-79212759D01*
X141243267Y-79462823D01*
X141242875Y-79898591D01*
X141244502Y-80251482D01*
X141248994Y-80530976D01*
X141257196Y-80746552D01*
X141269954Y-80907691D01*
X141288115Y-81023871D01*
X141312523Y-81104572D01*
X141344024Y-81159274D01*
X141383465Y-81197457D01*
X141399004Y-81208475D01*
X141461535Y-81220778D01*
X141598199Y-81231195D01*
X141790772Y-81238826D01*
X142021028Y-81242772D01*
X142100751Y-81243111D01*
X142363199Y-81242121D01*
X142549064Y-81237277D01*
X142674106Y-81226764D01*
X142754083Y-81208767D01*
X142804755Y-81181473D01*
X142828115Y-81159364D01*
X142849006Y-81128112D01*
X142865757Y-81079069D01*
X142878814Y-81002696D01*
X142888623Y-80889456D01*
X142895629Y-80729810D01*
X142900277Y-80514222D01*
X142903014Y-80233152D01*
X142904285Y-79877064D01*
X142904545Y-79523208D01*
X142905000Y-79096908D01*
X142906641Y-78753630D01*
X142909887Y-78484036D01*
X142915155Y-78278787D01*
X142922861Y-78128546D01*
X142933424Y-78023974D01*
X142947259Y-77955733D01*
X142964785Y-77914484D01*
X142977117Y-77898935D01*
X143026264Y-77867533D01*
X143109937Y-77846292D01*
X143243636Y-77833508D01*
X143442861Y-77827479D01*
X143637517Y-77826364D01*
X143906195Y-77823863D01*
X144096034Y-77813322D01*
X144220489Y-77790183D01*
X144293019Y-77749886D01*
X144327081Y-77687874D01*
X144336134Y-77599587D01*
X144336182Y-77589706D01*
X144325383Y-77484426D01*
X144296877Y-77319323D01*
X144256500Y-77120617D01*
X144210088Y-76914531D01*
X144163477Y-76727288D01*
X144122502Y-76585109D01*
X144098943Y-76523748D01*
X144066523Y-76480543D01*
X144012833Y-76444940D01*
X143929596Y-76416230D01*
X143808538Y-76393709D01*
X143641381Y-76376670D01*
X143419849Y-76364405D01*
X143135668Y-76356210D01*
X142780559Y-76351377D01*
X142346248Y-76349199D01*
X142050182Y-76348875D01*
X141575930Y-76348209D01*
X141185226Y-76348287D01*
G37*
X141185226Y-76348287D02*
X140869281Y-76352048D01*
X140619304Y-76362432D01*
X140426507Y-76382378D01*
X140282100Y-76414826D01*
X140177293Y-76462715D01*
X140103297Y-76528984D01*
X140051321Y-76616573D01*
X140012578Y-76728421D01*
X139978276Y-76867468D01*
X139939627Y-77036653D01*
X139934967Y-77056252D01*
X139880544Y-77288305D01*
X139847313Y-77448958D01*
X139833696Y-77556322D01*
X139838116Y-77628510D01*
X139858993Y-77683635D01*
X139877639Y-77714343D01*
X139911583Y-77760302D01*
X139953529Y-77791587D01*
X140020260Y-77811018D01*
X140128556Y-77821412D01*
X140295199Y-77825588D01*
X140536970Y-77826363D01*
X140544682Y-77826364D01*
X140807731Y-77828890D01*
X140991825Y-77837363D01*
X141110258Y-77853123D01*
X141176327Y-77877511D01*
X141192552Y-77891701D01*
X141208846Y-77941687D01*
X141221774Y-78052032D01*
X141231521Y-78228523D01*
X141238276Y-78476949D01*
X141242225Y-78803098D01*
X141243554Y-79212759D01*
X141243267Y-79462823D01*
X141242875Y-79898591D01*
X141244502Y-80251482D01*
X141248994Y-80530976D01*
X141257196Y-80746552D01*
X141269954Y-80907691D01*
X141288115Y-81023871D01*
X141312523Y-81104572D01*
X141344024Y-81159274D01*
X141383465Y-81197457D01*
X141399004Y-81208475D01*
X141461535Y-81220778D01*
X141598199Y-81231195D01*
X141790772Y-81238826D01*
X142021028Y-81242772D01*
X142100751Y-81243111D01*
X142363199Y-81242121D01*
X142549064Y-81237277D01*
X142674106Y-81226764D01*
X142754083Y-81208767D01*
X142804755Y-81181473D01*
X142828115Y-81159364D01*
X142849006Y-81128112D01*
X142865757Y-81079069D01*
X142878814Y-81002696D01*
X142888623Y-80889456D01*
X142895629Y-80729810D01*
X142900277Y-80514222D01*
X142903014Y-80233152D01*
X142904285Y-79877064D01*
X142904545Y-79523208D01*
X142905000Y-79096908D01*
X142906641Y-78753630D01*
X142909887Y-78484036D01*
X142915155Y-78278787D01*
X142922861Y-78128546D01*
X142933424Y-78023974D01*
X142947259Y-77955733D01*
X142964785Y-77914484D01*
X142977117Y-77898935D01*
X143026264Y-77867533D01*
X143109937Y-77846292D01*
X143243636Y-77833508D01*
X143442861Y-77827479D01*
X143637517Y-77826364D01*
X143906195Y-77823863D01*
X144096034Y-77813322D01*
X144220489Y-77790183D01*
X144293019Y-77749886D01*
X144327081Y-77687874D01*
X144336134Y-77599587D01*
X144336182Y-77589706D01*
X144325383Y-77484426D01*
X144296877Y-77319323D01*
X144256500Y-77120617D01*
X144210088Y-76914531D01*
X144163477Y-76727288D01*
X144122502Y-76585109D01*
X144098943Y-76523748D01*
X144066523Y-76480543D01*
X144012833Y-76444940D01*
X143929596Y-76416230D01*
X143808538Y-76393709D01*
X143641381Y-76376670D01*
X143419849Y-76364405D01*
X143135668Y-76356210D01*
X142780559Y-76351377D01*
X142346248Y-76349199D01*
X142050182Y-76348875D01*
X141575930Y-76348209D01*
X141185226Y-76348287D01*
G36*
X148718480Y-102745950D02*
G01*
X148358877Y-102852487D01*
X147881149Y-103071002D01*
X147455679Y-103365032D01*
X147268904Y-103533185D01*
X147024463Y-103771433D01*
X148429782Y-105178151D01*
X148781446Y-105531147D01*
X149071236Y-105824436D01*
X149303823Y-106063093D01*
X149483877Y-106252193D01*
X149616069Y-106396812D01*
X149705070Y-106502024D01*
X149755549Y-106572905D01*
X149772179Y-106614530D01*
X149765448Y-106629475D01*
X149682633Y-106654106D01*
X149542529Y-106670611D01*
X149426943Y-106674792D01*
X149124510Y-106635858D01*
X148872486Y-106519607D01*
X148675370Y-106329447D01*
X148537661Y-106068790D01*
X148509054Y-105978976D01*
X148482203Y-105904069D01*
X148437929Y-105822651D01*
X148368212Y-105725251D01*
X148265034Y-105602396D01*
X148120376Y-105444616D01*
X147926218Y-105242436D01*
X147674542Y-104986387D01*
X147634353Y-104945795D01*
X147409589Y-104720025D01*
X147206231Y-104517859D01*
X147033389Y-104348182D01*
X146900174Y-104219882D01*
X146815695Y-104141843D01*
X146789350Y-104121572D01*
X146752725Y-104161959D01*
X146694334Y-104269331D01*
X146623067Y-104423009D01*
X146547810Y-104602314D01*
X146477451Y-104786565D01*
X146420877Y-104955082D01*
X146400996Y-105025204D01*
X146358041Y-105269216D01*
X146335181Y-105569484D01*
X146332455Y-105891584D01*
X146349900Y-106201095D01*
X146387554Y-106463592D01*
X146399364Y-106514833D01*
X146570286Y-107006509D01*
X146820222Y-107461518D01*
X147139958Y-107869647D01*
X147520281Y-108220686D01*
X147951979Y-108504424D01*
X148359852Y-108687746D01*
X148512660Y-108734442D01*
X148708884Y-108782731D01*
X148924450Y-108828109D01*
X149135286Y-108866068D01*
X149317318Y-108892101D01*
X149446473Y-108901701D01*
X149485619Y-108898499D01*
X149541008Y-108889908D01*
X149661351Y-108873314D01*
X149804395Y-108854427D01*
X150324486Y-108742022D01*
X150806232Y-108545122D01*
X151247992Y-108264540D01*
X151576417Y-107975443D01*
X151865462Y-107656011D01*
X152087955Y-107338908D01*
X152263924Y-106992872D01*
X152354668Y-106760708D01*
X152404502Y-106612142D01*
X152438623Y-106479259D01*
X152459937Y-106338381D01*
X152471350Y-106165830D01*
X152475768Y-105937929D01*
X152476157Y-105807897D01*
X150322669Y-105807897D01*
X150317225Y-105950424D01*
X150303140Y-106046263D01*
X150288513Y-106071847D01*
X150246054Y-106040607D01*
X150149610Y-105953994D01*
X150010502Y-105822661D01*
X149840051Y-105657263D01*
X149684857Y-105503713D01*
X149499011Y-105316360D01*
X149338563Y-105150880D01*
X149214196Y-105018599D01*
X149136596Y-104930841D01*
X149115356Y-104900057D01*
X149157650Y-104881721D01*
X149268034Y-104868892D01*
X149408093Y-104864534D01*
X149705503Y-104904339D01*
X149952385Y-105019019D01*
X150141856Y-105201472D01*
X150267028Y-105444597D01*
X150321018Y-105741291D01*
X150322669Y-105807897D01*
X152476157Y-105807897D01*
X152476271Y-105770018D01*
X152474591Y-105498897D01*
X152467611Y-105296938D01*
X152452425Y-105140462D01*
X152426128Y-105005793D01*
X152385813Y-104869253D01*
X152354668Y-104779329D01*
X152196859Y-104401288D01*
X152004430Y-104070759D01*
X151757352Y-103756480D01*
X151576417Y-103564593D01*
X151173358Y-103222331D01*
X150728484Y-102959629D01*
X150251177Y-102778563D01*
X149750820Y-102681211D01*
X149236793Y-102669647D01*
X148718480Y-102745950D01*
G37*
X148718480Y-102745950D02*
X148358877Y-102852487D01*
X147881149Y-103071002D01*
X147455679Y-103365032D01*
X147268904Y-103533185D01*
X147024463Y-103771433D01*
X148429782Y-105178151D01*
X148781446Y-105531147D01*
X149071236Y-105824436D01*
X149303823Y-106063093D01*
X149483877Y-106252193D01*
X149616069Y-106396812D01*
X149705070Y-106502024D01*
X149755549Y-106572905D01*
X149772179Y-106614530D01*
X149765448Y-106629475D01*
X149682633Y-106654106D01*
X149542529Y-106670611D01*
X149426943Y-106674792D01*
X149124510Y-106635858D01*
X148872486Y-106519607D01*
X148675370Y-106329447D01*
X148537661Y-106068790D01*
X148509054Y-105978976D01*
X148482203Y-105904069D01*
X148437929Y-105822651D01*
X148368212Y-105725251D01*
X148265034Y-105602396D01*
X148120376Y-105444616D01*
X147926218Y-105242436D01*
X147674542Y-104986387D01*
X147634353Y-104945795D01*
X147409589Y-104720025D01*
X147206231Y-104517859D01*
X147033389Y-104348182D01*
X146900174Y-104219882D01*
X146815695Y-104141843D01*
X146789350Y-104121572D01*
X146752725Y-104161959D01*
X146694334Y-104269331D01*
X146623067Y-104423009D01*
X146547810Y-104602314D01*
X146477451Y-104786565D01*
X146420877Y-104955082D01*
X146400996Y-105025204D01*
X146358041Y-105269216D01*
X146335181Y-105569484D01*
X146332455Y-105891584D01*
X146349900Y-106201095D01*
X146387554Y-106463592D01*
X146399364Y-106514833D01*
X146570286Y-107006509D01*
X146820222Y-107461518D01*
X147139958Y-107869647D01*
X147520281Y-108220686D01*
X147951979Y-108504424D01*
X148359852Y-108687746D01*
X148512660Y-108734442D01*
X148708884Y-108782731D01*
X148924450Y-108828109D01*
X149135286Y-108866068D01*
X149317318Y-108892101D01*
X149446473Y-108901701D01*
X149485619Y-108898499D01*
X149541008Y-108889908D01*
X149661351Y-108873314D01*
X149804395Y-108854427D01*
X150324486Y-108742022D01*
X150806232Y-108545122D01*
X151247992Y-108264540D01*
X151576417Y-107975443D01*
X151865462Y-107656011D01*
X152087955Y-107338908D01*
X152263924Y-106992872D01*
X152354668Y-106760708D01*
X152404502Y-106612142D01*
X152438623Y-106479259D01*
X152459937Y-106338381D01*
X152471350Y-106165830D01*
X152475768Y-105937929D01*
X152476157Y-105807897D01*
X150322669Y-105807897D01*
X150317225Y-105950424D01*
X150303140Y-106046263D01*
X150288513Y-106071847D01*
X150246054Y-106040607D01*
X150149610Y-105953994D01*
X150010502Y-105822661D01*
X149840051Y-105657263D01*
X149684857Y-105503713D01*
X149499011Y-105316360D01*
X149338563Y-105150880D01*
X149214196Y-105018599D01*
X149136596Y-104930841D01*
X149115356Y-104900057D01*
X149157650Y-104881721D01*
X149268034Y-104868892D01*
X149408093Y-104864534D01*
X149705503Y-104904339D01*
X149952385Y-105019019D01*
X150141856Y-105201472D01*
X150267028Y-105444597D01*
X150321018Y-105741291D01*
X150322669Y-105807897D01*
X152476157Y-105807897D01*
X152476271Y-105770018D01*
X152474591Y-105498897D01*
X152467611Y-105296938D01*
X152452425Y-105140462D01*
X152426128Y-105005793D01*
X152385813Y-104869253D01*
X152354668Y-104779329D01*
X152196859Y-104401288D01*
X152004430Y-104070759D01*
X151757352Y-103756480D01*
X151576417Y-103564593D01*
X151173358Y-103222331D01*
X150728484Y-102959629D01*
X150251177Y-102778563D01*
X149750820Y-102681211D01*
X149236793Y-102669647D01*
X148718480Y-102745950D01*
G36*
X142144450Y-102736052D02*
G01*
X141658505Y-102880816D01*
X141204312Y-103098132D01*
X140800083Y-103382392D01*
X140757038Y-103419639D01*
X140548080Y-103604488D01*
X141309719Y-104369798D01*
X142071357Y-105135107D01*
X142256506Y-105012581D01*
X142400523Y-104935091D01*
X142560818Y-104892685D01*
X142748616Y-104875460D01*
X143031801Y-104892371D01*
X143263205Y-104979055D01*
X143461128Y-105144477D01*
X143564430Y-105275235D01*
X143646444Y-105406558D01*
X143689147Y-105527796D01*
X143704497Y-105680844D01*
X143705667Y-105770018D01*
X143698634Y-105950647D01*
X143669563Y-106080848D01*
X143606494Y-106202518D01*
X143564430Y-106264802D01*
X143361220Y-106485570D01*
X143120585Y-106621586D01*
X142840375Y-106674008D01*
X142803234Y-106674739D01*
X142501810Y-106635276D01*
X142249071Y-106518481D01*
X142051701Y-106329684D01*
X141916384Y-106074212D01*
X141876905Y-105936173D01*
X141856157Y-105864786D01*
X141821049Y-105790843D01*
X141763458Y-105704684D01*
X141675260Y-105596648D01*
X141548332Y-105457075D01*
X141374551Y-105276305D01*
X141145794Y-105044675D01*
X141027557Y-104926085D01*
X140803409Y-104704098D01*
X140599524Y-104506811D01*
X140425357Y-104342999D01*
X140290362Y-104221435D01*
X140203994Y-104150894D01*
X140176973Y-104136693D01*
X140120635Y-104192919D01*
X140047464Y-104319009D01*
X139965978Y-104495486D01*
X139884698Y-104702869D01*
X139812145Y-104921683D01*
X139775001Y-105055649D01*
X139697890Y-105544514D01*
X139705562Y-106044466D01*
X139793542Y-106540944D01*
X139957355Y-107019388D01*
X140192524Y-107465238D01*
X140494575Y-107863932D01*
X140701686Y-108070558D01*
X141117867Y-108383799D01*
X141579605Y-108624133D01*
X142072555Y-108787029D01*
X142582369Y-108867956D01*
X143094701Y-108862382D01*
X143178458Y-108852838D01*
X143685172Y-108741989D01*
X144161414Y-108548737D01*
X144598213Y-108281025D01*
X144986592Y-107946799D01*
X145317578Y-107554003D01*
X145582198Y-107110581D01*
X145771476Y-106624477D01*
X145796239Y-106535404D01*
X145848067Y-106246692D01*
X145872385Y-105906485D01*
X145869194Y-105551990D01*
X145838494Y-105220415D01*
X145796239Y-105004633D01*
X145619062Y-104504547D01*
X145365273Y-104049764D01*
X145042845Y-103647238D01*
X144659750Y-103303920D01*
X144223959Y-103026766D01*
X143743444Y-102822728D01*
X143226177Y-102698760D01*
X143138746Y-102686595D01*
X142643935Y-102669443D01*
X142144450Y-102736052D01*
G37*
X142144450Y-102736052D02*
X141658505Y-102880816D01*
X141204312Y-103098132D01*
X140800083Y-103382392D01*
X140757038Y-103419639D01*
X140548080Y-103604488D01*
X141309719Y-104369798D01*
X142071357Y-105135107D01*
X142256506Y-105012581D01*
X142400523Y-104935091D01*
X142560818Y-104892685D01*
X142748616Y-104875460D01*
X143031801Y-104892371D01*
X143263205Y-104979055D01*
X143461128Y-105144477D01*
X143564430Y-105275235D01*
X143646444Y-105406558D01*
X143689147Y-105527796D01*
X143704497Y-105680844D01*
X143705667Y-105770018D01*
X143698634Y-105950647D01*
X143669563Y-106080848D01*
X143606494Y-106202518D01*
X143564430Y-106264802D01*
X143361220Y-106485570D01*
X143120585Y-106621586D01*
X142840375Y-106674008D01*
X142803234Y-106674739D01*
X142501810Y-106635276D01*
X142249071Y-106518481D01*
X142051701Y-106329684D01*
X141916384Y-106074212D01*
X141876905Y-105936173D01*
X141856157Y-105864786D01*
X141821049Y-105790843D01*
X141763458Y-105704684D01*
X141675260Y-105596648D01*
X141548332Y-105457075D01*
X141374551Y-105276305D01*
X141145794Y-105044675D01*
X141027557Y-104926085D01*
X140803409Y-104704098D01*
X140599524Y-104506811D01*
X140425357Y-104342999D01*
X140290362Y-104221435D01*
X140203994Y-104150894D01*
X140176973Y-104136693D01*
X140120635Y-104192919D01*
X140047464Y-104319009D01*
X139965978Y-104495486D01*
X139884698Y-104702869D01*
X139812145Y-104921683D01*
X139775001Y-105055649D01*
X139697890Y-105544514D01*
X139705562Y-106044466D01*
X139793542Y-106540944D01*
X139957355Y-107019388D01*
X140192524Y-107465238D01*
X140494575Y-107863932D01*
X140701686Y-108070558D01*
X141117867Y-108383799D01*
X141579605Y-108624133D01*
X142072555Y-108787029D01*
X142582369Y-108867956D01*
X143094701Y-108862382D01*
X143178458Y-108852838D01*
X143685172Y-108741989D01*
X144161414Y-108548737D01*
X144598213Y-108281025D01*
X144986592Y-107946799D01*
X145317578Y-107554003D01*
X145582198Y-107110581D01*
X145771476Y-106624477D01*
X145796239Y-106535404D01*
X145848067Y-106246692D01*
X145872385Y-105906485D01*
X145869194Y-105551990D01*
X145838494Y-105220415D01*
X145796239Y-105004633D01*
X145619062Y-104504547D01*
X145365273Y-104049764D01*
X145042845Y-103647238D01*
X144659750Y-103303920D01*
X144223959Y-103026766D01*
X143743444Y-102822728D01*
X143226177Y-102698760D01*
X143138746Y-102686595D01*
X142643935Y-102669443D01*
X142144450Y-102736052D01*
G36*
X127834531Y-102705387D02*
G01*
X127349582Y-102826585D01*
X126884130Y-103028890D01*
X126448011Y-103312767D01*
X126280896Y-103452011D01*
X126147651Y-103577024D01*
X126046644Y-103683352D01*
X125994400Y-103753169D01*
X125990676Y-103765124D01*
X126022501Y-103808506D01*
X126113431Y-103910214D01*
X126256650Y-104063158D01*
X126445342Y-104260247D01*
X126672691Y-104494392D01*
X126931879Y-104758504D01*
X127216092Y-105045491D01*
X127372120Y-105202023D01*
X127720482Y-105551737D01*
X128006991Y-105841806D01*
X128236356Y-106077351D01*
X128413283Y-106263496D01*
X128542479Y-106405361D01*
X128628652Y-106508070D01*
X128676508Y-106576745D01*
X128690755Y-106616506D01*
X128683912Y-106629477D01*
X128601878Y-106653606D01*
X128461319Y-106670090D01*
X128333131Y-106674792D01*
X128144569Y-106665383D01*
X127999716Y-106627378D01*
X127850737Y-106547826D01*
X127840645Y-106541464D01*
X127670856Y-106396473D01*
X127533881Y-106209873D01*
X127448743Y-106012040D01*
X127430164Y-105885982D01*
X127409657Y-105828121D01*
X127344837Y-105734143D01*
X127230754Y-105598408D01*
X127062460Y-105415279D01*
X126835007Y-105179116D01*
X126607211Y-104948300D01*
X126380556Y-104722801D01*
X126174013Y-104521931D01*
X125996893Y-104354371D01*
X125858504Y-104228804D01*
X125768159Y-104153911D01*
X125736552Y-104136368D01*
X125673405Y-104194905D01*
X125593104Y-104324949D01*
X125504621Y-104508889D01*
X125416930Y-104729113D01*
X125379543Y-104837103D01*
X125333295Y-104990467D01*
X125302359Y-105134768D01*
X125283998Y-105294836D01*
X125275475Y-105495503D01*
X125274057Y-105761598D01*
X125274203Y-105793236D01*
X125277616Y-106062532D01*
X125286734Y-106263833D01*
X125304750Y-106421983D01*
X125334860Y-106561823D01*
X125380259Y-106708196D01*
X125398622Y-106760708D01*
X125554057Y-107134632D01*
X125743863Y-107462691D01*
X125987688Y-107775597D01*
X126177988Y-107978882D01*
X126573116Y-108314009D01*
X127017343Y-108575187D01*
X127498500Y-108758255D01*
X128004416Y-108859057D01*
X128522922Y-108873434D01*
X128737142Y-108853275D01*
X129240413Y-108742115D01*
X129714298Y-108548518D01*
X130149611Y-108280693D01*
X130537169Y-107946849D01*
X130867785Y-107555195D01*
X131132277Y-107113940D01*
X131321458Y-106631294D01*
X131353469Y-106514833D01*
X131395465Y-106270393D01*
X131417665Y-105969831D01*
X131418731Y-105827009D01*
X129272232Y-105827009D01*
X129260102Y-105960093D01*
X129232732Y-106049928D01*
X129204873Y-106071847D01*
X129163115Y-106040620D01*
X129067298Y-105954039D01*
X128928697Y-105822753D01*
X128758587Y-105657410D01*
X128603321Y-105503713D01*
X128417476Y-105316360D01*
X128257027Y-105150880D01*
X128132661Y-105018599D01*
X128055061Y-104930841D01*
X128033821Y-104900057D01*
X128076024Y-104881375D01*
X128185779Y-104868507D01*
X128314281Y-104864534D01*
X128621547Y-104903454D01*
X128876797Y-105018354D01*
X129076223Y-105206442D01*
X129216017Y-105464928D01*
X129242615Y-105544972D01*
X129267082Y-105679145D01*
X129272232Y-105827009D01*
X131418731Y-105827009D01*
X131420069Y-105647760D01*
X131402676Y-105338792D01*
X131365487Y-105077541D01*
X131353469Y-105025204D01*
X131212445Y-104613061D01*
X131005566Y-104202638D01*
X130752172Y-103829228D01*
X130602939Y-103655542D01*
X130207531Y-103299815D01*
X129772612Y-103022418D01*
X129308019Y-102823814D01*
X128823584Y-102704465D01*
X128329143Y-102664835D01*
X127834531Y-102705387D01*
G37*
X127834531Y-102705387D02*
X127349582Y-102826585D01*
X126884130Y-103028890D01*
X126448011Y-103312767D01*
X126280896Y-103452011D01*
X126147651Y-103577024D01*
X126046644Y-103683352D01*
X125994400Y-103753169D01*
X125990676Y-103765124D01*
X126022501Y-103808506D01*
X126113431Y-103910214D01*
X126256650Y-104063158D01*
X126445342Y-104260247D01*
X126672691Y-104494392D01*
X126931879Y-104758504D01*
X127216092Y-105045491D01*
X127372120Y-105202023D01*
X127720482Y-105551737D01*
X128006991Y-105841806D01*
X128236356Y-106077351D01*
X128413283Y-106263496D01*
X128542479Y-106405361D01*
X128628652Y-106508070D01*
X128676508Y-106576745D01*
X128690755Y-106616506D01*
X128683912Y-106629477D01*
X128601878Y-106653606D01*
X128461319Y-106670090D01*
X128333131Y-106674792D01*
X128144569Y-106665383D01*
X127999716Y-106627378D01*
X127850737Y-106547826D01*
X127840645Y-106541464D01*
X127670856Y-106396473D01*
X127533881Y-106209873D01*
X127448743Y-106012040D01*
X127430164Y-105885982D01*
X127409657Y-105828121D01*
X127344837Y-105734143D01*
X127230754Y-105598408D01*
X127062460Y-105415279D01*
X126835007Y-105179116D01*
X126607211Y-104948300D01*
X126380556Y-104722801D01*
X126174013Y-104521931D01*
X125996893Y-104354371D01*
X125858504Y-104228804D01*
X125768159Y-104153911D01*
X125736552Y-104136368D01*
X125673405Y-104194905D01*
X125593104Y-104324949D01*
X125504621Y-104508889D01*
X125416930Y-104729113D01*
X125379543Y-104837103D01*
X125333295Y-104990467D01*
X125302359Y-105134768D01*
X125283998Y-105294836D01*
X125275475Y-105495503D01*
X125274057Y-105761598D01*
X125274203Y-105793236D01*
X125277616Y-106062532D01*
X125286734Y-106263833D01*
X125304750Y-106421983D01*
X125334860Y-106561823D01*
X125380259Y-106708196D01*
X125398622Y-106760708D01*
X125554057Y-107134632D01*
X125743863Y-107462691D01*
X125987688Y-107775597D01*
X126177988Y-107978882D01*
X126573116Y-108314009D01*
X127017343Y-108575187D01*
X127498500Y-108758255D01*
X128004416Y-108859057D01*
X128522922Y-108873434D01*
X128737142Y-108853275D01*
X129240413Y-108742115D01*
X129714298Y-108548518D01*
X130149611Y-108280693D01*
X130537169Y-107946849D01*
X130867785Y-107555195D01*
X131132277Y-107113940D01*
X131321458Y-106631294D01*
X131353469Y-106514833D01*
X131395465Y-106270393D01*
X131417665Y-105969831D01*
X131418731Y-105827009D01*
X129272232Y-105827009D01*
X129260102Y-105960093D01*
X129232732Y-106049928D01*
X129204873Y-106071847D01*
X129163115Y-106040620D01*
X129067298Y-105954039D01*
X128928697Y-105822753D01*
X128758587Y-105657410D01*
X128603321Y-105503713D01*
X128417476Y-105316360D01*
X128257027Y-105150880D01*
X128132661Y-105018599D01*
X128055061Y-104930841D01*
X128033821Y-104900057D01*
X128076024Y-104881375D01*
X128185779Y-104868507D01*
X128314281Y-104864534D01*
X128621547Y-104903454D01*
X128876797Y-105018354D01*
X129076223Y-105206442D01*
X129216017Y-105464928D01*
X129242615Y-105544972D01*
X129267082Y-105679145D01*
X129272232Y-105827009D01*
X131418731Y-105827009D01*
X131420069Y-105647760D01*
X131402676Y-105338792D01*
X131365487Y-105077541D01*
X131353469Y-105025204D01*
X131212445Y-104613061D01*
X131005566Y-104202638D01*
X130752172Y-103829228D01*
X130602939Y-103655542D01*
X130207531Y-103299815D01*
X129772612Y-103022418D01*
X129308019Y-102823814D01*
X128823584Y-102704465D01*
X128329143Y-102664835D01*
X127834531Y-102705387D01*
G36*
X158403579Y-100314126D02*
G01*
X157730793Y-100314803D01*
X157090186Y-100315896D01*
X156487526Y-100317375D01*
X155928584Y-100319210D01*
X155419130Y-100321372D01*
X154964935Y-100323831D01*
X154571767Y-100326559D01*
X154245398Y-100329525D01*
X153991597Y-100332700D01*
X153816135Y-100336055D01*
X153724780Y-100339561D01*
X153712431Y-100341427D01*
X153744157Y-100378385D01*
X153835726Y-100475854D01*
X153981723Y-100628267D01*
X154176736Y-100830057D01*
X154415351Y-101075655D01*
X154692154Y-101359494D01*
X155001732Y-101676007D01*
X155338671Y-102019625D01*
X155697556Y-102384781D01*
X155836837Y-102526279D01*
X156205078Y-102901222D01*
X156555011Y-103259454D01*
X156880987Y-103595066D01*
X157177356Y-103902152D01*
X157438471Y-104174805D01*
X157658681Y-104407116D01*
X157832339Y-104593179D01*
X157953794Y-104727087D01*
X158017399Y-104802931D01*
X158024784Y-104814318D01*
X158056173Y-104967760D01*
X158011697Y-105107579D01*
X157908248Y-105215621D01*
X157762721Y-105273735D01*
X157603636Y-105266864D01*
X157549390Y-105228244D01*
X157434202Y-105125978D01*
X157261456Y-104963400D01*
X157034538Y-104743848D01*
X156756833Y-104470657D01*
X156431727Y-104147164D01*
X156062605Y-103776705D01*
X155652852Y-103362617D01*
X155205853Y-102908235D01*
X155078010Y-102777845D01*
X152667641Y-100317754D01*
X151131414Y-100315824D01*
X150762778Y-100316145D01*
X150424293Y-100317945D01*
X150127019Y-100321048D01*
X149882018Y-100325277D01*
X149700351Y-100330456D01*
X149593080Y-100336409D01*
X149568337Y-100340743D01*
X149595473Y-100377525D01*
X149679419Y-100478866D01*
X149815652Y-100639591D01*
X149999648Y-100854522D01*
X150226883Y-101118485D01*
X150492834Y-101426304D01*
X150792976Y-101772802D01*
X151122785Y-102152804D01*
X151477739Y-102561133D01*
X151853313Y-102992613D01*
X152244983Y-103442070D01*
X152648226Y-103904326D01*
X153058518Y-104374206D01*
X153471335Y-104846533D01*
X153882154Y-105316133D01*
X154286450Y-105777828D01*
X154679700Y-106226443D01*
X155057381Y-106656802D01*
X155414967Y-107063729D01*
X155747936Y-107442049D01*
X156051764Y-107786584D01*
X156321927Y-108092160D01*
X156553901Y-108353599D01*
X156743163Y-108565727D01*
X156885188Y-108723368D01*
X156975453Y-108821344D01*
X157009323Y-108854486D01*
X157042310Y-108820572D01*
X157132779Y-108721078D01*
X157276977Y-108560248D01*
X157471152Y-108342324D01*
X157711551Y-108071552D01*
X157994423Y-107752174D01*
X158316014Y-107388434D01*
X158672573Y-106984575D01*
X159060346Y-106544840D01*
X159475583Y-106073473D01*
X159914530Y-105574719D01*
X160373434Y-105052819D01*
X160747349Y-104627244D01*
X161219554Y-104089419D01*
X161674622Y-103570727D01*
X162108803Y-103075465D01*
X162518345Y-102607926D01*
X162899499Y-102172405D01*
X163248512Y-101773198D01*
X163561634Y-101414600D01*
X163835114Y-101100905D01*
X164065202Y-100836408D01*
X164248147Y-100625405D01*
X164380197Y-100472190D01*
X164457602Y-100381059D01*
X164477635Y-100355824D01*
X164434215Y-100349759D01*
X164302205Y-100344049D01*
X164085888Y-100338729D01*
X163789544Y-100333832D01*
X163417454Y-100329392D01*
X162973899Y-100325442D01*
X162463159Y-100322014D01*
X161889516Y-100319144D01*
X161257251Y-100316863D01*
X160570644Y-100315206D01*
X159833976Y-100314206D01*
X159102772Y-100313894D01*
X158403579Y-100314126D01*
G37*
X158403579Y-100314126D02*
X157730793Y-100314803D01*
X157090186Y-100315896D01*
X156487526Y-100317375D01*
X155928584Y-100319210D01*
X155419130Y-100321372D01*
X154964935Y-100323831D01*
X154571767Y-100326559D01*
X154245398Y-100329525D01*
X153991597Y-100332700D01*
X153816135Y-100336055D01*
X153724780Y-100339561D01*
X153712431Y-100341427D01*
X153744157Y-100378385D01*
X153835726Y-100475854D01*
X153981723Y-100628267D01*
X154176736Y-100830057D01*
X154415351Y-101075655D01*
X154692154Y-101359494D01*
X155001732Y-101676007D01*
X155338671Y-102019625D01*
X155697556Y-102384781D01*
X155836837Y-102526279D01*
X156205078Y-102901222D01*
X156555011Y-103259454D01*
X156880987Y-103595066D01*
X157177356Y-103902152D01*
X157438471Y-104174805D01*
X157658681Y-104407116D01*
X157832339Y-104593179D01*
X157953794Y-104727087D01*
X158017399Y-104802931D01*
X158024784Y-104814318D01*
X158056173Y-104967760D01*
X158011697Y-105107579D01*
X157908248Y-105215621D01*
X157762721Y-105273735D01*
X157603636Y-105266864D01*
X157549390Y-105228244D01*
X157434202Y-105125978D01*
X157261456Y-104963400D01*
X157034538Y-104743848D01*
X156756833Y-104470657D01*
X156431727Y-104147164D01*
X156062605Y-103776705D01*
X155652852Y-103362617D01*
X155205853Y-102908235D01*
X155078010Y-102777845D01*
X152667641Y-100317754D01*
X151131414Y-100315824D01*
X150762778Y-100316145D01*
X150424293Y-100317945D01*
X150127019Y-100321048D01*
X149882018Y-100325277D01*
X149700351Y-100330456D01*
X149593080Y-100336409D01*
X149568337Y-100340743D01*
X149595473Y-100377525D01*
X149679419Y-100478866D01*
X149815652Y-100639591D01*
X149999648Y-100854522D01*
X150226883Y-101118485D01*
X150492834Y-101426304D01*
X150792976Y-101772802D01*
X151122785Y-102152804D01*
X151477739Y-102561133D01*
X151853313Y-102992613D01*
X152244983Y-103442070D01*
X152648226Y-103904326D01*
X153058518Y-104374206D01*
X153471335Y-104846533D01*
X153882154Y-105316133D01*
X154286450Y-105777828D01*
X154679700Y-106226443D01*
X155057381Y-106656802D01*
X155414967Y-107063729D01*
X155747936Y-107442049D01*
X156051764Y-107786584D01*
X156321927Y-108092160D01*
X156553901Y-108353599D01*
X156743163Y-108565727D01*
X156885188Y-108723368D01*
X156975453Y-108821344D01*
X157009323Y-108854486D01*
X157042310Y-108820572D01*
X157132779Y-108721078D01*
X157276977Y-108560248D01*
X157471152Y-108342324D01*
X157711551Y-108071552D01*
X157994423Y-107752174D01*
X158316014Y-107388434D01*
X158672573Y-106984575D01*
X159060346Y-106544840D01*
X159475583Y-106073473D01*
X159914530Y-105574719D01*
X160373434Y-105052819D01*
X160747349Y-104627244D01*
X161219554Y-104089419D01*
X161674622Y-103570727D01*
X162108803Y-103075465D01*
X162518345Y-102607926D01*
X162899499Y-102172405D01*
X163248512Y-101773198D01*
X163561634Y-101414600D01*
X163835114Y-101100905D01*
X164065202Y-100836408D01*
X164248147Y-100625405D01*
X164380197Y-100472190D01*
X164457602Y-100381059D01*
X164477635Y-100355824D01*
X164434215Y-100349759D01*
X164302205Y-100344049D01*
X164085888Y-100338729D01*
X163789544Y-100333832D01*
X163417454Y-100329392D01*
X162973899Y-100325442D01*
X162463159Y-100322014D01*
X161889516Y-100319144D01*
X161257251Y-100316863D01*
X160570644Y-100315206D01*
X159833976Y-100314206D01*
X159102772Y-100313894D01*
X158403579Y-100314126D01*
G36*
X137031196Y-98999223D02*
G01*
X137019013Y-100708592D01*
X135465128Y-100731810D01*
X133911243Y-100755027D01*
X135858135Y-102772467D01*
X136450183Y-102773711D01*
X137042230Y-102774954D01*
X137042230Y-108811517D01*
X138992504Y-108811517D01*
X138992504Y-102988157D01*
X138388848Y-102378528D01*
X138160632Y-102144812D01*
X137993501Y-101965344D01*
X137880261Y-101831424D01*
X137813718Y-101734348D01*
X137786678Y-101665415D01*
X137785192Y-101648369D01*
X137824897Y-101502031D01*
X137933708Y-101408684D01*
X138067353Y-101381901D01*
X138125030Y-101392555D01*
X138199664Y-101429319D01*
X138300458Y-101499400D01*
X138436613Y-101610001D01*
X138617329Y-101768330D01*
X138851807Y-101981590D01*
X138956808Y-102078428D01*
X139710041Y-102774954D01*
X140713369Y-102774954D01*
X141009415Y-102773735D01*
X141273392Y-102770322D01*
X141491434Y-102765087D01*
X141649673Y-102758400D01*
X141734243Y-102750631D01*
X141744217Y-102747435D01*
X141721576Y-102707134D01*
X141644447Y-102605878D01*
X141519925Y-102452220D01*
X141355110Y-102254717D01*
X141157100Y-102021924D01*
X140932993Y-101762396D01*
X140809960Y-101621384D01*
X140475274Y-101238925D01*
X140128799Y-100842654D01*
X139776333Y-100439229D01*
X139423678Y-100035309D01*
X139076634Y-99637552D01*
X138741002Y-99252617D01*
X138422581Y-98887163D01*
X138127171Y-98547847D01*
X137860574Y-98241328D01*
X137628589Y-97974266D01*
X137437017Y-97753318D01*
X137291658Y-97585143D01*
X137198313Y-97476399D01*
X137170502Y-97443438D01*
X137043380Y-97289855D01*
X137031196Y-98999223D01*
G37*
X137031196Y-98999223D02*
X137019013Y-100708592D01*
X135465128Y-100731810D01*
X133911243Y-100755027D01*
X135858135Y-102772467D01*
X136450183Y-102773711D01*
X137042230Y-102774954D01*
X137042230Y-108811517D01*
X138992504Y-108811517D01*
X138992504Y-102988157D01*
X138388848Y-102378528D01*
X138160632Y-102144812D01*
X137993501Y-101965344D01*
X137880261Y-101831424D01*
X137813718Y-101734348D01*
X137786678Y-101665415D01*
X137785192Y-101648369D01*
X137824897Y-101502031D01*
X137933708Y-101408684D01*
X138067353Y-101381901D01*
X138125030Y-101392555D01*
X138199664Y-101429319D01*
X138300458Y-101499400D01*
X138436613Y-101610001D01*
X138617329Y-101768330D01*
X138851807Y-101981590D01*
X138956808Y-102078428D01*
X139710041Y-102774954D01*
X140713369Y-102774954D01*
X141009415Y-102773735D01*
X141273392Y-102770322D01*
X141491434Y-102765087D01*
X141649673Y-102758400D01*
X141734243Y-102750631D01*
X141744217Y-102747435D01*
X141721576Y-102707134D01*
X141644447Y-102605878D01*
X141519925Y-102452220D01*
X141355110Y-102254717D01*
X141157100Y-102021924D01*
X140932993Y-101762396D01*
X140809960Y-101621384D01*
X140475274Y-101238925D01*
X140128799Y-100842654D01*
X139776333Y-100439229D01*
X139423678Y-100035309D01*
X139076634Y-99637552D01*
X138741002Y-99252617D01*
X138422581Y-98887163D01*
X138127171Y-98547847D01*
X137860574Y-98241328D01*
X137628589Y-97974266D01*
X137437017Y-97753318D01*
X137291658Y-97585143D01*
X137198313Y-97476399D01*
X137170502Y-97443438D01*
X137043380Y-97289855D01*
X137031196Y-98999223D01*
G36*
X134151100Y-102683265D02*
G01*
X133870314Y-102686586D01*
X133635285Y-102691711D01*
X133458572Y-102698307D01*
X133352733Y-102706038D01*
X133327422Y-102712390D01*
X133358639Y-102752487D01*
X133446418Y-102849262D01*
X133581954Y-102993424D01*
X133756442Y-103175683D01*
X133961076Y-103386749D01*
X134134531Y-103563954D01*
X134359266Y-103795354D01*
X134562577Y-104009890D01*
X134735102Y-104197260D01*
X134867479Y-104347164D01*
X134950344Y-104449300D01*
X134974214Y-104487841D01*
X134975764Y-104625294D01*
X134903865Y-104740017D01*
X134777934Y-104808521D01*
X134701230Y-104818099D01*
X134653285Y-104813525D01*
X134600975Y-104795278D01*
X134536740Y-104756568D01*
X134453022Y-104690603D01*
X134342259Y-104590594D01*
X134196892Y-104449751D01*
X134009362Y-104261283D01*
X133772107Y-104018400D01*
X133512159Y-103750091D01*
X132479496Y-102682084D01*
X131417536Y-102682084D01*
X131114825Y-102683535D01*
X130845892Y-102687605D01*
X130623700Y-102693866D01*
X130461215Y-102701894D01*
X130371402Y-102711261D01*
X130357680Y-102716910D01*
X130387282Y-102759702D01*
X130469989Y-102863834D01*
X130598308Y-103020274D01*
X130764745Y-103219987D01*
X130961807Y-103453939D01*
X131182000Y-103713098D01*
X131253258Y-103796527D01*
X132146732Y-104841316D01*
X133652468Y-104866834D01*
X133652468Y-108811517D01*
X135602742Y-108811517D01*
X135602742Y-102682084D01*
X134465082Y-102682084D01*
X134151100Y-102683265D01*
G37*
X134151100Y-102683265D02*
X133870314Y-102686586D01*
X133635285Y-102691711D01*
X133458572Y-102698307D01*
X133352733Y-102706038D01*
X133327422Y-102712390D01*
X133358639Y-102752487D01*
X133446418Y-102849262D01*
X133581954Y-102993424D01*
X133756442Y-103175683D01*
X133961076Y-103386749D01*
X134134531Y-103563954D01*
X134359266Y-103795354D01*
X134562577Y-104009890D01*
X134735102Y-104197260D01*
X134867479Y-104347164D01*
X134950344Y-104449300D01*
X134974214Y-104487841D01*
X134975764Y-104625294D01*
X134903865Y-104740017D01*
X134777934Y-104808521D01*
X134701230Y-104818099D01*
X134653285Y-104813525D01*
X134600975Y-104795278D01*
X134536740Y-104756568D01*
X134453022Y-104690603D01*
X134342259Y-104590594D01*
X134196892Y-104449751D01*
X134009362Y-104261283D01*
X133772107Y-104018400D01*
X133512159Y-103750091D01*
X132479496Y-102682084D01*
X131417536Y-102682084D01*
X131114825Y-102683535D01*
X130845892Y-102687605D01*
X130623700Y-102693866D01*
X130461215Y-102701894D01*
X130371402Y-102711261D01*
X130357680Y-102716910D01*
X130387282Y-102759702D01*
X130469989Y-102863834D01*
X130598308Y-103020274D01*
X130764745Y-103219987D01*
X130961807Y-103453939D01*
X131182000Y-103713098D01*
X131253258Y-103796527D01*
X132146732Y-104841316D01*
X133652468Y-104866834D01*
X133652468Y-108811517D01*
X135602742Y-108811517D01*
X135602742Y-102682084D01*
X134465082Y-102682084D01*
X134151100Y-102683265D01*
G36*
X119254425Y-102683586D02*
G01*
X118988755Y-102687794D01*
X118770003Y-102694263D01*
X118611310Y-102702546D01*
X118525816Y-102712197D01*
X118514625Y-102717363D01*
X118543756Y-102759116D01*
X118627012Y-102864008D01*
X118758193Y-103024568D01*
X118931094Y-103233330D01*
X119139513Y-103482825D01*
X119377248Y-103765583D01*
X119638095Y-104074136D01*
X119793305Y-104256999D01*
X121071985Y-105761357D01*
X120961633Y-105881776D01*
X120861948Y-105993500D01*
X120720701Y-106155949D01*
X120545437Y-106360113D01*
X120343702Y-106596979D01*
X120123042Y-106857535D01*
X119891002Y-107132770D01*
X119655128Y-107413671D01*
X119422966Y-107691227D01*
X119202061Y-107956426D01*
X118999959Y-108200255D01*
X118824206Y-108413704D01*
X118682348Y-108587760D01*
X118581929Y-108713412D01*
X118530496Y-108781647D01*
X118525424Y-108791360D01*
X118574561Y-108795194D01*
X118707794Y-108798344D01*
X118916349Y-108800778D01*
X119191456Y-108802463D01*
X119524341Y-108803366D01*
X119906232Y-108803454D01*
X120328357Y-108802695D01*
X120781943Y-108801056D01*
X120933545Y-108800334D01*
X123320658Y-108788300D01*
X122473217Y-107924208D01*
X122245341Y-107689783D01*
X122040642Y-107475228D01*
X121867742Y-107289904D01*
X121735262Y-107143171D01*
X121651821Y-107044391D01*
X121625777Y-107004062D01*
X121652916Y-106903338D01*
X121715386Y-106787833D01*
X121783642Y-106711040D01*
X121832588Y-106686780D01*
X121887301Y-106682544D01*
X121955012Y-106704054D01*
X122042951Y-106757030D01*
X122158349Y-106847194D01*
X122308436Y-106980267D01*
X122500443Y-107161970D01*
X122741599Y-107398024D01*
X123039136Y-107694150D01*
X123088482Y-107743510D01*
X124155732Y-108811517D01*
X125215250Y-108811517D01*
X125589339Y-108809902D01*
X125874950Y-108804915D01*
X126076422Y-108796345D01*
X126198092Y-108783983D01*
X126244298Y-108767619D01*
X126243926Y-108761615D01*
X126208054Y-108716527D01*
X126118393Y-108608449D01*
X125981413Y-108445054D01*
X125803586Y-108234015D01*
X125591383Y-107983007D01*
X125351277Y-107699702D01*
X125089739Y-107391774D01*
X124963419Y-107243270D01*
X124695774Y-106927632D01*
X124448340Y-106633634D01*
X124227328Y-106368818D01*
X124038947Y-106140726D01*
X123889406Y-105956898D01*
X123784916Y-105824877D01*
X123731685Y-105752203D01*
X123726163Y-105740619D01*
X123757993Y-105699055D01*
X123843823Y-105594385D01*
X123977340Y-105434123D01*
X124152227Y-105225781D01*
X124362170Y-104976871D01*
X124600855Y-104694906D01*
X124861964Y-104387398D01*
X125003930Y-104220572D01*
X125273677Y-103903217D01*
X125523773Y-103607811D01*
X125747981Y-103341808D01*
X125940062Y-103112664D01*
X126093776Y-102927835D01*
X126202886Y-102794777D01*
X126261152Y-102720944D01*
X126269287Y-102708409D01*
X126224294Y-102703333D01*
X126095088Y-102698579D01*
X125890323Y-102694242D01*
X125618656Y-102690418D01*
X125288742Y-102687201D01*
X124909238Y-102684686D01*
X124488798Y-102682969D01*
X124036079Y-102682144D01*
X123874009Y-102682084D01*
X123299890Y-102682943D01*
X122799362Y-102685484D01*
X122375384Y-102689650D01*
X122030918Y-102695385D01*
X121768923Y-102702633D01*
X121592361Y-102711339D01*
X121504190Y-102721445D01*
X121494211Y-102727115D01*
X121529454Y-102771743D01*
X121620396Y-102873495D01*
X121758127Y-103022782D01*
X121933734Y-103210016D01*
X122138308Y-103425608D01*
X122310694Y-103605669D01*
X122577466Y-103885263D01*
X122783831Y-104107890D01*
X122935235Y-104282071D01*
X123037122Y-104416327D01*
X123094936Y-104519179D01*
X123114121Y-104599147D01*
X123100122Y-104664753D01*
X123058383Y-104724517D01*
X123038730Y-104745129D01*
X122982831Y-104794304D01*
X122926112Y-104822515D01*
X122861296Y-104824542D01*
X122781107Y-104795163D01*
X122678268Y-104729156D01*
X122545502Y-104621301D01*
X122375531Y-104466375D01*
X122161080Y-104259158D01*
X121894872Y-103994427D01*
X121652010Y-103750091D01*
X120593119Y-102682084D01*
X119553872Y-102682084D01*
X119254425Y-102683586D01*
G37*
X119254425Y-102683586D02*
X118988755Y-102687794D01*
X118770003Y-102694263D01*
X118611310Y-102702546D01*
X118525816Y-102712197D01*
X118514625Y-102717363D01*
X118543756Y-102759116D01*
X118627012Y-102864008D01*
X118758193Y-103024568D01*
X118931094Y-103233330D01*
X119139513Y-103482825D01*
X119377248Y-103765583D01*
X119638095Y-104074136D01*
X119793305Y-104256999D01*
X121071985Y-105761357D01*
X120961633Y-105881776D01*
X120861948Y-105993500D01*
X120720701Y-106155949D01*
X120545437Y-106360113D01*
X120343702Y-106596979D01*
X120123042Y-106857535D01*
X119891002Y-107132770D01*
X119655128Y-107413671D01*
X119422966Y-107691227D01*
X119202061Y-107956426D01*
X118999959Y-108200255D01*
X118824206Y-108413704D01*
X118682348Y-108587760D01*
X118581929Y-108713412D01*
X118530496Y-108781647D01*
X118525424Y-108791360D01*
X118574561Y-108795194D01*
X118707794Y-108798344D01*
X118916349Y-108800778D01*
X119191456Y-108802463D01*
X119524341Y-108803366D01*
X119906232Y-108803454D01*
X120328357Y-108802695D01*
X120781943Y-108801056D01*
X120933545Y-108800334D01*
X123320658Y-108788300D01*
X122473217Y-107924208D01*
X122245341Y-107689783D01*
X122040642Y-107475228D01*
X121867742Y-107289904D01*
X121735262Y-107143171D01*
X121651821Y-107044391D01*
X121625777Y-107004062D01*
X121652916Y-106903338D01*
X121715386Y-106787833D01*
X121783642Y-106711040D01*
X121832588Y-106686780D01*
X121887301Y-106682544D01*
X121955012Y-106704054D01*
X122042951Y-106757030D01*
X122158349Y-106847194D01*
X122308436Y-106980267D01*
X122500443Y-107161970D01*
X122741599Y-107398024D01*
X123039136Y-107694150D01*
X123088482Y-107743510D01*
X124155732Y-108811517D01*
X125215250Y-108811517D01*
X125589339Y-108809902D01*
X125874950Y-108804915D01*
X126076422Y-108796345D01*
X126198092Y-108783983D01*
X126244298Y-108767619D01*
X126243926Y-108761615D01*
X126208054Y-108716527D01*
X126118393Y-108608449D01*
X125981413Y-108445054D01*
X125803586Y-108234015D01*
X125591383Y-107983007D01*
X125351277Y-107699702D01*
X125089739Y-107391774D01*
X124963419Y-107243270D01*
X124695774Y-106927632D01*
X124448340Y-106633634D01*
X124227328Y-106368818D01*
X124038947Y-106140726D01*
X123889406Y-105956898D01*
X123784916Y-105824877D01*
X123731685Y-105752203D01*
X123726163Y-105740619D01*
X123757993Y-105699055D01*
X123843823Y-105594385D01*
X123977340Y-105434123D01*
X124152227Y-105225781D01*
X124362170Y-104976871D01*
X124600855Y-104694906D01*
X124861964Y-104387398D01*
X125003930Y-104220572D01*
X125273677Y-103903217D01*
X125523773Y-103607811D01*
X125747981Y-103341808D01*
X125940062Y-103112664D01*
X126093776Y-102927835D01*
X126202886Y-102794777D01*
X126261152Y-102720944D01*
X126269287Y-102708409D01*
X126224294Y-102703333D01*
X126095088Y-102698579D01*
X125890323Y-102694242D01*
X125618656Y-102690418D01*
X125288742Y-102687201D01*
X124909238Y-102684686D01*
X124488798Y-102682969D01*
X124036079Y-102682144D01*
X123874009Y-102682084D01*
X123299890Y-102682943D01*
X122799362Y-102685484D01*
X122375384Y-102689650D01*
X122030918Y-102695385D01*
X121768923Y-102702633D01*
X121592361Y-102711339D01*
X121504190Y-102721445D01*
X121494211Y-102727115D01*
X121529454Y-102771743D01*
X121620396Y-102873495D01*
X121758127Y-103022782D01*
X121933734Y-103210016D01*
X122138308Y-103425608D01*
X122310694Y-103605669D01*
X122577466Y-103885263D01*
X122783831Y-104107890D01*
X122935235Y-104282071D01*
X123037122Y-104416327D01*
X123094936Y-104519179D01*
X123114121Y-104599147D01*
X123100122Y-104664753D01*
X123058383Y-104724517D01*
X123038730Y-104745129D01*
X122982831Y-104794304D01*
X122926112Y-104822515D01*
X122861296Y-104824542D01*
X122781107Y-104795163D01*
X122678268Y-104729156D01*
X122545502Y-104621301D01*
X122375531Y-104466375D01*
X122161080Y-104259158D01*
X121894872Y-103994427D01*
X121652010Y-103750091D01*
X120593119Y-102682084D01*
X119553872Y-102682084D01*
X119254425Y-102683586D01*
D11*
G36*
X117700000Y-127800000D02*
G01*
X165700000Y-127800000D01*
X165700000Y-136800000D01*
X117700000Y-136800000D01*
X117700000Y-127800000D01*
G37*
X117700000Y-127800000D02*
X165700000Y-127800000D01*
X165700000Y-136800000D01*
X117700000Y-136800000D01*
X117700000Y-127800000D01*
D12*
X163900000Y-107700000D03*
G36*
G01*
X164575000Y-105810000D02*
X163225000Y-105810000D01*
G75*
G02*
X162900000Y-105485000I0J325000D01*
G01*
X162900000Y-104835000D01*
G75*
G02*
X163225000Y-104510000I325000J0D01*
G01*
X164575000Y-104510000D01*
G75*
G02*
X164900000Y-104835000I0J-325000D01*
G01*
X164900000Y-105485000D01*
G75*
G02*
X164575000Y-105810000I-325000J0D01*
G01*
G37*
G36*
G01*
X162505000Y-107080000D02*
X161155000Y-107080000D01*
G75*
G02*
X160830000Y-106755000I0J325000D01*
G01*
X160830000Y-106105000D01*
G75*
G02*
X161155000Y-105780000I325000J0D01*
G01*
X162505000Y-105780000D01*
G75*
G02*
X162830000Y-106105000I0J-325000D01*
G01*
X162830000Y-106755000D01*
G75*
G02*
X162505000Y-107080000I-325000J0D01*
G01*
G37*
D13*
X158100000Y-110890000D03*
X125080000Y-95650000D03*
X155560000Y-110890000D03*
X127620000Y-95650000D03*
X153020000Y-110890000D03*
X130160000Y-95650000D03*
X150480000Y-110890000D03*
X132700000Y-95650000D03*
X147940000Y-110890000D03*
X135240000Y-95650000D03*
X145400000Y-110890000D03*
X137780000Y-95650000D03*
X142860000Y-110890000D03*
X140320000Y-95650000D03*
X140320000Y-110890000D03*
X142860000Y-95650000D03*
X137780000Y-110890000D03*
X145400000Y-95650000D03*
X135240000Y-110890000D03*
X147940000Y-95650000D03*
X132700000Y-110890000D03*
X150480000Y-95650000D03*
X130160000Y-110890000D03*
X153020000Y-95650000D03*
X127620000Y-110890000D03*
X155560000Y-95650000D03*
X125080000Y-110890000D03*
D14*
X158100000Y-95650000D03*
D15*
X129700000Y-87600000D03*
X153700000Y-87600000D03*
D16*
X121700000Y-117600000D03*
D17*
X141700000Y-117600000D03*
D16*
X161700000Y-117600000D03*
D18*
X120110000Y-131200000D03*
X122650000Y-131200000D03*
X125190000Y-131200000D03*
X127730000Y-131200000D03*
X130270000Y-131200000D03*
X132810000Y-131200000D03*
X135350000Y-131200000D03*
X137890000Y-131200000D03*
X140430000Y-131200000D03*
X142970000Y-131200000D03*
X145510000Y-131200000D03*
X148050000Y-131200000D03*
X150590000Y-131200000D03*
X153130000Y-131200000D03*
X155670000Y-131200000D03*
X158210000Y-131200000D03*
X160750000Y-131200000D03*
X163290000Y-131200000D03*
M02*
