G04 #@! TF.GenerationSoftware,KiCad,Pcbnew,(5.1.6-0)*
G04 #@! TF.CreationDate,2020-06-20T23:38:09-05:00*
G04 #@! TF.ProjectId,vectrex-cartridge,76656374-7265-4782-9d63-617274726964,v1.0*
G04 #@! TF.SameCoordinates,Original*
G04 #@! TF.FileFunction,Soldermask,Top*
G04 #@! TF.FilePolarity,Negative*
%FSLAX46Y46*%
G04 Gerber Fmt 4.6, Leading zero omitted, Abs format (unit mm)*
G04 Created by KiCad (PCBNEW (5.1.6-0)) date 2020-06-20 23:38:09*
%MOMM*%
%LPD*%
G01*
G04 APERTURE LIST*
%ADD10C,0.010000*%
%ADD11C,0.100000*%
%ADD12R,1.200000X1.700000*%
%ADD13R,2.000000X1.300000*%
%ADD14O,1.800000X1.800000*%
%ADD15R,1.800000X1.800000*%
%ADD16C,4.400000*%
%ADD17C,3.900000*%
%ADD18C,5.400000*%
%ADD19O,1.720000X9.000000*%
G04 APERTURE END LIST*
D10*
G36*
X134531520Y-77495950D02*
G01*
X134891123Y-77602487D01*
X135368851Y-77821002D01*
X135794321Y-78115032D01*
X135981096Y-78283185D01*
X136225537Y-78521433D01*
X134820218Y-79928151D01*
X134468554Y-80281147D01*
X134178764Y-80574436D01*
X133946177Y-80813093D01*
X133766123Y-81002193D01*
X133633931Y-81146812D01*
X133544930Y-81252024D01*
X133494451Y-81322905D01*
X133477821Y-81364530D01*
X133484552Y-81379475D01*
X133567367Y-81404106D01*
X133707471Y-81420611D01*
X133823057Y-81424792D01*
X134125490Y-81385858D01*
X134377514Y-81269607D01*
X134574630Y-81079447D01*
X134712339Y-80818790D01*
X134740946Y-80728976D01*
X134767797Y-80654069D01*
X134812071Y-80572651D01*
X134881788Y-80475251D01*
X134984966Y-80352396D01*
X135129624Y-80194616D01*
X135323782Y-79992436D01*
X135575458Y-79736387D01*
X135615647Y-79695795D01*
X135840411Y-79470025D01*
X136043769Y-79267859D01*
X136216611Y-79098182D01*
X136349826Y-78969882D01*
X136434305Y-78891843D01*
X136460650Y-78871572D01*
X136497275Y-78911959D01*
X136555666Y-79019331D01*
X136626933Y-79173009D01*
X136702190Y-79352314D01*
X136772549Y-79536565D01*
X136829123Y-79705082D01*
X136849004Y-79775204D01*
X136891959Y-80019216D01*
X136914819Y-80319484D01*
X136917545Y-80641584D01*
X136900100Y-80951095D01*
X136862446Y-81213592D01*
X136850636Y-81264833D01*
X136679714Y-81756509D01*
X136429778Y-82211518D01*
X136110042Y-82619647D01*
X135729719Y-82970686D01*
X135298021Y-83254424D01*
X134890148Y-83437746D01*
X134737340Y-83484442D01*
X134541116Y-83532731D01*
X134325550Y-83578109D01*
X134114714Y-83616068D01*
X133932682Y-83642101D01*
X133803527Y-83651701D01*
X133764381Y-83648499D01*
X133708992Y-83639908D01*
X133588649Y-83623314D01*
X133445605Y-83604427D01*
X132925514Y-83492022D01*
X132443768Y-83295122D01*
X132002008Y-83014540D01*
X131673583Y-82725443D01*
X131384538Y-82406011D01*
X131162045Y-82088908D01*
X130986076Y-81742872D01*
X130895332Y-81510708D01*
X130845498Y-81362142D01*
X130811377Y-81229259D01*
X130790063Y-81088381D01*
X130778650Y-80915830D01*
X130774232Y-80687929D01*
X130773843Y-80557897D01*
X132927331Y-80557897D01*
X132932775Y-80700424D01*
X132946860Y-80796263D01*
X132961487Y-80821847D01*
X133003946Y-80790607D01*
X133100390Y-80703994D01*
X133239498Y-80572661D01*
X133409949Y-80407263D01*
X133565143Y-80253713D01*
X133750989Y-80066360D01*
X133911437Y-79900880D01*
X134035804Y-79768599D01*
X134113404Y-79680841D01*
X134134644Y-79650057D01*
X134092350Y-79631721D01*
X133981966Y-79618892D01*
X133841907Y-79614534D01*
X133544497Y-79654339D01*
X133297615Y-79769019D01*
X133108144Y-79951472D01*
X132982972Y-80194597D01*
X132928982Y-80491291D01*
X132927331Y-80557897D01*
X130773843Y-80557897D01*
X130773729Y-80520018D01*
X130775409Y-80248897D01*
X130782389Y-80046938D01*
X130797575Y-79890462D01*
X130823872Y-79755793D01*
X130864187Y-79619253D01*
X130895332Y-79529329D01*
X131053141Y-79151288D01*
X131245570Y-78820759D01*
X131492648Y-78506480D01*
X131673583Y-78314593D01*
X132076642Y-77972331D01*
X132521516Y-77709629D01*
X132998823Y-77528563D01*
X133499180Y-77431211D01*
X134013207Y-77419647D01*
X134531520Y-77495950D01*
G37*
X134531520Y-77495950D02*
X134891123Y-77602487D01*
X135368851Y-77821002D01*
X135794321Y-78115032D01*
X135981096Y-78283185D01*
X136225537Y-78521433D01*
X134820218Y-79928151D01*
X134468554Y-80281147D01*
X134178764Y-80574436D01*
X133946177Y-80813093D01*
X133766123Y-81002193D01*
X133633931Y-81146812D01*
X133544930Y-81252024D01*
X133494451Y-81322905D01*
X133477821Y-81364530D01*
X133484552Y-81379475D01*
X133567367Y-81404106D01*
X133707471Y-81420611D01*
X133823057Y-81424792D01*
X134125490Y-81385858D01*
X134377514Y-81269607D01*
X134574630Y-81079447D01*
X134712339Y-80818790D01*
X134740946Y-80728976D01*
X134767797Y-80654069D01*
X134812071Y-80572651D01*
X134881788Y-80475251D01*
X134984966Y-80352396D01*
X135129624Y-80194616D01*
X135323782Y-79992436D01*
X135575458Y-79736387D01*
X135615647Y-79695795D01*
X135840411Y-79470025D01*
X136043769Y-79267859D01*
X136216611Y-79098182D01*
X136349826Y-78969882D01*
X136434305Y-78891843D01*
X136460650Y-78871572D01*
X136497275Y-78911959D01*
X136555666Y-79019331D01*
X136626933Y-79173009D01*
X136702190Y-79352314D01*
X136772549Y-79536565D01*
X136829123Y-79705082D01*
X136849004Y-79775204D01*
X136891959Y-80019216D01*
X136914819Y-80319484D01*
X136917545Y-80641584D01*
X136900100Y-80951095D01*
X136862446Y-81213592D01*
X136850636Y-81264833D01*
X136679714Y-81756509D01*
X136429778Y-82211518D01*
X136110042Y-82619647D01*
X135729719Y-82970686D01*
X135298021Y-83254424D01*
X134890148Y-83437746D01*
X134737340Y-83484442D01*
X134541116Y-83532731D01*
X134325550Y-83578109D01*
X134114714Y-83616068D01*
X133932682Y-83642101D01*
X133803527Y-83651701D01*
X133764381Y-83648499D01*
X133708992Y-83639908D01*
X133588649Y-83623314D01*
X133445605Y-83604427D01*
X132925514Y-83492022D01*
X132443768Y-83295122D01*
X132002008Y-83014540D01*
X131673583Y-82725443D01*
X131384538Y-82406011D01*
X131162045Y-82088908D01*
X130986076Y-81742872D01*
X130895332Y-81510708D01*
X130845498Y-81362142D01*
X130811377Y-81229259D01*
X130790063Y-81088381D01*
X130778650Y-80915830D01*
X130774232Y-80687929D01*
X130773843Y-80557897D01*
X132927331Y-80557897D01*
X132932775Y-80700424D01*
X132946860Y-80796263D01*
X132961487Y-80821847D01*
X133003946Y-80790607D01*
X133100390Y-80703994D01*
X133239498Y-80572661D01*
X133409949Y-80407263D01*
X133565143Y-80253713D01*
X133750989Y-80066360D01*
X133911437Y-79900880D01*
X134035804Y-79768599D01*
X134113404Y-79680841D01*
X134134644Y-79650057D01*
X134092350Y-79631721D01*
X133981966Y-79618892D01*
X133841907Y-79614534D01*
X133544497Y-79654339D01*
X133297615Y-79769019D01*
X133108144Y-79951472D01*
X132982972Y-80194597D01*
X132928982Y-80491291D01*
X132927331Y-80557897D01*
X130773843Y-80557897D01*
X130773729Y-80520018D01*
X130775409Y-80248897D01*
X130782389Y-80046938D01*
X130797575Y-79890462D01*
X130823872Y-79755793D01*
X130864187Y-79619253D01*
X130895332Y-79529329D01*
X131053141Y-79151288D01*
X131245570Y-78820759D01*
X131492648Y-78506480D01*
X131673583Y-78314593D01*
X132076642Y-77972331D01*
X132521516Y-77709629D01*
X132998823Y-77528563D01*
X133499180Y-77431211D01*
X134013207Y-77419647D01*
X134531520Y-77495950D01*
G36*
X141105550Y-77486052D02*
G01*
X141591495Y-77630816D01*
X142045688Y-77848132D01*
X142449917Y-78132392D01*
X142492962Y-78169639D01*
X142701920Y-78354488D01*
X141940281Y-79119798D01*
X141178643Y-79885107D01*
X140993494Y-79762581D01*
X140849477Y-79685091D01*
X140689182Y-79642685D01*
X140501384Y-79625460D01*
X140218199Y-79642371D01*
X139986795Y-79729055D01*
X139788872Y-79894477D01*
X139685570Y-80025235D01*
X139603556Y-80156558D01*
X139560853Y-80277796D01*
X139545503Y-80430844D01*
X139544333Y-80520018D01*
X139551366Y-80700647D01*
X139580437Y-80830848D01*
X139643506Y-80952518D01*
X139685570Y-81014802D01*
X139888780Y-81235570D01*
X140129415Y-81371586D01*
X140409625Y-81424008D01*
X140446766Y-81424739D01*
X140748190Y-81385276D01*
X141000929Y-81268481D01*
X141198299Y-81079684D01*
X141333616Y-80824212D01*
X141373095Y-80686173D01*
X141393843Y-80614786D01*
X141428951Y-80540843D01*
X141486542Y-80454684D01*
X141574740Y-80346648D01*
X141701668Y-80207075D01*
X141875449Y-80026305D01*
X142104206Y-79794675D01*
X142222443Y-79676085D01*
X142446591Y-79454098D01*
X142650476Y-79256811D01*
X142824643Y-79092999D01*
X142959638Y-78971435D01*
X143046006Y-78900894D01*
X143073027Y-78886693D01*
X143129365Y-78942919D01*
X143202536Y-79069009D01*
X143284022Y-79245486D01*
X143365302Y-79452869D01*
X143437855Y-79671683D01*
X143474999Y-79805649D01*
X143552110Y-80294514D01*
X143544438Y-80794466D01*
X143456458Y-81290944D01*
X143292645Y-81769388D01*
X143057476Y-82215238D01*
X142755425Y-82613932D01*
X142548314Y-82820558D01*
X142132133Y-83133799D01*
X141670395Y-83374133D01*
X141177445Y-83537029D01*
X140667631Y-83617956D01*
X140155299Y-83612382D01*
X140071542Y-83602838D01*
X139564828Y-83491989D01*
X139088586Y-83298737D01*
X138651787Y-83031025D01*
X138263408Y-82696799D01*
X137932422Y-82304003D01*
X137667802Y-81860581D01*
X137478524Y-81374477D01*
X137453761Y-81285404D01*
X137401933Y-80996692D01*
X137377615Y-80656485D01*
X137380806Y-80301990D01*
X137411506Y-79970415D01*
X137453761Y-79754633D01*
X137630938Y-79254547D01*
X137884727Y-78799764D01*
X138207155Y-78397238D01*
X138590250Y-78053920D01*
X139026041Y-77776766D01*
X139506556Y-77572728D01*
X140023823Y-77448760D01*
X140111254Y-77436595D01*
X140606065Y-77419443D01*
X141105550Y-77486052D01*
G37*
X141105550Y-77486052D02*
X141591495Y-77630816D01*
X142045688Y-77848132D01*
X142449917Y-78132392D01*
X142492962Y-78169639D01*
X142701920Y-78354488D01*
X141940281Y-79119798D01*
X141178643Y-79885107D01*
X140993494Y-79762581D01*
X140849477Y-79685091D01*
X140689182Y-79642685D01*
X140501384Y-79625460D01*
X140218199Y-79642371D01*
X139986795Y-79729055D01*
X139788872Y-79894477D01*
X139685570Y-80025235D01*
X139603556Y-80156558D01*
X139560853Y-80277796D01*
X139545503Y-80430844D01*
X139544333Y-80520018D01*
X139551366Y-80700647D01*
X139580437Y-80830848D01*
X139643506Y-80952518D01*
X139685570Y-81014802D01*
X139888780Y-81235570D01*
X140129415Y-81371586D01*
X140409625Y-81424008D01*
X140446766Y-81424739D01*
X140748190Y-81385276D01*
X141000929Y-81268481D01*
X141198299Y-81079684D01*
X141333616Y-80824212D01*
X141373095Y-80686173D01*
X141393843Y-80614786D01*
X141428951Y-80540843D01*
X141486542Y-80454684D01*
X141574740Y-80346648D01*
X141701668Y-80207075D01*
X141875449Y-80026305D01*
X142104206Y-79794675D01*
X142222443Y-79676085D01*
X142446591Y-79454098D01*
X142650476Y-79256811D01*
X142824643Y-79092999D01*
X142959638Y-78971435D01*
X143046006Y-78900894D01*
X143073027Y-78886693D01*
X143129365Y-78942919D01*
X143202536Y-79069009D01*
X143284022Y-79245486D01*
X143365302Y-79452869D01*
X143437855Y-79671683D01*
X143474999Y-79805649D01*
X143552110Y-80294514D01*
X143544438Y-80794466D01*
X143456458Y-81290944D01*
X143292645Y-81769388D01*
X143057476Y-82215238D01*
X142755425Y-82613932D01*
X142548314Y-82820558D01*
X142132133Y-83133799D01*
X141670395Y-83374133D01*
X141177445Y-83537029D01*
X140667631Y-83617956D01*
X140155299Y-83612382D01*
X140071542Y-83602838D01*
X139564828Y-83491989D01*
X139088586Y-83298737D01*
X138651787Y-83031025D01*
X138263408Y-82696799D01*
X137932422Y-82304003D01*
X137667802Y-81860581D01*
X137478524Y-81374477D01*
X137453761Y-81285404D01*
X137401933Y-80996692D01*
X137377615Y-80656485D01*
X137380806Y-80301990D01*
X137411506Y-79970415D01*
X137453761Y-79754633D01*
X137630938Y-79254547D01*
X137884727Y-78799764D01*
X138207155Y-78397238D01*
X138590250Y-78053920D01*
X139026041Y-77776766D01*
X139506556Y-77572728D01*
X140023823Y-77448760D01*
X140111254Y-77436595D01*
X140606065Y-77419443D01*
X141105550Y-77486052D01*
G36*
X155415469Y-77455387D02*
G01*
X155900418Y-77576585D01*
X156365870Y-77778890D01*
X156801989Y-78062767D01*
X156969104Y-78202011D01*
X157102349Y-78327024D01*
X157203356Y-78433352D01*
X157255600Y-78503169D01*
X157259324Y-78515124D01*
X157227499Y-78558506D01*
X157136569Y-78660214D01*
X156993350Y-78813158D01*
X156804658Y-79010247D01*
X156577309Y-79244392D01*
X156318121Y-79508504D01*
X156033908Y-79795491D01*
X155877880Y-79952023D01*
X155529518Y-80301737D01*
X155243009Y-80591806D01*
X155013644Y-80827351D01*
X154836717Y-81013496D01*
X154707521Y-81155361D01*
X154621348Y-81258070D01*
X154573492Y-81326745D01*
X154559245Y-81366506D01*
X154566088Y-81379477D01*
X154648122Y-81403606D01*
X154788681Y-81420090D01*
X154916869Y-81424792D01*
X155105431Y-81415383D01*
X155250284Y-81377378D01*
X155399263Y-81297826D01*
X155409355Y-81291464D01*
X155579144Y-81146473D01*
X155716119Y-80959873D01*
X155801257Y-80762040D01*
X155819836Y-80635982D01*
X155840343Y-80578121D01*
X155905163Y-80484143D01*
X156019246Y-80348408D01*
X156187540Y-80165279D01*
X156414993Y-79929116D01*
X156642789Y-79698300D01*
X156869444Y-79472801D01*
X157075987Y-79271931D01*
X157253107Y-79104371D01*
X157391496Y-78978804D01*
X157481841Y-78903911D01*
X157513448Y-78886368D01*
X157576595Y-78944905D01*
X157656896Y-79074949D01*
X157745379Y-79258889D01*
X157833070Y-79479113D01*
X157870457Y-79587103D01*
X157916705Y-79740467D01*
X157947641Y-79884768D01*
X157966002Y-80044836D01*
X157974525Y-80245503D01*
X157975943Y-80511598D01*
X157975797Y-80543236D01*
X157972384Y-80812532D01*
X157963266Y-81013833D01*
X157945250Y-81171983D01*
X157915140Y-81311823D01*
X157869741Y-81458196D01*
X157851378Y-81510708D01*
X157695943Y-81884632D01*
X157506137Y-82212691D01*
X157262312Y-82525597D01*
X157072012Y-82728882D01*
X156676884Y-83064009D01*
X156232657Y-83325187D01*
X155751500Y-83508255D01*
X155245584Y-83609057D01*
X154727078Y-83623434D01*
X154512858Y-83603275D01*
X154009587Y-83492115D01*
X153535702Y-83298518D01*
X153100389Y-83030693D01*
X152712831Y-82696849D01*
X152382215Y-82305195D01*
X152117723Y-81863940D01*
X151928542Y-81381294D01*
X151896531Y-81264833D01*
X151854535Y-81020393D01*
X151832335Y-80719831D01*
X151831269Y-80577009D01*
X153977768Y-80577009D01*
X153989898Y-80710093D01*
X154017268Y-80799928D01*
X154045127Y-80821847D01*
X154086885Y-80790620D01*
X154182702Y-80704039D01*
X154321303Y-80572753D01*
X154491413Y-80407410D01*
X154646679Y-80253713D01*
X154832524Y-80066360D01*
X154992973Y-79900880D01*
X155117339Y-79768599D01*
X155194939Y-79680841D01*
X155216179Y-79650057D01*
X155173976Y-79631375D01*
X155064221Y-79618507D01*
X154935719Y-79614534D01*
X154628453Y-79653454D01*
X154373203Y-79768354D01*
X154173777Y-79956442D01*
X154033983Y-80214928D01*
X154007385Y-80294972D01*
X153982918Y-80429145D01*
X153977768Y-80577009D01*
X151831269Y-80577009D01*
X151829931Y-80397760D01*
X151847324Y-80088792D01*
X151884513Y-79827541D01*
X151896531Y-79775204D01*
X152037555Y-79363061D01*
X152244434Y-78952638D01*
X152497828Y-78579228D01*
X152647061Y-78405542D01*
X153042469Y-78049815D01*
X153477388Y-77772418D01*
X153941981Y-77573814D01*
X154426416Y-77454465D01*
X154920857Y-77414835D01*
X155415469Y-77455387D01*
G37*
X155415469Y-77455387D02*
X155900418Y-77576585D01*
X156365870Y-77778890D01*
X156801989Y-78062767D01*
X156969104Y-78202011D01*
X157102349Y-78327024D01*
X157203356Y-78433352D01*
X157255600Y-78503169D01*
X157259324Y-78515124D01*
X157227499Y-78558506D01*
X157136569Y-78660214D01*
X156993350Y-78813158D01*
X156804658Y-79010247D01*
X156577309Y-79244392D01*
X156318121Y-79508504D01*
X156033908Y-79795491D01*
X155877880Y-79952023D01*
X155529518Y-80301737D01*
X155243009Y-80591806D01*
X155013644Y-80827351D01*
X154836717Y-81013496D01*
X154707521Y-81155361D01*
X154621348Y-81258070D01*
X154573492Y-81326745D01*
X154559245Y-81366506D01*
X154566088Y-81379477D01*
X154648122Y-81403606D01*
X154788681Y-81420090D01*
X154916869Y-81424792D01*
X155105431Y-81415383D01*
X155250284Y-81377378D01*
X155399263Y-81297826D01*
X155409355Y-81291464D01*
X155579144Y-81146473D01*
X155716119Y-80959873D01*
X155801257Y-80762040D01*
X155819836Y-80635982D01*
X155840343Y-80578121D01*
X155905163Y-80484143D01*
X156019246Y-80348408D01*
X156187540Y-80165279D01*
X156414993Y-79929116D01*
X156642789Y-79698300D01*
X156869444Y-79472801D01*
X157075987Y-79271931D01*
X157253107Y-79104371D01*
X157391496Y-78978804D01*
X157481841Y-78903911D01*
X157513448Y-78886368D01*
X157576595Y-78944905D01*
X157656896Y-79074949D01*
X157745379Y-79258889D01*
X157833070Y-79479113D01*
X157870457Y-79587103D01*
X157916705Y-79740467D01*
X157947641Y-79884768D01*
X157966002Y-80044836D01*
X157974525Y-80245503D01*
X157975943Y-80511598D01*
X157975797Y-80543236D01*
X157972384Y-80812532D01*
X157963266Y-81013833D01*
X157945250Y-81171983D01*
X157915140Y-81311823D01*
X157869741Y-81458196D01*
X157851378Y-81510708D01*
X157695943Y-81884632D01*
X157506137Y-82212691D01*
X157262312Y-82525597D01*
X157072012Y-82728882D01*
X156676884Y-83064009D01*
X156232657Y-83325187D01*
X155751500Y-83508255D01*
X155245584Y-83609057D01*
X154727078Y-83623434D01*
X154512858Y-83603275D01*
X154009587Y-83492115D01*
X153535702Y-83298518D01*
X153100389Y-83030693D01*
X152712831Y-82696849D01*
X152382215Y-82305195D01*
X152117723Y-81863940D01*
X151928542Y-81381294D01*
X151896531Y-81264833D01*
X151854535Y-81020393D01*
X151832335Y-80719831D01*
X151831269Y-80577009D01*
X153977768Y-80577009D01*
X153989898Y-80710093D01*
X154017268Y-80799928D01*
X154045127Y-80821847D01*
X154086885Y-80790620D01*
X154182702Y-80704039D01*
X154321303Y-80572753D01*
X154491413Y-80407410D01*
X154646679Y-80253713D01*
X154832524Y-80066360D01*
X154992973Y-79900880D01*
X155117339Y-79768599D01*
X155194939Y-79680841D01*
X155216179Y-79650057D01*
X155173976Y-79631375D01*
X155064221Y-79618507D01*
X154935719Y-79614534D01*
X154628453Y-79653454D01*
X154373203Y-79768354D01*
X154173777Y-79956442D01*
X154033983Y-80214928D01*
X154007385Y-80294972D01*
X153982918Y-80429145D01*
X153977768Y-80577009D01*
X151831269Y-80577009D01*
X151829931Y-80397760D01*
X151847324Y-80088792D01*
X151884513Y-79827541D01*
X151896531Y-79775204D01*
X152037555Y-79363061D01*
X152244434Y-78952638D01*
X152497828Y-78579228D01*
X152647061Y-78405542D01*
X153042469Y-78049815D01*
X153477388Y-77772418D01*
X153941981Y-77573814D01*
X154426416Y-77454465D01*
X154920857Y-77414835D01*
X155415469Y-77455387D01*
G36*
X124846421Y-75064126D02*
G01*
X125519207Y-75064803D01*
X126159814Y-75065896D01*
X126762474Y-75067375D01*
X127321416Y-75069210D01*
X127830870Y-75071372D01*
X128285065Y-75073831D01*
X128678233Y-75076559D01*
X129004602Y-75079525D01*
X129258403Y-75082700D01*
X129433865Y-75086055D01*
X129525220Y-75089561D01*
X129537569Y-75091427D01*
X129505843Y-75128385D01*
X129414274Y-75225854D01*
X129268277Y-75378267D01*
X129073264Y-75580057D01*
X128834649Y-75825655D01*
X128557846Y-76109494D01*
X128248268Y-76426007D01*
X127911329Y-76769625D01*
X127552444Y-77134781D01*
X127413163Y-77276279D01*
X127044922Y-77651222D01*
X126694989Y-78009454D01*
X126369013Y-78345066D01*
X126072644Y-78652152D01*
X125811529Y-78924805D01*
X125591319Y-79157116D01*
X125417661Y-79343179D01*
X125296206Y-79477087D01*
X125232601Y-79552931D01*
X125225216Y-79564318D01*
X125193827Y-79717760D01*
X125238303Y-79857579D01*
X125341752Y-79965621D01*
X125487279Y-80023735D01*
X125646364Y-80016864D01*
X125700610Y-79978244D01*
X125815798Y-79875978D01*
X125988544Y-79713400D01*
X126215462Y-79493848D01*
X126493167Y-79220657D01*
X126818273Y-78897164D01*
X127187395Y-78526705D01*
X127597148Y-78112617D01*
X128044147Y-77658235D01*
X128171990Y-77527845D01*
X130582359Y-75067754D01*
X132118586Y-75065824D01*
X132487222Y-75066145D01*
X132825707Y-75067945D01*
X133122981Y-75071048D01*
X133367982Y-75075277D01*
X133549649Y-75080456D01*
X133656920Y-75086409D01*
X133681663Y-75090743D01*
X133654527Y-75127525D01*
X133570581Y-75228866D01*
X133434348Y-75389591D01*
X133250352Y-75604522D01*
X133023117Y-75868485D01*
X132757166Y-76176304D01*
X132457024Y-76522802D01*
X132127215Y-76902804D01*
X131772261Y-77311133D01*
X131396687Y-77742613D01*
X131005017Y-78192070D01*
X130601774Y-78654326D01*
X130191482Y-79124206D01*
X129778665Y-79596533D01*
X129367846Y-80066133D01*
X128963550Y-80527828D01*
X128570300Y-80976443D01*
X128192619Y-81406802D01*
X127835033Y-81813729D01*
X127502064Y-82192049D01*
X127198236Y-82536584D01*
X126928073Y-82842160D01*
X126696099Y-83103599D01*
X126506837Y-83315727D01*
X126364812Y-83473368D01*
X126274547Y-83571344D01*
X126240677Y-83604486D01*
X126207690Y-83570572D01*
X126117221Y-83471078D01*
X125973023Y-83310248D01*
X125778848Y-83092324D01*
X125538449Y-82821552D01*
X125255577Y-82502174D01*
X124933986Y-82138434D01*
X124577427Y-81734575D01*
X124189654Y-81294840D01*
X123774417Y-80823473D01*
X123335470Y-80324719D01*
X122876566Y-79802819D01*
X122502651Y-79377244D01*
X122030446Y-78839419D01*
X121575378Y-78320727D01*
X121141197Y-77825465D01*
X120731655Y-77357926D01*
X120350501Y-76922405D01*
X120001488Y-76523198D01*
X119688366Y-76164600D01*
X119414886Y-75850905D01*
X119184798Y-75586408D01*
X119001853Y-75375405D01*
X118869803Y-75222190D01*
X118792398Y-75131059D01*
X118772365Y-75105824D01*
X118815785Y-75099759D01*
X118947795Y-75094049D01*
X119164112Y-75088729D01*
X119460456Y-75083832D01*
X119832546Y-75079392D01*
X120276101Y-75075442D01*
X120786841Y-75072014D01*
X121360484Y-75069144D01*
X121992749Y-75066863D01*
X122679356Y-75065206D01*
X123416024Y-75064206D01*
X124147228Y-75063894D01*
X124846421Y-75064126D01*
G37*
X124846421Y-75064126D02*
X125519207Y-75064803D01*
X126159814Y-75065896D01*
X126762474Y-75067375D01*
X127321416Y-75069210D01*
X127830870Y-75071372D01*
X128285065Y-75073831D01*
X128678233Y-75076559D01*
X129004602Y-75079525D01*
X129258403Y-75082700D01*
X129433865Y-75086055D01*
X129525220Y-75089561D01*
X129537569Y-75091427D01*
X129505843Y-75128385D01*
X129414274Y-75225854D01*
X129268277Y-75378267D01*
X129073264Y-75580057D01*
X128834649Y-75825655D01*
X128557846Y-76109494D01*
X128248268Y-76426007D01*
X127911329Y-76769625D01*
X127552444Y-77134781D01*
X127413163Y-77276279D01*
X127044922Y-77651222D01*
X126694989Y-78009454D01*
X126369013Y-78345066D01*
X126072644Y-78652152D01*
X125811529Y-78924805D01*
X125591319Y-79157116D01*
X125417661Y-79343179D01*
X125296206Y-79477087D01*
X125232601Y-79552931D01*
X125225216Y-79564318D01*
X125193827Y-79717760D01*
X125238303Y-79857579D01*
X125341752Y-79965621D01*
X125487279Y-80023735D01*
X125646364Y-80016864D01*
X125700610Y-79978244D01*
X125815798Y-79875978D01*
X125988544Y-79713400D01*
X126215462Y-79493848D01*
X126493167Y-79220657D01*
X126818273Y-78897164D01*
X127187395Y-78526705D01*
X127597148Y-78112617D01*
X128044147Y-77658235D01*
X128171990Y-77527845D01*
X130582359Y-75067754D01*
X132118586Y-75065824D01*
X132487222Y-75066145D01*
X132825707Y-75067945D01*
X133122981Y-75071048D01*
X133367982Y-75075277D01*
X133549649Y-75080456D01*
X133656920Y-75086409D01*
X133681663Y-75090743D01*
X133654527Y-75127525D01*
X133570581Y-75228866D01*
X133434348Y-75389591D01*
X133250352Y-75604522D01*
X133023117Y-75868485D01*
X132757166Y-76176304D01*
X132457024Y-76522802D01*
X132127215Y-76902804D01*
X131772261Y-77311133D01*
X131396687Y-77742613D01*
X131005017Y-78192070D01*
X130601774Y-78654326D01*
X130191482Y-79124206D01*
X129778665Y-79596533D01*
X129367846Y-80066133D01*
X128963550Y-80527828D01*
X128570300Y-80976443D01*
X128192619Y-81406802D01*
X127835033Y-81813729D01*
X127502064Y-82192049D01*
X127198236Y-82536584D01*
X126928073Y-82842160D01*
X126696099Y-83103599D01*
X126506837Y-83315727D01*
X126364812Y-83473368D01*
X126274547Y-83571344D01*
X126240677Y-83604486D01*
X126207690Y-83570572D01*
X126117221Y-83471078D01*
X125973023Y-83310248D01*
X125778848Y-83092324D01*
X125538449Y-82821552D01*
X125255577Y-82502174D01*
X124933986Y-82138434D01*
X124577427Y-81734575D01*
X124189654Y-81294840D01*
X123774417Y-80823473D01*
X123335470Y-80324719D01*
X122876566Y-79802819D01*
X122502651Y-79377244D01*
X122030446Y-78839419D01*
X121575378Y-78320727D01*
X121141197Y-77825465D01*
X120731655Y-77357926D01*
X120350501Y-76922405D01*
X120001488Y-76523198D01*
X119688366Y-76164600D01*
X119414886Y-75850905D01*
X119184798Y-75586408D01*
X119001853Y-75375405D01*
X118869803Y-75222190D01*
X118792398Y-75131059D01*
X118772365Y-75105824D01*
X118815785Y-75099759D01*
X118947795Y-75094049D01*
X119164112Y-75088729D01*
X119460456Y-75083832D01*
X119832546Y-75079392D01*
X120276101Y-75075442D01*
X120786841Y-75072014D01*
X121360484Y-75069144D01*
X121992749Y-75066863D01*
X122679356Y-75065206D01*
X123416024Y-75064206D01*
X124147228Y-75063894D01*
X124846421Y-75064126D01*
G36*
X146218804Y-73749223D02*
G01*
X146230987Y-75458592D01*
X147784872Y-75481810D01*
X149338757Y-75505027D01*
X147391865Y-77522467D01*
X146799817Y-77523711D01*
X146207770Y-77524954D01*
X146207770Y-83561517D01*
X144257496Y-83561517D01*
X144257496Y-77738157D01*
X144861152Y-77128528D01*
X145089368Y-76894812D01*
X145256499Y-76715344D01*
X145369739Y-76581424D01*
X145436282Y-76484348D01*
X145463322Y-76415415D01*
X145464808Y-76398369D01*
X145425103Y-76252031D01*
X145316292Y-76158684D01*
X145182647Y-76131901D01*
X145124970Y-76142555D01*
X145050336Y-76179319D01*
X144949542Y-76249400D01*
X144813387Y-76360001D01*
X144632671Y-76518330D01*
X144398193Y-76731590D01*
X144293192Y-76828428D01*
X143539959Y-77524954D01*
X142536631Y-77524954D01*
X142240585Y-77523735D01*
X141976608Y-77520322D01*
X141758566Y-77515087D01*
X141600327Y-77508400D01*
X141515757Y-77500631D01*
X141505783Y-77497435D01*
X141528424Y-77457134D01*
X141605553Y-77355878D01*
X141730075Y-77202220D01*
X141894890Y-77004717D01*
X142092900Y-76771924D01*
X142317007Y-76512396D01*
X142440040Y-76371384D01*
X142774726Y-75988925D01*
X143121201Y-75592654D01*
X143473667Y-75189229D01*
X143826322Y-74785309D01*
X144173366Y-74387552D01*
X144508998Y-74002617D01*
X144827419Y-73637163D01*
X145122829Y-73297847D01*
X145389426Y-72991328D01*
X145621411Y-72724266D01*
X145812983Y-72503318D01*
X145958342Y-72335143D01*
X146051687Y-72226399D01*
X146079498Y-72193438D01*
X146206620Y-72039855D01*
X146218804Y-73749223D01*
G37*
X146218804Y-73749223D02*
X146230987Y-75458592D01*
X147784872Y-75481810D01*
X149338757Y-75505027D01*
X147391865Y-77522467D01*
X146799817Y-77523711D01*
X146207770Y-77524954D01*
X146207770Y-83561517D01*
X144257496Y-83561517D01*
X144257496Y-77738157D01*
X144861152Y-77128528D01*
X145089368Y-76894812D01*
X145256499Y-76715344D01*
X145369739Y-76581424D01*
X145436282Y-76484348D01*
X145463322Y-76415415D01*
X145464808Y-76398369D01*
X145425103Y-76252031D01*
X145316292Y-76158684D01*
X145182647Y-76131901D01*
X145124970Y-76142555D01*
X145050336Y-76179319D01*
X144949542Y-76249400D01*
X144813387Y-76360001D01*
X144632671Y-76518330D01*
X144398193Y-76731590D01*
X144293192Y-76828428D01*
X143539959Y-77524954D01*
X142536631Y-77524954D01*
X142240585Y-77523735D01*
X141976608Y-77520322D01*
X141758566Y-77515087D01*
X141600327Y-77508400D01*
X141515757Y-77500631D01*
X141505783Y-77497435D01*
X141528424Y-77457134D01*
X141605553Y-77355878D01*
X141730075Y-77202220D01*
X141894890Y-77004717D01*
X142092900Y-76771924D01*
X142317007Y-76512396D01*
X142440040Y-76371384D01*
X142774726Y-75988925D01*
X143121201Y-75592654D01*
X143473667Y-75189229D01*
X143826322Y-74785309D01*
X144173366Y-74387552D01*
X144508998Y-74002617D01*
X144827419Y-73637163D01*
X145122829Y-73297847D01*
X145389426Y-72991328D01*
X145621411Y-72724266D01*
X145812983Y-72503318D01*
X145958342Y-72335143D01*
X146051687Y-72226399D01*
X146079498Y-72193438D01*
X146206620Y-72039855D01*
X146218804Y-73749223D01*
G36*
X149098900Y-77433265D02*
G01*
X149379686Y-77436586D01*
X149614715Y-77441711D01*
X149791428Y-77448307D01*
X149897267Y-77456038D01*
X149922578Y-77462390D01*
X149891361Y-77502487D01*
X149803582Y-77599262D01*
X149668046Y-77743424D01*
X149493558Y-77925683D01*
X149288924Y-78136749D01*
X149115469Y-78313954D01*
X148890734Y-78545354D01*
X148687423Y-78759890D01*
X148514898Y-78947260D01*
X148382521Y-79097164D01*
X148299656Y-79199300D01*
X148275786Y-79237841D01*
X148274236Y-79375294D01*
X148346135Y-79490017D01*
X148472066Y-79558521D01*
X148548770Y-79568099D01*
X148596715Y-79563525D01*
X148649025Y-79545278D01*
X148713260Y-79506568D01*
X148796978Y-79440603D01*
X148907741Y-79340594D01*
X149053108Y-79199751D01*
X149240638Y-79011283D01*
X149477893Y-78768400D01*
X149737841Y-78500091D01*
X150770504Y-77432084D01*
X151832464Y-77432084D01*
X152135175Y-77433535D01*
X152404108Y-77437605D01*
X152626300Y-77443866D01*
X152788785Y-77451894D01*
X152878598Y-77461261D01*
X152892320Y-77466910D01*
X152862718Y-77509702D01*
X152780011Y-77613834D01*
X152651692Y-77770274D01*
X152485255Y-77969987D01*
X152288193Y-78203939D01*
X152068000Y-78463098D01*
X151996742Y-78546527D01*
X151103268Y-79591316D01*
X149597532Y-79616834D01*
X149597532Y-83561517D01*
X147647258Y-83561517D01*
X147647258Y-77432084D01*
X148784918Y-77432084D01*
X149098900Y-77433265D01*
G37*
X149098900Y-77433265D02*
X149379686Y-77436586D01*
X149614715Y-77441711D01*
X149791428Y-77448307D01*
X149897267Y-77456038D01*
X149922578Y-77462390D01*
X149891361Y-77502487D01*
X149803582Y-77599262D01*
X149668046Y-77743424D01*
X149493558Y-77925683D01*
X149288924Y-78136749D01*
X149115469Y-78313954D01*
X148890734Y-78545354D01*
X148687423Y-78759890D01*
X148514898Y-78947260D01*
X148382521Y-79097164D01*
X148299656Y-79199300D01*
X148275786Y-79237841D01*
X148274236Y-79375294D01*
X148346135Y-79490017D01*
X148472066Y-79558521D01*
X148548770Y-79568099D01*
X148596715Y-79563525D01*
X148649025Y-79545278D01*
X148713260Y-79506568D01*
X148796978Y-79440603D01*
X148907741Y-79340594D01*
X149053108Y-79199751D01*
X149240638Y-79011283D01*
X149477893Y-78768400D01*
X149737841Y-78500091D01*
X150770504Y-77432084D01*
X151832464Y-77432084D01*
X152135175Y-77433535D01*
X152404108Y-77437605D01*
X152626300Y-77443866D01*
X152788785Y-77451894D01*
X152878598Y-77461261D01*
X152892320Y-77466910D01*
X152862718Y-77509702D01*
X152780011Y-77613834D01*
X152651692Y-77770274D01*
X152485255Y-77969987D01*
X152288193Y-78203939D01*
X152068000Y-78463098D01*
X151996742Y-78546527D01*
X151103268Y-79591316D01*
X149597532Y-79616834D01*
X149597532Y-83561517D01*
X147647258Y-83561517D01*
X147647258Y-77432084D01*
X148784918Y-77432084D01*
X149098900Y-77433265D01*
G36*
X163995575Y-77433586D02*
G01*
X164261245Y-77437794D01*
X164479997Y-77444263D01*
X164638690Y-77452546D01*
X164724184Y-77462197D01*
X164735375Y-77467363D01*
X164706244Y-77509116D01*
X164622988Y-77614008D01*
X164491807Y-77774568D01*
X164318906Y-77983330D01*
X164110487Y-78232825D01*
X163872752Y-78515583D01*
X163611905Y-78824136D01*
X163456695Y-79006999D01*
X162178015Y-80511357D01*
X162288367Y-80631776D01*
X162388052Y-80743500D01*
X162529299Y-80905949D01*
X162704563Y-81110113D01*
X162906298Y-81346979D01*
X163126958Y-81607535D01*
X163358998Y-81882770D01*
X163594872Y-82163671D01*
X163827034Y-82441227D01*
X164047939Y-82706426D01*
X164250041Y-82950255D01*
X164425794Y-83163704D01*
X164567652Y-83337760D01*
X164668071Y-83463412D01*
X164719504Y-83531647D01*
X164724576Y-83541360D01*
X164675439Y-83545194D01*
X164542206Y-83548344D01*
X164333651Y-83550778D01*
X164058544Y-83552463D01*
X163725659Y-83553366D01*
X163343768Y-83553454D01*
X162921643Y-83552695D01*
X162468057Y-83551056D01*
X162316455Y-83550334D01*
X159929342Y-83538300D01*
X160776783Y-82674208D01*
X161004659Y-82439783D01*
X161209358Y-82225228D01*
X161382258Y-82039904D01*
X161514738Y-81893171D01*
X161598179Y-81794391D01*
X161624223Y-81754062D01*
X161597084Y-81653338D01*
X161534614Y-81537833D01*
X161466358Y-81461040D01*
X161417412Y-81436780D01*
X161362699Y-81432544D01*
X161294988Y-81454054D01*
X161207049Y-81507030D01*
X161091651Y-81597194D01*
X160941564Y-81730267D01*
X160749557Y-81911970D01*
X160508401Y-82148024D01*
X160210864Y-82444150D01*
X160161518Y-82493510D01*
X159094268Y-83561517D01*
X158034750Y-83561517D01*
X157660661Y-83559902D01*
X157375050Y-83554915D01*
X157173578Y-83546345D01*
X157051908Y-83533983D01*
X157005702Y-83517619D01*
X157006074Y-83511615D01*
X157041946Y-83466527D01*
X157131607Y-83358449D01*
X157268587Y-83195054D01*
X157446414Y-82984015D01*
X157658617Y-82733007D01*
X157898723Y-82449702D01*
X158160261Y-82141774D01*
X158286581Y-81993270D01*
X158554226Y-81677632D01*
X158801660Y-81383634D01*
X159022672Y-81118818D01*
X159211053Y-80890726D01*
X159360594Y-80706898D01*
X159465084Y-80574877D01*
X159518315Y-80502203D01*
X159523837Y-80490619D01*
X159492007Y-80449055D01*
X159406177Y-80344385D01*
X159272660Y-80184123D01*
X159097773Y-79975781D01*
X158887830Y-79726871D01*
X158649145Y-79444906D01*
X158388036Y-79137398D01*
X158246070Y-78970572D01*
X157976323Y-78653217D01*
X157726227Y-78357811D01*
X157502019Y-78091808D01*
X157309938Y-77862664D01*
X157156224Y-77677835D01*
X157047114Y-77544777D01*
X156988848Y-77470944D01*
X156980713Y-77458409D01*
X157025706Y-77453333D01*
X157154912Y-77448579D01*
X157359677Y-77444242D01*
X157631344Y-77440418D01*
X157961258Y-77437201D01*
X158340762Y-77434686D01*
X158761202Y-77432969D01*
X159213921Y-77432144D01*
X159375991Y-77432084D01*
X159950110Y-77432943D01*
X160450638Y-77435484D01*
X160874616Y-77439650D01*
X161219082Y-77445385D01*
X161481077Y-77452633D01*
X161657639Y-77461339D01*
X161745810Y-77471445D01*
X161755789Y-77477115D01*
X161720546Y-77521743D01*
X161629604Y-77623495D01*
X161491873Y-77772782D01*
X161316266Y-77960016D01*
X161111692Y-78175608D01*
X160939306Y-78355669D01*
X160672534Y-78635263D01*
X160466169Y-78857890D01*
X160314765Y-79032071D01*
X160212878Y-79166327D01*
X160155064Y-79269179D01*
X160135879Y-79349147D01*
X160149878Y-79414753D01*
X160191617Y-79474517D01*
X160211270Y-79495129D01*
X160267169Y-79544304D01*
X160323888Y-79572515D01*
X160388704Y-79574542D01*
X160468893Y-79545163D01*
X160571732Y-79479156D01*
X160704498Y-79371301D01*
X160874469Y-79216375D01*
X161088920Y-79009158D01*
X161355128Y-78744427D01*
X161597990Y-78500091D01*
X162656881Y-77432084D01*
X163696128Y-77432084D01*
X163995575Y-77433586D01*
G37*
X163995575Y-77433586D02*
X164261245Y-77437794D01*
X164479997Y-77444263D01*
X164638690Y-77452546D01*
X164724184Y-77462197D01*
X164735375Y-77467363D01*
X164706244Y-77509116D01*
X164622988Y-77614008D01*
X164491807Y-77774568D01*
X164318906Y-77983330D01*
X164110487Y-78232825D01*
X163872752Y-78515583D01*
X163611905Y-78824136D01*
X163456695Y-79006999D01*
X162178015Y-80511357D01*
X162288367Y-80631776D01*
X162388052Y-80743500D01*
X162529299Y-80905949D01*
X162704563Y-81110113D01*
X162906298Y-81346979D01*
X163126958Y-81607535D01*
X163358998Y-81882770D01*
X163594872Y-82163671D01*
X163827034Y-82441227D01*
X164047939Y-82706426D01*
X164250041Y-82950255D01*
X164425794Y-83163704D01*
X164567652Y-83337760D01*
X164668071Y-83463412D01*
X164719504Y-83531647D01*
X164724576Y-83541360D01*
X164675439Y-83545194D01*
X164542206Y-83548344D01*
X164333651Y-83550778D01*
X164058544Y-83552463D01*
X163725659Y-83553366D01*
X163343768Y-83553454D01*
X162921643Y-83552695D01*
X162468057Y-83551056D01*
X162316455Y-83550334D01*
X159929342Y-83538300D01*
X160776783Y-82674208D01*
X161004659Y-82439783D01*
X161209358Y-82225228D01*
X161382258Y-82039904D01*
X161514738Y-81893171D01*
X161598179Y-81794391D01*
X161624223Y-81754062D01*
X161597084Y-81653338D01*
X161534614Y-81537833D01*
X161466358Y-81461040D01*
X161417412Y-81436780D01*
X161362699Y-81432544D01*
X161294988Y-81454054D01*
X161207049Y-81507030D01*
X161091651Y-81597194D01*
X160941564Y-81730267D01*
X160749557Y-81911970D01*
X160508401Y-82148024D01*
X160210864Y-82444150D01*
X160161518Y-82493510D01*
X159094268Y-83561517D01*
X158034750Y-83561517D01*
X157660661Y-83559902D01*
X157375050Y-83554915D01*
X157173578Y-83546345D01*
X157051908Y-83533983D01*
X157005702Y-83517619D01*
X157006074Y-83511615D01*
X157041946Y-83466527D01*
X157131607Y-83358449D01*
X157268587Y-83195054D01*
X157446414Y-82984015D01*
X157658617Y-82733007D01*
X157898723Y-82449702D01*
X158160261Y-82141774D01*
X158286581Y-81993270D01*
X158554226Y-81677632D01*
X158801660Y-81383634D01*
X159022672Y-81118818D01*
X159211053Y-80890726D01*
X159360594Y-80706898D01*
X159465084Y-80574877D01*
X159518315Y-80502203D01*
X159523837Y-80490619D01*
X159492007Y-80449055D01*
X159406177Y-80344385D01*
X159272660Y-80184123D01*
X159097773Y-79975781D01*
X158887830Y-79726871D01*
X158649145Y-79444906D01*
X158388036Y-79137398D01*
X158246070Y-78970572D01*
X157976323Y-78653217D01*
X157726227Y-78357811D01*
X157502019Y-78091808D01*
X157309938Y-77862664D01*
X157156224Y-77677835D01*
X157047114Y-77544777D01*
X156988848Y-77470944D01*
X156980713Y-77458409D01*
X157025706Y-77453333D01*
X157154912Y-77448579D01*
X157359677Y-77444242D01*
X157631344Y-77440418D01*
X157961258Y-77437201D01*
X158340762Y-77434686D01*
X158761202Y-77432969D01*
X159213921Y-77432144D01*
X159375991Y-77432084D01*
X159950110Y-77432943D01*
X160450638Y-77435484D01*
X160874616Y-77439650D01*
X161219082Y-77445385D01*
X161481077Y-77452633D01*
X161657639Y-77461339D01*
X161745810Y-77471445D01*
X161755789Y-77477115D01*
X161720546Y-77521743D01*
X161629604Y-77623495D01*
X161491873Y-77772782D01*
X161316266Y-77960016D01*
X161111692Y-78175608D01*
X160939306Y-78355669D01*
X160672534Y-78635263D01*
X160466169Y-78857890D01*
X160314765Y-79032071D01*
X160212878Y-79166327D01*
X160155064Y-79269179D01*
X160135879Y-79349147D01*
X160149878Y-79414753D01*
X160191617Y-79474517D01*
X160211270Y-79495129D01*
X160267169Y-79544304D01*
X160323888Y-79572515D01*
X160388704Y-79574542D01*
X160468893Y-79545163D01*
X160571732Y-79479156D01*
X160704498Y-79371301D01*
X160874469Y-79216375D01*
X161088920Y-79009158D01*
X161355128Y-78744427D01*
X161597990Y-78500091D01*
X162656881Y-77432084D01*
X163696128Y-77432084D01*
X163995575Y-77433586D01*
D11*
G36*
X117700000Y-127800000D02*
G01*
X165700000Y-127800000D01*
X165700000Y-136800000D01*
X117700000Y-136800000D01*
X117700000Y-127800000D01*
G37*
X117700000Y-127800000D02*
X165700000Y-127800000D01*
X165700000Y-136800000D01*
X117700000Y-136800000D01*
X117700000Y-127800000D01*
G36*
X158830491Y-93198079D02*
G01*
X158811732Y-93192388D01*
X158794443Y-93183147D01*
X158779289Y-93170711D01*
X158766853Y-93155557D01*
X158757612Y-93138268D01*
X158751921Y-93119509D01*
X158750000Y-93100000D01*
X158750000Y-91600000D01*
X158751921Y-91580491D01*
X158757612Y-91561732D01*
X158766853Y-91544443D01*
X158779289Y-91529289D01*
X158794443Y-91516853D01*
X158811732Y-91507612D01*
X158830491Y-91501921D01*
X158850000Y-91500000D01*
X159400000Y-91500000D01*
X159406114Y-91500602D01*
X159424534Y-91500602D01*
X159434337Y-91501084D01*
X159483168Y-91505894D01*
X159492873Y-91507333D01*
X159540998Y-91516905D01*
X159550519Y-91519290D01*
X159597474Y-91533534D01*
X159606712Y-91536840D01*
X159652045Y-91555617D01*
X159660919Y-91559814D01*
X159704192Y-91582945D01*
X159712607Y-91587988D01*
X159753406Y-91615248D01*
X159761290Y-91621095D01*
X159799219Y-91652223D01*
X159806490Y-91658813D01*
X159841187Y-91693510D01*
X159847777Y-91700781D01*
X159878905Y-91738710D01*
X159884752Y-91746594D01*
X159912012Y-91787393D01*
X159917055Y-91795808D01*
X159940186Y-91839081D01*
X159944383Y-91847955D01*
X159963160Y-91893288D01*
X159966466Y-91902526D01*
X159980710Y-91949481D01*
X159983095Y-91959002D01*
X159992667Y-92007127D01*
X159994106Y-92016832D01*
X159998916Y-92065663D01*
X159999398Y-92075466D01*
X159999398Y-92093886D01*
X160000000Y-92100000D01*
X160000000Y-92600000D01*
X159999398Y-92606114D01*
X159999398Y-92624534D01*
X159998916Y-92634337D01*
X159994106Y-92683168D01*
X159992667Y-92692873D01*
X159983095Y-92740998D01*
X159980710Y-92750519D01*
X159966466Y-92797474D01*
X159963160Y-92806712D01*
X159944383Y-92852045D01*
X159940186Y-92860919D01*
X159917055Y-92904192D01*
X159912012Y-92912607D01*
X159884752Y-92953406D01*
X159878905Y-92961290D01*
X159847777Y-92999219D01*
X159841187Y-93006490D01*
X159806490Y-93041187D01*
X159799219Y-93047777D01*
X159761290Y-93078905D01*
X159753406Y-93084752D01*
X159712607Y-93112012D01*
X159704192Y-93117055D01*
X159660919Y-93140186D01*
X159652045Y-93144383D01*
X159606712Y-93163160D01*
X159597474Y-93166466D01*
X159550519Y-93180710D01*
X159540998Y-93183095D01*
X159492873Y-93192667D01*
X159483168Y-93194106D01*
X159434337Y-93198916D01*
X159424534Y-93199398D01*
X159406114Y-93199398D01*
X159400000Y-93200000D01*
X158850000Y-93200000D01*
X158830491Y-93198079D01*
G37*
D12*
X158100000Y-92350000D03*
D11*
G36*
X156793886Y-93199398D02*
G01*
X156775466Y-93199398D01*
X156765663Y-93198916D01*
X156716832Y-93194106D01*
X156707127Y-93192667D01*
X156659002Y-93183095D01*
X156649481Y-93180710D01*
X156602526Y-93166466D01*
X156593288Y-93163160D01*
X156547955Y-93144383D01*
X156539081Y-93140186D01*
X156495808Y-93117055D01*
X156487393Y-93112012D01*
X156446594Y-93084752D01*
X156438710Y-93078905D01*
X156400781Y-93047777D01*
X156393510Y-93041187D01*
X156358813Y-93006490D01*
X156352223Y-92999219D01*
X156321095Y-92961290D01*
X156315248Y-92953406D01*
X156287988Y-92912607D01*
X156282945Y-92904192D01*
X156259814Y-92860919D01*
X156255617Y-92852045D01*
X156236840Y-92806712D01*
X156233534Y-92797474D01*
X156219290Y-92750519D01*
X156216905Y-92740998D01*
X156207333Y-92692873D01*
X156205894Y-92683168D01*
X156201084Y-92634337D01*
X156200602Y-92624534D01*
X156200602Y-92606114D01*
X156200000Y-92600000D01*
X156200000Y-92100000D01*
X156200602Y-92093886D01*
X156200602Y-92075466D01*
X156201084Y-92065663D01*
X156205894Y-92016832D01*
X156207333Y-92007127D01*
X156216905Y-91959002D01*
X156219290Y-91949481D01*
X156233534Y-91902526D01*
X156236840Y-91893288D01*
X156255617Y-91847955D01*
X156259814Y-91839081D01*
X156282945Y-91795808D01*
X156287988Y-91787393D01*
X156315248Y-91746594D01*
X156321095Y-91738710D01*
X156352223Y-91700781D01*
X156358813Y-91693510D01*
X156393510Y-91658813D01*
X156400781Y-91652223D01*
X156438710Y-91621095D01*
X156446594Y-91615248D01*
X156487393Y-91587988D01*
X156495808Y-91582945D01*
X156539081Y-91559814D01*
X156547955Y-91555617D01*
X156593288Y-91536840D01*
X156602526Y-91533534D01*
X156649481Y-91519290D01*
X156659002Y-91516905D01*
X156707127Y-91507333D01*
X156716832Y-91505894D01*
X156765663Y-91501084D01*
X156775466Y-91500602D01*
X156793886Y-91500602D01*
X156800000Y-91500000D01*
X157350000Y-91500000D01*
X157369509Y-91501921D01*
X157388268Y-91507612D01*
X157405557Y-91516853D01*
X157420711Y-91529289D01*
X157433147Y-91544443D01*
X157442388Y-91561732D01*
X157448079Y-91580491D01*
X157450000Y-91600000D01*
X157450000Y-93100000D01*
X157448079Y-93119509D01*
X157442388Y-93138268D01*
X157433147Y-93155557D01*
X157420711Y-93170711D01*
X157405557Y-93183147D01*
X157388268Y-93192388D01*
X157369509Y-93198079D01*
X157350000Y-93200000D01*
X156800000Y-93200000D01*
X156793886Y-93199398D01*
G37*
D13*
X163900000Y-107700000D03*
G36*
G01*
X164575000Y-105810000D02*
X163225000Y-105810000D01*
G75*
G02*
X162900000Y-105485000I0J325000D01*
G01*
X162900000Y-104835000D01*
G75*
G02*
X163225000Y-104510000I325000J0D01*
G01*
X164575000Y-104510000D01*
G75*
G02*
X164900000Y-104835000I0J-325000D01*
G01*
X164900000Y-105485000D01*
G75*
G02*
X164575000Y-105810000I-325000J0D01*
G01*
G37*
G36*
G01*
X162505000Y-107080000D02*
X161155000Y-107080000D01*
G75*
G02*
X160830000Y-106755000I0J325000D01*
G01*
X160830000Y-106105000D01*
G75*
G02*
X161155000Y-105780000I325000J0D01*
G01*
X162505000Y-105780000D01*
G75*
G02*
X162830000Y-106105000I0J-325000D01*
G01*
X162830000Y-106755000D01*
G75*
G02*
X162505000Y-107080000I-325000J0D01*
G01*
G37*
D14*
X158100000Y-110890000D03*
X125080000Y-95650000D03*
X155560000Y-110890000D03*
X127620000Y-95650000D03*
X153020000Y-110890000D03*
X130160000Y-95650000D03*
X150480000Y-110890000D03*
X132700000Y-95650000D03*
X147940000Y-110890000D03*
X135240000Y-95650000D03*
X145400000Y-110890000D03*
X137780000Y-95650000D03*
X142860000Y-110890000D03*
X140320000Y-95650000D03*
X140320000Y-110890000D03*
X142860000Y-95650000D03*
X137780000Y-110890000D03*
X145400000Y-95650000D03*
X135240000Y-110890000D03*
X147940000Y-95650000D03*
X132700000Y-110890000D03*
X150480000Y-95650000D03*
X130160000Y-110890000D03*
X153020000Y-95650000D03*
X127620000Y-110890000D03*
X155560000Y-95650000D03*
X125080000Y-110890000D03*
D15*
X158100000Y-95650000D03*
G36*
G01*
X162700000Y-95606523D02*
X162700000Y-94593477D01*
G75*
G02*
X162993477Y-94300000I293477J0D01*
G01*
X163756523Y-94300000D01*
G75*
G02*
X164050000Y-94593477I0J-293477D01*
G01*
X164050000Y-95606523D01*
G75*
G02*
X163756523Y-95900000I-293477J0D01*
G01*
X162993477Y-95900000D01*
G75*
G02*
X162700000Y-95606523I0J293477D01*
G01*
G37*
G36*
G01*
X160650000Y-95606523D02*
X160650000Y-94593477D01*
G75*
G02*
X160943477Y-94300000I293477J0D01*
G01*
X161706523Y-94300000D01*
G75*
G02*
X162000000Y-94593477I0J-293477D01*
G01*
X162000000Y-95606523D01*
G75*
G02*
X161706523Y-95900000I-293477J0D01*
G01*
X160943477Y-95900000D01*
G75*
G02*
X160650000Y-95606523I0J293477D01*
G01*
G37*
D16*
X129700000Y-87600000D03*
X153700000Y-87600000D03*
D17*
X121700000Y-117600000D03*
D18*
X141700000Y-117600000D03*
D17*
X161700000Y-117600000D03*
G36*
G01*
X160300000Y-111406523D02*
X160300000Y-110393477D01*
G75*
G02*
X160593477Y-110100000I293477J0D01*
G01*
X161356523Y-110100000D01*
G75*
G02*
X161650000Y-110393477I0J-293477D01*
G01*
X161650000Y-111406523D01*
G75*
G02*
X161356523Y-111700000I-293477J0D01*
G01*
X160593477Y-111700000D01*
G75*
G02*
X160300000Y-111406523I0J293477D01*
G01*
G37*
G36*
G01*
X162350000Y-111406523D02*
X162350000Y-110393477D01*
G75*
G02*
X162643477Y-110100000I293477J0D01*
G01*
X163406523Y-110100000D01*
G75*
G02*
X163700000Y-110393477I0J-293477D01*
G01*
X163700000Y-111406523D01*
G75*
G02*
X163406523Y-111700000I-293477J0D01*
G01*
X162643477Y-111700000D01*
G75*
G02*
X162350000Y-111406523I0J293477D01*
G01*
G37*
D19*
X120110000Y-131200000D03*
X122650000Y-131200000D03*
X125190000Y-131200000D03*
X127730000Y-131200000D03*
X130270000Y-131200000D03*
X132810000Y-131200000D03*
X135350000Y-131200000D03*
X137890000Y-131200000D03*
X140430000Y-131200000D03*
X142970000Y-131200000D03*
X145510000Y-131200000D03*
X148050000Y-131200000D03*
X150590000Y-131200000D03*
X153130000Y-131200000D03*
X155670000Y-131200000D03*
X158210000Y-131200000D03*
X160750000Y-131200000D03*
X163290000Y-131200000D03*
M02*
