M48
; DRILL file {KiCad (5.1.6-0)} date Saturday, June 20, 2020 at 11:38:14 PM
; FORMAT={-:-/ absolute / inch / decimal}
; #@! TF.CreationDate,2020-06-20T23:38:14-05:00
; #@! TF.GenerationSoftware,Kicad,Pcbnew,(5.1.6-0)
FMAT,2
INCH
T1C0.0200
T2C0.0295
T3C0.0315
T4C0.1457
T5C0.1654
T6C0.2047
%
G90
G05
T1
X4.8346Y-4.4311
X4.9744Y-4.4587
X5.0276Y-4.9331
X5.1287Y-4.9319
X6.0846Y-3.6358
T2
X6.387Y-4.1902
X6.437Y-4.1402
X6.437Y-4.2402
T3
X4.9244Y-3.7657
X4.9244Y-4.3657
X5.0244Y-3.7657
X5.0244Y-4.3657
X5.1244Y-3.7657
X5.1244Y-4.3657
X5.2244Y-3.7657
X5.2244Y-4.3657
X5.3244Y-3.7657
X5.3244Y-4.3657
X5.4244Y-3.7657
X5.4244Y-4.3657
X5.5244Y-3.7657
X5.5244Y-4.3657
X5.6244Y-3.7657
X5.6244Y-4.3657
X5.7244Y-3.7657
X5.7244Y-4.3657
X5.8244Y-3.7657
X5.8244Y-4.3657
X5.9244Y-3.7657
X5.9244Y-4.3657
X6.0244Y-3.7657
X6.0244Y-4.3657
X6.1244Y-3.7657
X6.1244Y-4.3657
X6.2244Y-3.7657
X6.2244Y-4.3657
T4
X4.7913Y-4.6299
X6.3661Y-4.6299
T5
X6.0512Y-3.4488
X5.1063Y-3.4488
T6
X5.5787Y-4.6299
T0
M30
