G04 #@! TF.GenerationSoftware,KiCad,Pcbnew,(5.1.6-0)*
G04 #@! TF.CreationDate,2020-06-20T23:38:09-05:00*
G04 #@! TF.ProjectId,vectrex-cartridge,76656374-7265-4782-9d63-617274726964,v1.0*
G04 #@! TF.SameCoordinates,Original*
G04 #@! TF.FileFunction,Legend,Top*
G04 #@! TF.FilePolarity,Positive*
%FSLAX46Y46*%
G04 Gerber Fmt 4.6, Leading zero omitted, Abs format (unit mm)*
G04 Created by KiCad (PCBNEW (5.1.6-0)) date 2020-06-20 23:38:09*
%MOMM*%
%LPD*%
G01*
G04 APERTURE LIST*
%ADD10C,0.120000*%
%ADD11C,0.150000*%
G04 APERTURE END LIST*
D10*
X160150000Y-92650000D02*
G75*
G02*
X159450000Y-93350000I-700000J0D01*
G01*
X159450000Y-91350000D02*
G75*
G02*
X160150000Y-92050000I0J-700000D01*
G01*
X156050000Y-92050000D02*
G75*
G02*
X156750000Y-91350000I700000J0D01*
G01*
X156750000Y-93350000D02*
G75*
G02*
X156050000Y-92650000I0J700000D01*
G01*
X159500000Y-93350000D02*
X156700000Y-93350000D01*
X156050000Y-92650000D02*
X156050000Y-92050000D01*
X156700000Y-91350000D02*
X159500000Y-91350000D01*
X160150000Y-92050000D02*
X160150000Y-92650000D01*
X165327684Y-104621555D02*
G75*
G03*
X161050000Y-105650000I-1827684J-1808445D01*
G01*
X165342156Y-108241453D02*
G75*
G02*
X161050000Y-107250000I-1842156J1811453D01*
G01*
X165350000Y-108230000D02*
X165350000Y-104630000D01*
X159430000Y-104270000D02*
G75*
G02*
X159430000Y-102270000I0J1000000D01*
G01*
X159430000Y-102270000D02*
X159430000Y-96810000D01*
X159430000Y-96810000D02*
X123750000Y-96810000D01*
X123750000Y-96810000D02*
X123750000Y-109730000D01*
X123750000Y-109730000D02*
X159430000Y-109730000D01*
X159430000Y-109730000D02*
X159430000Y-104270000D01*
X162088748Y-94390000D02*
X162611252Y-94390000D01*
X162088748Y-95810000D02*
X162611252Y-95810000D01*
X161738748Y-111610000D02*
X162261252Y-111610000D01*
X161738748Y-110190000D02*
X162261252Y-110190000D01*
D11*
X157216666Y-90102380D02*
X157216666Y-90816666D01*
X157169047Y-90959523D01*
X157073809Y-91054761D01*
X156930952Y-91102380D01*
X156835714Y-91102380D01*
X157692857Y-91102380D02*
X157692857Y-90102380D01*
X158073809Y-90102380D01*
X158169047Y-90150000D01*
X158216666Y-90197619D01*
X158264285Y-90292857D01*
X158264285Y-90435714D01*
X158216666Y-90530952D01*
X158169047Y-90578571D01*
X158073809Y-90626190D01*
X157692857Y-90626190D01*
X159216666Y-91102380D02*
X158645238Y-91102380D01*
X158930952Y-91102380D02*
X158930952Y-90102380D01*
X158835714Y-90245238D01*
X158740476Y-90340476D01*
X158645238Y-90388095D01*
X160985714Y-92802380D02*
X160414285Y-92802380D01*
X160700000Y-92802380D02*
X160700000Y-91802380D01*
X160604761Y-91945238D01*
X160509523Y-92040476D01*
X160414285Y-92088095D01*
X155166666Y-91802380D02*
X155785714Y-91802380D01*
X155452380Y-92183333D01*
X155595238Y-92183333D01*
X155690476Y-92230952D01*
X155738095Y-92278571D01*
X155785714Y-92373809D01*
X155785714Y-92611904D01*
X155738095Y-92707142D01*
X155690476Y-92754761D01*
X155595238Y-92802380D01*
X155309523Y-92802380D01*
X155214285Y-92754761D01*
X155166666Y-92707142D01*
X162668095Y-102482380D02*
X162668095Y-103291904D01*
X162715714Y-103387142D01*
X162763333Y-103434761D01*
X162858571Y-103482380D01*
X163049047Y-103482380D01*
X163144285Y-103434761D01*
X163191904Y-103387142D01*
X163239523Y-103291904D01*
X163239523Y-102482380D01*
X163668095Y-102577619D02*
X163715714Y-102530000D01*
X163810952Y-102482380D01*
X164049047Y-102482380D01*
X164144285Y-102530000D01*
X164191904Y-102577619D01*
X164239523Y-102672857D01*
X164239523Y-102768095D01*
X164191904Y-102910952D01*
X163620476Y-103482380D01*
X164239523Y-103482380D01*
X159888095Y-97052380D02*
X159888095Y-97861904D01*
X159935714Y-97957142D01*
X159983333Y-98004761D01*
X160078571Y-98052380D01*
X160269047Y-98052380D01*
X160364285Y-98004761D01*
X160411904Y-97957142D01*
X160459523Y-97861904D01*
X160459523Y-97052380D01*
X161459523Y-98052380D02*
X160888095Y-98052380D01*
X161173809Y-98052380D02*
X161173809Y-97052380D01*
X161078571Y-97195238D01*
X160983333Y-97290476D01*
X160888095Y-97338095D01*
X162183333Y-93902380D02*
X161850000Y-93426190D01*
X161611904Y-93902380D02*
X161611904Y-92902380D01*
X161992857Y-92902380D01*
X162088095Y-92950000D01*
X162135714Y-92997619D01*
X162183333Y-93092857D01*
X162183333Y-93235714D01*
X162135714Y-93330952D01*
X162088095Y-93378571D01*
X161992857Y-93426190D01*
X161611904Y-93426190D01*
X163135714Y-93902380D02*
X162564285Y-93902380D01*
X162850000Y-93902380D02*
X162850000Y-92902380D01*
X162754761Y-93045238D01*
X162659523Y-93140476D01*
X162564285Y-93188095D01*
X161783333Y-113057142D02*
X161735714Y-113104761D01*
X161592857Y-113152380D01*
X161497619Y-113152380D01*
X161354761Y-113104761D01*
X161259523Y-113009523D01*
X161211904Y-112914285D01*
X161164285Y-112723809D01*
X161164285Y-112580952D01*
X161211904Y-112390476D01*
X161259523Y-112295238D01*
X161354761Y-112200000D01*
X161497619Y-112152380D01*
X161592857Y-112152380D01*
X161735714Y-112200000D01*
X161783333Y-112247619D01*
X162735714Y-113152380D02*
X162164285Y-113152380D01*
X162450000Y-113152380D02*
X162450000Y-112152380D01*
X162354761Y-112295238D01*
X162259523Y-112390476D01*
X162164285Y-112438095D01*
X119300476Y-125064380D02*
X119919523Y-125064380D01*
X119586190Y-125445333D01*
X119729047Y-125445333D01*
X119824285Y-125492952D01*
X119871904Y-125540571D01*
X119919523Y-125635809D01*
X119919523Y-125873904D01*
X119871904Y-125969142D01*
X119824285Y-126016761D01*
X119729047Y-126064380D01*
X119443333Y-126064380D01*
X119348095Y-126016761D01*
X119300476Y-125969142D01*
X120776666Y-125064380D02*
X120586190Y-125064380D01*
X120490952Y-125112000D01*
X120443333Y-125159619D01*
X120348095Y-125302476D01*
X120300476Y-125492952D01*
X120300476Y-125873904D01*
X120348095Y-125969142D01*
X120395714Y-126016761D01*
X120490952Y-126064380D01*
X120681428Y-126064380D01*
X120776666Y-126016761D01*
X120824285Y-125969142D01*
X120871904Y-125873904D01*
X120871904Y-125635809D01*
X120824285Y-125540571D01*
X120776666Y-125492952D01*
X120681428Y-125445333D01*
X120490952Y-125445333D01*
X120395714Y-125492952D01*
X120348095Y-125540571D01*
X120300476Y-125635809D01*
X163004285Y-125159619D02*
X163051904Y-125112000D01*
X163147142Y-125064380D01*
X163385238Y-125064380D01*
X163480476Y-125112000D01*
X163528095Y-125159619D01*
X163575714Y-125254857D01*
X163575714Y-125350095D01*
X163528095Y-125492952D01*
X162956666Y-126064380D01*
X163575714Y-126064380D01*
M02*
