G04 #@! TF.GenerationSoftware,KiCad,Pcbnew,(5.1.6-0)*
G04 #@! TF.CreationDate,2020-06-20T23:38:09-05:00*
G04 #@! TF.ProjectId,vectrex-cartridge,76656374-7265-4782-9d63-617274726964,v1.0*
G04 #@! TF.SameCoordinates,Original*
G04 #@! TF.FileFunction,Copper,L2,Bot*
G04 #@! TF.FilePolarity,Positive*
%FSLAX46Y46*%
G04 Gerber Fmt 4.6, Leading zero omitted, Abs format (unit mm)*
G04 Created by KiCad (PCBNEW (5.1.6-0)) date 2020-06-20 23:38:09*
%MOMM*%
%LPD*%
G01*
G04 APERTURE LIST*
G04 #@! TA.AperFunction,ComponentPad*
%ADD10R,1.800000X1.100000*%
G04 #@! TD*
G04 #@! TA.AperFunction,ComponentPad*
%ADD11O,1.600000X1.600000*%
G04 #@! TD*
G04 #@! TA.AperFunction,ComponentPad*
%ADD12R,1.600000X1.600000*%
G04 #@! TD*
G04 #@! TA.AperFunction,SMDPad,CuDef*
%ADD13O,1.520000X8.800000*%
G04 #@! TD*
G04 #@! TA.AperFunction,ViaPad*
%ADD14C,0.762000*%
G04 #@! TD*
G04 #@! TA.AperFunction,Conductor*
%ADD15C,0.609600*%
G04 #@! TD*
G04 #@! TA.AperFunction,Conductor*
%ADD16C,0.254000*%
G04 #@! TD*
G04 #@! TA.AperFunction,Conductor*
%ADD17C,0.200000*%
G04 #@! TD*
G04 APERTURE END LIST*
D10*
X163900000Y-107700000D03*
G04 #@! TA.AperFunction,ComponentPad*
G36*
G01*
X164525000Y-105710000D02*
X163275000Y-105710000D01*
G75*
G02*
X163000000Y-105435000I0J275000D01*
G01*
X163000000Y-104885000D01*
G75*
G02*
X163275000Y-104610000I275000J0D01*
G01*
X164525000Y-104610000D01*
G75*
G02*
X164800000Y-104885000I0J-275000D01*
G01*
X164800000Y-105435000D01*
G75*
G02*
X164525000Y-105710000I-275000J0D01*
G01*
G37*
G04 #@! TD.AperFunction*
G04 #@! TA.AperFunction,ComponentPad*
G36*
G01*
X162455000Y-106980000D02*
X161205000Y-106980000D01*
G75*
G02*
X160930000Y-106705000I0J275000D01*
G01*
X160930000Y-106155000D01*
G75*
G02*
X161205000Y-105880000I275000J0D01*
G01*
X162455000Y-105880000D01*
G75*
G02*
X162730000Y-106155000I0J-275000D01*
G01*
X162730000Y-106705000D01*
G75*
G02*
X162455000Y-106980000I-275000J0D01*
G01*
G37*
G04 #@! TD.AperFunction*
D11*
X158100000Y-110890000D03*
X125080000Y-95650000D03*
X155560000Y-110890000D03*
X127620000Y-95650000D03*
X153020000Y-110890000D03*
X130160000Y-95650000D03*
X150480000Y-110890000D03*
X132700000Y-95650000D03*
X147940000Y-110890000D03*
X135240000Y-95650000D03*
X145400000Y-110890000D03*
X137780000Y-95650000D03*
X142860000Y-110890000D03*
X140320000Y-95650000D03*
X140320000Y-110890000D03*
X142860000Y-95650000D03*
X137780000Y-110890000D03*
X145400000Y-95650000D03*
X135240000Y-110890000D03*
X147940000Y-95650000D03*
X132700000Y-110890000D03*
X150480000Y-95650000D03*
X130160000Y-110890000D03*
X153020000Y-95650000D03*
X127620000Y-110890000D03*
X155560000Y-95650000D03*
X125080000Y-110890000D03*
D12*
X158100000Y-95650000D03*
D13*
X120110000Y-131200000D03*
X122650000Y-131200000D03*
X125190000Y-131200000D03*
X127730000Y-131200000D03*
X130270000Y-131200000D03*
X132810000Y-131200000D03*
X135350000Y-131200000D03*
X137890000Y-131200000D03*
X140430000Y-131200000D03*
X142970000Y-131200000D03*
X145510000Y-131200000D03*
X148050000Y-131200000D03*
X150590000Y-131200000D03*
X153130000Y-131200000D03*
X155670000Y-131200000D03*
X158210000Y-131200000D03*
X160750000Y-131200000D03*
X163290000Y-131200000D03*
D14*
X130270000Y-125270000D03*
X154550000Y-92350000D03*
X127700000Y-125300002D03*
X126350000Y-113250008D03*
X122800006Y-112549998D03*
D15*
X132810000Y-125410000D02*
X132810000Y-131200000D01*
X130270000Y-122870000D02*
X132810000Y-125410000D01*
X130270000Y-131200000D02*
X130270000Y-125270000D01*
X130270000Y-124330000D02*
X130270000Y-122870000D01*
X128800000Y-113800000D02*
X128800000Y-121400000D01*
X128800000Y-121400000D02*
X130270000Y-122870000D01*
D16*
X122800000Y-111110054D02*
X124052144Y-112362198D01*
X127362198Y-112362198D02*
X128800000Y-113800000D01*
D15*
X125080000Y-95660000D02*
X122800000Y-97940000D01*
D16*
X124052144Y-112362198D02*
X127362198Y-112362198D01*
D15*
X122800000Y-97940000D02*
X122800000Y-111110054D01*
D16*
X119950000Y-96800000D02*
X124400000Y-92350000D01*
X119000000Y-114575000D02*
X119950000Y-113625000D01*
X124400000Y-92350000D02*
X154550000Y-92350000D01*
X119000000Y-124350000D02*
X119000000Y-114575000D01*
X120100000Y-125450000D02*
X119000000Y-124350000D01*
X119950000Y-113625000D02*
X119950000Y-96800000D01*
X120100000Y-131190000D02*
X120100000Y-125450000D01*
X120110000Y-131200000D02*
X120100000Y-131190000D01*
X140430000Y-125430000D02*
X140430000Y-131200000D01*
X136500000Y-121500000D02*
X140430000Y-125430000D01*
X136500000Y-102800000D02*
X136500000Y-121500000D01*
X132700000Y-99000000D02*
X136500000Y-102800000D01*
X132700000Y-95660000D02*
X132700000Y-99000000D01*
X137890000Y-125440000D02*
X137890000Y-131200000D01*
X134000000Y-121550000D02*
X137890000Y-125440000D01*
X134000000Y-102800000D02*
X134000000Y-121550000D01*
X130160000Y-98960000D02*
X134000000Y-102800000D01*
X130160000Y-98960000D02*
X130160000Y-95660000D01*
X135350000Y-125450000D02*
X135350000Y-131200000D01*
X131400000Y-102800000D02*
X131400000Y-121500000D01*
X131400000Y-121500000D02*
X135350000Y-125450000D01*
X127620000Y-99020000D02*
X131400000Y-102800000D01*
X127620000Y-99020000D02*
X127620000Y-95660000D01*
X160750000Y-125450000D02*
X160750000Y-131200000D01*
X156800000Y-121500000D02*
X160750000Y-125450000D01*
X156800000Y-102800000D02*
X156800000Y-121500000D01*
X153020000Y-99020000D02*
X156800000Y-102800000D01*
X153020000Y-99020000D02*
X153020000Y-95660000D01*
X154300000Y-102800000D02*
X154300000Y-121500000D01*
X158210000Y-125410000D02*
X158210000Y-131200000D01*
X154300000Y-121500000D02*
X158210000Y-125410000D01*
X150480000Y-98980000D02*
X154300000Y-102800000D01*
X150480000Y-98980000D02*
X150480000Y-95660000D01*
X155670000Y-125470000D02*
X155670000Y-131200000D01*
X151800000Y-121600000D02*
X155670000Y-125470000D01*
X151800000Y-102800000D02*
X151800000Y-121600000D01*
X147940000Y-98940000D02*
X151800000Y-102800000D01*
X147940000Y-98940000D02*
X147940000Y-95660000D01*
X153130000Y-125430000D02*
X153130000Y-131200000D01*
X149200000Y-102800000D02*
X149200000Y-121500000D01*
X145400000Y-99000000D02*
X149200000Y-102800000D01*
X149200000Y-121500000D02*
X153130000Y-125430000D01*
X145400000Y-99000000D02*
X145400000Y-95660000D01*
X146650000Y-121500000D02*
X150590000Y-125440000D01*
X150590000Y-125440000D02*
X150590000Y-131200000D01*
X146650000Y-102850000D02*
X146650000Y-121500000D01*
X142860000Y-99060000D02*
X146650000Y-102850000D01*
X142860000Y-99060000D02*
X142860000Y-95660000D01*
X148050000Y-125450000D02*
X148050000Y-131200000D01*
X145900000Y-123300000D02*
X148050000Y-125450000D01*
X144100000Y-112750000D02*
X145900000Y-114550000D01*
X140320000Y-98920000D02*
X144100000Y-102700000D01*
X144100000Y-102700000D02*
X144100000Y-112750000D01*
X145900000Y-114550000D02*
X145900000Y-123300000D01*
X140320000Y-98920000D02*
X140320000Y-95660000D01*
X145100000Y-115700000D02*
X145100000Y-125000000D01*
X145510000Y-125410000D02*
X145510000Y-131200000D01*
X141600000Y-112200000D02*
X145100000Y-115700000D01*
X145100000Y-125000000D02*
X145510000Y-125410000D01*
X141600000Y-102800000D02*
X141600000Y-112200000D01*
X137780000Y-98980000D02*
X141600000Y-102800000D01*
X137780000Y-98980000D02*
X137780000Y-95660000D01*
X138300000Y-120750000D02*
X142970000Y-125420000D01*
X138300000Y-114450000D02*
X138300000Y-120750000D01*
X142970000Y-125420000D02*
X142970000Y-131200000D01*
X139000000Y-113750000D02*
X138300000Y-114450000D01*
X139000000Y-102700000D02*
X139000000Y-113750000D01*
X135240000Y-98940000D02*
X139000000Y-102700000D01*
X135240000Y-98940000D02*
X135240000Y-95660000D01*
X127730000Y-131200000D02*
X127730000Y-125330002D01*
X127730000Y-125330002D02*
X127700000Y-125300002D01*
X125190000Y-125410000D02*
X126350000Y-124250000D01*
X126350000Y-124250000D02*
X126350000Y-113250008D01*
X125190000Y-131200000D02*
X125190000Y-125410000D01*
X124700000Y-114449992D02*
X122800006Y-112549998D01*
X122650000Y-125450000D02*
X124700000Y-123400000D01*
X122650000Y-131200000D02*
X122650000Y-125450000D01*
X124700000Y-123400000D02*
X124700000Y-114449992D01*
D17*
G36*
X165271000Y-127400000D02*
G01*
X164393631Y-127400000D01*
X164387881Y-127341618D01*
X164324182Y-127131628D01*
X164220739Y-126938100D01*
X164081528Y-126768472D01*
X163911900Y-126629261D01*
X163718372Y-126525818D01*
X163508382Y-126462119D01*
X163290000Y-126440610D01*
X163071619Y-126462119D01*
X162861629Y-126525818D01*
X162668101Y-126629261D01*
X162498473Y-126768472D01*
X162359262Y-126938100D01*
X162255819Y-127131628D01*
X162192120Y-127341618D01*
X162186370Y-127400000D01*
X161853631Y-127400000D01*
X161847881Y-127341618D01*
X161784182Y-127131628D01*
X161680739Y-126938100D01*
X161541528Y-126768472D01*
X161371900Y-126629261D01*
X161231000Y-126553948D01*
X161231000Y-125473626D01*
X161233327Y-125450000D01*
X161224040Y-125355707D01*
X161196536Y-125265038D01*
X161162562Y-125201478D01*
X161151872Y-125181478D01*
X161091764Y-125108236D01*
X161073406Y-125093170D01*
X157281000Y-121300764D01*
X157281000Y-117382925D01*
X159496000Y-117382925D01*
X159496000Y-117817075D01*
X159580699Y-118242883D01*
X159746841Y-118643985D01*
X159988042Y-119004968D01*
X160295032Y-119311958D01*
X160656015Y-119553159D01*
X161057117Y-119719301D01*
X161482925Y-119804000D01*
X161917075Y-119804000D01*
X162342883Y-119719301D01*
X162743985Y-119553159D01*
X163104968Y-119311958D01*
X163411958Y-119004968D01*
X163653159Y-118643985D01*
X163819301Y-118242883D01*
X163904000Y-117817075D01*
X163904000Y-117382925D01*
X163819301Y-116957117D01*
X163653159Y-116556015D01*
X163411958Y-116195032D01*
X163104968Y-115888042D01*
X162743985Y-115646841D01*
X162342883Y-115480699D01*
X161917075Y-115396000D01*
X161482925Y-115396000D01*
X161057117Y-115480699D01*
X160656015Y-115646841D01*
X160295032Y-115888042D01*
X159988042Y-116195032D01*
X159746841Y-116556015D01*
X159580699Y-116957117D01*
X159496000Y-117382925D01*
X157281000Y-117382925D01*
X157281000Y-111703003D01*
X157364368Y-111786371D01*
X157553376Y-111912662D01*
X157763391Y-111999653D01*
X157986341Y-112044000D01*
X158213659Y-112044000D01*
X158436609Y-111999653D01*
X158646624Y-111912662D01*
X158835632Y-111786371D01*
X158996371Y-111625632D01*
X159122662Y-111436624D01*
X159209653Y-111226609D01*
X159254000Y-111003659D01*
X159254000Y-110776341D01*
X159209653Y-110553391D01*
X159122662Y-110343376D01*
X158996371Y-110154368D01*
X158835632Y-109993629D01*
X158646624Y-109867338D01*
X158436609Y-109780347D01*
X158213659Y-109736000D01*
X157986341Y-109736000D01*
X157763391Y-109780347D01*
X157553376Y-109867338D01*
X157364368Y-109993629D01*
X157281000Y-110076997D01*
X157281000Y-106980000D01*
X160574287Y-106980000D01*
X160581122Y-107049396D01*
X160601364Y-107116125D01*
X160634235Y-107177624D01*
X160678473Y-107231527D01*
X160732376Y-107275765D01*
X160793875Y-107308636D01*
X160860604Y-107328878D01*
X160930000Y-107335713D01*
X161714500Y-107334000D01*
X161803000Y-107245500D01*
X161803000Y-106457000D01*
X161857000Y-106457000D01*
X161857000Y-107245500D01*
X161945500Y-107334000D01*
X162644288Y-107335526D01*
X162644288Y-108250000D01*
X162651123Y-108319396D01*
X162671365Y-108386125D01*
X162704236Y-108447623D01*
X162748474Y-108501526D01*
X162802377Y-108545764D01*
X162863875Y-108578635D01*
X162930604Y-108598877D01*
X163000000Y-108605712D01*
X164800000Y-108605712D01*
X164869396Y-108598877D01*
X164936125Y-108578635D01*
X164997623Y-108545764D01*
X165051526Y-108501526D01*
X165095764Y-108447623D01*
X165128635Y-108386125D01*
X165148877Y-108319396D01*
X165155712Y-108250000D01*
X165155712Y-107150000D01*
X165148877Y-107080604D01*
X165128635Y-107013875D01*
X165095764Y-106952377D01*
X165051526Y-106898474D01*
X164997623Y-106854236D01*
X164936125Y-106821365D01*
X164869396Y-106801123D01*
X164800000Y-106794288D01*
X163084981Y-106794288D01*
X163084000Y-106545500D01*
X162995500Y-106457000D01*
X161857000Y-106457000D01*
X161803000Y-106457000D01*
X160664500Y-106457000D01*
X160576000Y-106545500D01*
X160574287Y-106980000D01*
X157281000Y-106980000D01*
X157281000Y-105880000D01*
X160574287Y-105880000D01*
X160576000Y-106314500D01*
X160664500Y-106403000D01*
X161803000Y-106403000D01*
X161803000Y-105614500D01*
X161857000Y-105614500D01*
X161857000Y-106403000D01*
X162995500Y-106403000D01*
X163084000Y-106314500D01*
X163085109Y-106033316D01*
X163151954Y-106053593D01*
X163275000Y-106065712D01*
X164525000Y-106065712D01*
X164648046Y-106053593D01*
X164766363Y-106017702D01*
X164875405Y-105959418D01*
X164970981Y-105880981D01*
X165049418Y-105785405D01*
X165107702Y-105676363D01*
X165143593Y-105558046D01*
X165155712Y-105435000D01*
X165155712Y-104885000D01*
X165143593Y-104761954D01*
X165107702Y-104643637D01*
X165049418Y-104534595D01*
X164970981Y-104439019D01*
X164875405Y-104360582D01*
X164766363Y-104302298D01*
X164648046Y-104266407D01*
X164525000Y-104254288D01*
X163275000Y-104254288D01*
X163151954Y-104266407D01*
X163033637Y-104302298D01*
X162924595Y-104360582D01*
X162829019Y-104439019D01*
X162750582Y-104534595D01*
X162692298Y-104643637D01*
X162656407Y-104761954D01*
X162644288Y-104885000D01*
X162644288Y-105435000D01*
X162653099Y-105524455D01*
X161945500Y-105526000D01*
X161857000Y-105614500D01*
X161803000Y-105614500D01*
X161714500Y-105526000D01*
X160930000Y-105524287D01*
X160860604Y-105531122D01*
X160793875Y-105551364D01*
X160732376Y-105584235D01*
X160678473Y-105628473D01*
X160634235Y-105682376D01*
X160601364Y-105743875D01*
X160581122Y-105810604D01*
X160574287Y-105880000D01*
X157281000Y-105880000D01*
X157281000Y-102823623D01*
X157283327Y-102799999D01*
X157281000Y-102776374D01*
X157274040Y-102705708D01*
X157246536Y-102615039D01*
X157201872Y-102531478D01*
X157141764Y-102458236D01*
X157123412Y-102443175D01*
X153501000Y-98820764D01*
X153501000Y-96699844D01*
X153566624Y-96672662D01*
X153755632Y-96546371D01*
X153916371Y-96385632D01*
X154042662Y-96196624D01*
X154129653Y-95986609D01*
X154174000Y-95763659D01*
X154174000Y-95536341D01*
X154406000Y-95536341D01*
X154406000Y-95763659D01*
X154450347Y-95986609D01*
X154537338Y-96196624D01*
X154663629Y-96385632D01*
X154824368Y-96546371D01*
X155013376Y-96672662D01*
X155223391Y-96759653D01*
X155446341Y-96804000D01*
X155673659Y-96804000D01*
X155896609Y-96759653D01*
X156106624Y-96672662D01*
X156295632Y-96546371D01*
X156456371Y-96385632D01*
X156582662Y-96196624D01*
X156669653Y-95986609D01*
X156714000Y-95763659D01*
X156714000Y-95536341D01*
X156669653Y-95313391D01*
X156582662Y-95103376D01*
X156456371Y-94914368D01*
X156392003Y-94850000D01*
X156944288Y-94850000D01*
X156944288Y-96450000D01*
X156951123Y-96519396D01*
X156971365Y-96586125D01*
X157004236Y-96647623D01*
X157048474Y-96701526D01*
X157102377Y-96745764D01*
X157163875Y-96778635D01*
X157230604Y-96798877D01*
X157300000Y-96805712D01*
X158900000Y-96805712D01*
X158969396Y-96798877D01*
X159036125Y-96778635D01*
X159097623Y-96745764D01*
X159151526Y-96701526D01*
X159195764Y-96647623D01*
X159228635Y-96586125D01*
X159248877Y-96519396D01*
X159255712Y-96450000D01*
X159255712Y-94850000D01*
X159248877Y-94780604D01*
X159228635Y-94713875D01*
X159195764Y-94652377D01*
X159151526Y-94598474D01*
X159097623Y-94554236D01*
X159036125Y-94521365D01*
X158969396Y-94501123D01*
X158900000Y-94494288D01*
X157300000Y-94494288D01*
X157230604Y-94501123D01*
X157163875Y-94521365D01*
X157102377Y-94554236D01*
X157048474Y-94598474D01*
X157004236Y-94652377D01*
X156971365Y-94713875D01*
X156951123Y-94780604D01*
X156944288Y-94850000D01*
X156392003Y-94850000D01*
X156295632Y-94753629D01*
X156106624Y-94627338D01*
X155896609Y-94540347D01*
X155673659Y-94496000D01*
X155446341Y-94496000D01*
X155223391Y-94540347D01*
X155013376Y-94627338D01*
X154824368Y-94753629D01*
X154663629Y-94914368D01*
X154537338Y-95103376D01*
X154450347Y-95313391D01*
X154406000Y-95536341D01*
X154174000Y-95536341D01*
X154129653Y-95313391D01*
X154042662Y-95103376D01*
X153916371Y-94914368D01*
X153755632Y-94753629D01*
X153566624Y-94627338D01*
X153356609Y-94540347D01*
X153133659Y-94496000D01*
X152906341Y-94496000D01*
X152683391Y-94540347D01*
X152473376Y-94627338D01*
X152284368Y-94753629D01*
X152123629Y-94914368D01*
X151997338Y-95103376D01*
X151910347Y-95313391D01*
X151866000Y-95536341D01*
X151866000Y-95763659D01*
X151910347Y-95986609D01*
X151997338Y-96196624D01*
X152123629Y-96385632D01*
X152284368Y-96546371D01*
X152473376Y-96672662D01*
X152539001Y-96699845D01*
X152539000Y-98996374D01*
X152536673Y-99020000D01*
X152540613Y-99060000D01*
X152545960Y-99114291D01*
X152573464Y-99204960D01*
X152618128Y-99288522D01*
X152678236Y-99361764D01*
X152696594Y-99376830D01*
X156319000Y-102999237D01*
X156319000Y-110016997D01*
X156295632Y-109993629D01*
X156106624Y-109867338D01*
X155896609Y-109780347D01*
X155673659Y-109736000D01*
X155446341Y-109736000D01*
X155223391Y-109780347D01*
X155013376Y-109867338D01*
X154824368Y-109993629D01*
X154781000Y-110036997D01*
X154781000Y-102823626D01*
X154783327Y-102800000D01*
X154774040Y-102705707D01*
X154765142Y-102676374D01*
X154746536Y-102615039D01*
X154701872Y-102531478D01*
X154641764Y-102458236D01*
X154623412Y-102443175D01*
X150961000Y-98780764D01*
X150961000Y-96699844D01*
X151026624Y-96672662D01*
X151215632Y-96546371D01*
X151376371Y-96385632D01*
X151502662Y-96196624D01*
X151589653Y-95986609D01*
X151634000Y-95763659D01*
X151634000Y-95536341D01*
X151589653Y-95313391D01*
X151502662Y-95103376D01*
X151376371Y-94914368D01*
X151215632Y-94753629D01*
X151026624Y-94627338D01*
X150816609Y-94540347D01*
X150593659Y-94496000D01*
X150366341Y-94496000D01*
X150143391Y-94540347D01*
X149933376Y-94627338D01*
X149744368Y-94753629D01*
X149583629Y-94914368D01*
X149457338Y-95103376D01*
X149370347Y-95313391D01*
X149326000Y-95536341D01*
X149326000Y-95763659D01*
X149370347Y-95986609D01*
X149457338Y-96196624D01*
X149583629Y-96385632D01*
X149744368Y-96546371D01*
X149933376Y-96672662D01*
X149999001Y-96699845D01*
X149999000Y-98956374D01*
X149996673Y-98980000D01*
X150000613Y-99020000D01*
X150005960Y-99074291D01*
X150033464Y-99164960D01*
X150078128Y-99248522D01*
X150138236Y-99321764D01*
X150156594Y-99336830D01*
X153819000Y-102999237D01*
X153819000Y-110056997D01*
X153755632Y-109993629D01*
X153566624Y-109867338D01*
X153356609Y-109780347D01*
X153133659Y-109736000D01*
X152906341Y-109736000D01*
X152683391Y-109780347D01*
X152473376Y-109867338D01*
X152284368Y-109993629D01*
X152281000Y-109996997D01*
X152281000Y-102823623D01*
X152283327Y-102799999D01*
X152281000Y-102776374D01*
X152274040Y-102705708D01*
X152246536Y-102615039D01*
X152201872Y-102531478D01*
X152141764Y-102458236D01*
X152123412Y-102443175D01*
X148421000Y-98740764D01*
X148421000Y-96699844D01*
X148486624Y-96672662D01*
X148675632Y-96546371D01*
X148836371Y-96385632D01*
X148962662Y-96196624D01*
X149049653Y-95986609D01*
X149094000Y-95763659D01*
X149094000Y-95536341D01*
X149049653Y-95313391D01*
X148962662Y-95103376D01*
X148836371Y-94914368D01*
X148675632Y-94753629D01*
X148486624Y-94627338D01*
X148276609Y-94540347D01*
X148053659Y-94496000D01*
X147826341Y-94496000D01*
X147603391Y-94540347D01*
X147393376Y-94627338D01*
X147204368Y-94753629D01*
X147043629Y-94914368D01*
X146917338Y-95103376D01*
X146830347Y-95313391D01*
X146786000Y-95536341D01*
X146786000Y-95763659D01*
X146830347Y-95986609D01*
X146917338Y-96196624D01*
X147043629Y-96385632D01*
X147204368Y-96546371D01*
X147393376Y-96672662D01*
X147459001Y-96699845D01*
X147459000Y-98916374D01*
X147456673Y-98940000D01*
X147465960Y-99034291D01*
X147493464Y-99124960D01*
X147538128Y-99208522D01*
X147598236Y-99281764D01*
X147616594Y-99296830D01*
X151319000Y-102999237D01*
X151319000Y-110096997D01*
X151215632Y-109993629D01*
X151026624Y-109867338D01*
X150816609Y-109780347D01*
X150593659Y-109736000D01*
X150366341Y-109736000D01*
X150143391Y-109780347D01*
X149933376Y-109867338D01*
X149744368Y-109993629D01*
X149681000Y-110056997D01*
X149681000Y-102823627D01*
X149683327Y-102800000D01*
X149674040Y-102705707D01*
X149646536Y-102615038D01*
X149601871Y-102531477D01*
X149597858Y-102526587D01*
X149541764Y-102458236D01*
X149523406Y-102443170D01*
X145881000Y-98800764D01*
X145881000Y-96699844D01*
X145946624Y-96672662D01*
X146135632Y-96546371D01*
X146296371Y-96385632D01*
X146422662Y-96196624D01*
X146509653Y-95986609D01*
X146554000Y-95763659D01*
X146554000Y-95536341D01*
X146509653Y-95313391D01*
X146422662Y-95103376D01*
X146296371Y-94914368D01*
X146135632Y-94753629D01*
X145946624Y-94627338D01*
X145736609Y-94540347D01*
X145513659Y-94496000D01*
X145286341Y-94496000D01*
X145063391Y-94540347D01*
X144853376Y-94627338D01*
X144664368Y-94753629D01*
X144503629Y-94914368D01*
X144377338Y-95103376D01*
X144290347Y-95313391D01*
X144246000Y-95536341D01*
X144246000Y-95763659D01*
X144290347Y-95986609D01*
X144377338Y-96196624D01*
X144503629Y-96385632D01*
X144664368Y-96546371D01*
X144853376Y-96672662D01*
X144919001Y-96699845D01*
X144919000Y-98976374D01*
X144916673Y-99000000D01*
X144925960Y-99094291D01*
X144953464Y-99184960D01*
X144998128Y-99268522D01*
X145058236Y-99341764D01*
X145076594Y-99356830D01*
X148719000Y-102999236D01*
X148719000Y-110036997D01*
X148675632Y-109993629D01*
X148486624Y-109867338D01*
X148276609Y-109780347D01*
X148053659Y-109736000D01*
X147826341Y-109736000D01*
X147603391Y-109780347D01*
X147393376Y-109867338D01*
X147204368Y-109993629D01*
X147131000Y-110066997D01*
X147131000Y-102873623D01*
X147133327Y-102849999D01*
X147127840Y-102794292D01*
X147124040Y-102755708D01*
X147096536Y-102665039D01*
X147051872Y-102581478D01*
X146991764Y-102508236D01*
X146973412Y-102493175D01*
X143341000Y-98860764D01*
X143341000Y-96699844D01*
X143406624Y-96672662D01*
X143595632Y-96546371D01*
X143756371Y-96385632D01*
X143882662Y-96196624D01*
X143969653Y-95986609D01*
X144014000Y-95763659D01*
X144014000Y-95536341D01*
X143969653Y-95313391D01*
X143882662Y-95103376D01*
X143756371Y-94914368D01*
X143595632Y-94753629D01*
X143406624Y-94627338D01*
X143196609Y-94540347D01*
X142973659Y-94496000D01*
X142746341Y-94496000D01*
X142523391Y-94540347D01*
X142313376Y-94627338D01*
X142124368Y-94753629D01*
X141963629Y-94914368D01*
X141837338Y-95103376D01*
X141750347Y-95313391D01*
X141706000Y-95536341D01*
X141706000Y-95763659D01*
X141750347Y-95986609D01*
X141837338Y-96196624D01*
X141963629Y-96385632D01*
X142124368Y-96546371D01*
X142313376Y-96672662D01*
X142379001Y-96699845D01*
X142379000Y-99036374D01*
X142376673Y-99060000D01*
X142381101Y-99104960D01*
X142385960Y-99154291D01*
X142413464Y-99244960D01*
X142458128Y-99328522D01*
X142518236Y-99401764D01*
X142536594Y-99416830D01*
X146169000Y-103049237D01*
X146169000Y-110026997D01*
X146135632Y-109993629D01*
X145946624Y-109867338D01*
X145736609Y-109780347D01*
X145513659Y-109736000D01*
X145286341Y-109736000D01*
X145063391Y-109780347D01*
X144853376Y-109867338D01*
X144664368Y-109993629D01*
X144581000Y-110076997D01*
X144581000Y-102723623D01*
X144583327Y-102699999D01*
X144581000Y-102676374D01*
X144574040Y-102605708D01*
X144546536Y-102515039D01*
X144501872Y-102431478D01*
X144441764Y-102358236D01*
X144423412Y-102343175D01*
X140801000Y-98720764D01*
X140801000Y-96699844D01*
X140866624Y-96672662D01*
X141055632Y-96546371D01*
X141216371Y-96385632D01*
X141342662Y-96196624D01*
X141429653Y-95986609D01*
X141474000Y-95763659D01*
X141474000Y-95536341D01*
X141429653Y-95313391D01*
X141342662Y-95103376D01*
X141216371Y-94914368D01*
X141055632Y-94753629D01*
X140866624Y-94627338D01*
X140656609Y-94540347D01*
X140433659Y-94496000D01*
X140206341Y-94496000D01*
X139983391Y-94540347D01*
X139773376Y-94627338D01*
X139584368Y-94753629D01*
X139423629Y-94914368D01*
X139297338Y-95103376D01*
X139210347Y-95313391D01*
X139166000Y-95536341D01*
X139166000Y-95763659D01*
X139210347Y-95986609D01*
X139297338Y-96196624D01*
X139423629Y-96385632D01*
X139584368Y-96546371D01*
X139773376Y-96672662D01*
X139839001Y-96699845D01*
X139839000Y-98896374D01*
X139836673Y-98920000D01*
X139845960Y-99014291D01*
X139873464Y-99104960D01*
X139918128Y-99188522D01*
X139978236Y-99261764D01*
X139996594Y-99276830D01*
X143619000Y-102899237D01*
X143619001Y-110016998D01*
X143595632Y-109993629D01*
X143406624Y-109867338D01*
X143196609Y-109780347D01*
X142973659Y-109736000D01*
X142746341Y-109736000D01*
X142523391Y-109780347D01*
X142313376Y-109867338D01*
X142124368Y-109993629D01*
X142081000Y-110036997D01*
X142081000Y-102823626D01*
X142083327Y-102800000D01*
X142074040Y-102705707D01*
X142065142Y-102676374D01*
X142046536Y-102615039D01*
X142001872Y-102531478D01*
X141941764Y-102458236D01*
X141923412Y-102443175D01*
X138261000Y-98780764D01*
X138261000Y-96699844D01*
X138326624Y-96672662D01*
X138515632Y-96546371D01*
X138676371Y-96385632D01*
X138802662Y-96196624D01*
X138889653Y-95986609D01*
X138934000Y-95763659D01*
X138934000Y-95536341D01*
X138889653Y-95313391D01*
X138802662Y-95103376D01*
X138676371Y-94914368D01*
X138515632Y-94753629D01*
X138326624Y-94627338D01*
X138116609Y-94540347D01*
X137893659Y-94496000D01*
X137666341Y-94496000D01*
X137443391Y-94540347D01*
X137233376Y-94627338D01*
X137044368Y-94753629D01*
X136883629Y-94914368D01*
X136757338Y-95103376D01*
X136670347Y-95313391D01*
X136626000Y-95536341D01*
X136626000Y-95763659D01*
X136670347Y-95986609D01*
X136757338Y-96196624D01*
X136883629Y-96385632D01*
X137044368Y-96546371D01*
X137233376Y-96672662D01*
X137299001Y-96699845D01*
X137299000Y-98956374D01*
X137296673Y-98980000D01*
X137300613Y-99020000D01*
X137305960Y-99074291D01*
X137333464Y-99164960D01*
X137378128Y-99248522D01*
X137438236Y-99321764D01*
X137456594Y-99336830D01*
X141119000Y-102999237D01*
X141119001Y-110056998D01*
X141055632Y-109993629D01*
X140866624Y-109867338D01*
X140656609Y-109780347D01*
X140433659Y-109736000D01*
X140206341Y-109736000D01*
X139983391Y-109780347D01*
X139773376Y-109867338D01*
X139584368Y-109993629D01*
X139481000Y-110096997D01*
X139481000Y-102723626D01*
X139483327Y-102700000D01*
X139474040Y-102605707D01*
X139465696Y-102578203D01*
X139446536Y-102515039D01*
X139401872Y-102431478D01*
X139341764Y-102358236D01*
X139323412Y-102343175D01*
X135721000Y-98740764D01*
X135721000Y-96699844D01*
X135786624Y-96672662D01*
X135975632Y-96546371D01*
X136136371Y-96385632D01*
X136262662Y-96196624D01*
X136349653Y-95986609D01*
X136394000Y-95763659D01*
X136394000Y-95536341D01*
X136349653Y-95313391D01*
X136262662Y-95103376D01*
X136136371Y-94914368D01*
X135975632Y-94753629D01*
X135786624Y-94627338D01*
X135576609Y-94540347D01*
X135353659Y-94496000D01*
X135126341Y-94496000D01*
X134903391Y-94540347D01*
X134693376Y-94627338D01*
X134504368Y-94753629D01*
X134343629Y-94914368D01*
X134217338Y-95103376D01*
X134130347Y-95313391D01*
X134086000Y-95536341D01*
X134086000Y-95763659D01*
X134130347Y-95986609D01*
X134217338Y-96196624D01*
X134343629Y-96385632D01*
X134504368Y-96546371D01*
X134693376Y-96672662D01*
X134759001Y-96699845D01*
X134759000Y-98916374D01*
X134756673Y-98940000D01*
X134765960Y-99034291D01*
X134793464Y-99124960D01*
X134838128Y-99208522D01*
X134898236Y-99281764D01*
X134916594Y-99296830D01*
X138519000Y-102899237D01*
X138519001Y-109996998D01*
X138515632Y-109993629D01*
X138326624Y-109867338D01*
X138116609Y-109780347D01*
X137893659Y-109736000D01*
X137666341Y-109736000D01*
X137443391Y-109780347D01*
X137233376Y-109867338D01*
X137044368Y-109993629D01*
X136981000Y-110056997D01*
X136981000Y-102823627D01*
X136983327Y-102800000D01*
X136974040Y-102705707D01*
X136946536Y-102615038D01*
X136901871Y-102531477D01*
X136897858Y-102526587D01*
X136841764Y-102458236D01*
X136823406Y-102443170D01*
X133181000Y-98800764D01*
X133181000Y-96699844D01*
X133246624Y-96672662D01*
X133435632Y-96546371D01*
X133596371Y-96385632D01*
X133722662Y-96196624D01*
X133809653Y-95986609D01*
X133854000Y-95763659D01*
X133854000Y-95536341D01*
X133809653Y-95313391D01*
X133722662Y-95103376D01*
X133596371Y-94914368D01*
X133435632Y-94753629D01*
X133246624Y-94627338D01*
X133036609Y-94540347D01*
X132813659Y-94496000D01*
X132586341Y-94496000D01*
X132363391Y-94540347D01*
X132153376Y-94627338D01*
X131964368Y-94753629D01*
X131803629Y-94914368D01*
X131677338Y-95103376D01*
X131590347Y-95313391D01*
X131546000Y-95536341D01*
X131546000Y-95763659D01*
X131590347Y-95986609D01*
X131677338Y-96196624D01*
X131803629Y-96385632D01*
X131964368Y-96546371D01*
X132153376Y-96672662D01*
X132219000Y-96699844D01*
X132219001Y-98976364D01*
X132216673Y-99000000D01*
X132225960Y-99094292D01*
X132247398Y-99164960D01*
X132253465Y-99184961D01*
X132298129Y-99268522D01*
X132358237Y-99341764D01*
X132376589Y-99356825D01*
X136019000Y-102999236D01*
X136019000Y-110036997D01*
X135975632Y-109993629D01*
X135786624Y-109867338D01*
X135576609Y-109780347D01*
X135353659Y-109736000D01*
X135126341Y-109736000D01*
X134903391Y-109780347D01*
X134693376Y-109867338D01*
X134504368Y-109993629D01*
X134481000Y-110016997D01*
X134481000Y-102823626D01*
X134483327Y-102799999D01*
X134474040Y-102705707D01*
X134465142Y-102676374D01*
X134446536Y-102615039D01*
X134401872Y-102531478D01*
X134341764Y-102458236D01*
X134323412Y-102443175D01*
X130641000Y-98760764D01*
X130641000Y-96699844D01*
X130706624Y-96672662D01*
X130895632Y-96546371D01*
X131056371Y-96385632D01*
X131182662Y-96196624D01*
X131269653Y-95986609D01*
X131314000Y-95763659D01*
X131314000Y-95536341D01*
X131269653Y-95313391D01*
X131182662Y-95103376D01*
X131056371Y-94914368D01*
X130895632Y-94753629D01*
X130706624Y-94627338D01*
X130496609Y-94540347D01*
X130273659Y-94496000D01*
X130046341Y-94496000D01*
X129823391Y-94540347D01*
X129613376Y-94627338D01*
X129424368Y-94753629D01*
X129263629Y-94914368D01*
X129137338Y-95103376D01*
X129050347Y-95313391D01*
X129006000Y-95536341D01*
X129006000Y-95763659D01*
X129050347Y-95986609D01*
X129137338Y-96196624D01*
X129263629Y-96385632D01*
X129424368Y-96546371D01*
X129613376Y-96672662D01*
X129679001Y-96699845D01*
X129679000Y-98936374D01*
X129676673Y-98960000D01*
X129685960Y-99054291D01*
X129713464Y-99144960D01*
X129758128Y-99228522D01*
X129818236Y-99301764D01*
X129836594Y-99316830D01*
X133519000Y-102999237D01*
X133519000Y-110076997D01*
X133435632Y-109993629D01*
X133246624Y-109867338D01*
X133036609Y-109780347D01*
X132813659Y-109736000D01*
X132586341Y-109736000D01*
X132363391Y-109780347D01*
X132153376Y-109867338D01*
X131964368Y-109993629D01*
X131881000Y-110076997D01*
X131881000Y-102823623D01*
X131883327Y-102799999D01*
X131881000Y-102776374D01*
X131874040Y-102705708D01*
X131846536Y-102615039D01*
X131801872Y-102531478D01*
X131741764Y-102458236D01*
X131723412Y-102443175D01*
X128101000Y-98820764D01*
X128101000Y-96699844D01*
X128166624Y-96672662D01*
X128355632Y-96546371D01*
X128516371Y-96385632D01*
X128642662Y-96196624D01*
X128729653Y-95986609D01*
X128774000Y-95763659D01*
X128774000Y-95536341D01*
X128729653Y-95313391D01*
X128642662Y-95103376D01*
X128516371Y-94914368D01*
X128355632Y-94753629D01*
X128166624Y-94627338D01*
X127956609Y-94540347D01*
X127733659Y-94496000D01*
X127506341Y-94496000D01*
X127283391Y-94540347D01*
X127073376Y-94627338D01*
X126884368Y-94753629D01*
X126723629Y-94914368D01*
X126597338Y-95103376D01*
X126510347Y-95313391D01*
X126466000Y-95536341D01*
X126466000Y-95763659D01*
X126510347Y-95986609D01*
X126597338Y-96196624D01*
X126723629Y-96385632D01*
X126884368Y-96546371D01*
X127073376Y-96672662D01*
X127139001Y-96699845D01*
X127139000Y-98996374D01*
X127136673Y-99020000D01*
X127140613Y-99060000D01*
X127145960Y-99114291D01*
X127173464Y-99204960D01*
X127218128Y-99288522D01*
X127278236Y-99361764D01*
X127296594Y-99376830D01*
X130919000Y-102999237D01*
X130919000Y-110016997D01*
X130895632Y-109993629D01*
X130706624Y-109867338D01*
X130496609Y-109780347D01*
X130273659Y-109736000D01*
X130046341Y-109736000D01*
X129823391Y-109780347D01*
X129613376Y-109867338D01*
X129424368Y-109993629D01*
X129263629Y-110154368D01*
X129137338Y-110343376D01*
X129050347Y-110553391D01*
X129006000Y-110776341D01*
X129006000Y-111003659D01*
X129050347Y-111226609D01*
X129137338Y-111436624D01*
X129263629Y-111625632D01*
X129424368Y-111786371D01*
X129613376Y-111912662D01*
X129823391Y-111999653D01*
X130046341Y-112044000D01*
X130273659Y-112044000D01*
X130496609Y-111999653D01*
X130706624Y-111912662D01*
X130895632Y-111786371D01*
X130919000Y-111763003D01*
X130919001Y-121476364D01*
X130916673Y-121500000D01*
X130925960Y-121594292D01*
X130927692Y-121600000D01*
X130953465Y-121684961D01*
X130998129Y-121768522D01*
X131058237Y-121841764D01*
X131076589Y-121856825D01*
X134869000Y-125649236D01*
X134869000Y-126553949D01*
X134728101Y-126629261D01*
X134558473Y-126768472D01*
X134419262Y-126938100D01*
X134315819Y-127131628D01*
X134252120Y-127341618D01*
X134246370Y-127400000D01*
X133907638Y-127400000D01*
X133897327Y-127316188D01*
X133828869Y-127108746D01*
X133721256Y-126918645D01*
X133578624Y-126753191D01*
X133406454Y-126618743D01*
X133211363Y-126520467D01*
X133010884Y-126464262D01*
X132837000Y-126534855D01*
X132837000Y-127400000D01*
X132783000Y-127400000D01*
X132783000Y-126534855D01*
X132609116Y-126464262D01*
X132408637Y-126520467D01*
X132213546Y-126618743D01*
X132041376Y-126753191D01*
X131898744Y-126918645D01*
X131791131Y-127108746D01*
X131722673Y-127316188D01*
X131712362Y-127400000D01*
X131367638Y-127400000D01*
X131357327Y-127316188D01*
X131288869Y-127108746D01*
X131181256Y-126918645D01*
X131038624Y-126753191D01*
X130866454Y-126618743D01*
X130671363Y-126520467D01*
X130470884Y-126464262D01*
X130297000Y-126534855D01*
X130297000Y-127400000D01*
X130243000Y-127400000D01*
X130243000Y-126534855D01*
X130069116Y-126464262D01*
X129868637Y-126520467D01*
X129673546Y-126618743D01*
X129501376Y-126753191D01*
X129358744Y-126918645D01*
X129251131Y-127108746D01*
X129182673Y-127316188D01*
X129172362Y-127400000D01*
X128833631Y-127400000D01*
X128827881Y-127341618D01*
X128764182Y-127131628D01*
X128660739Y-126938100D01*
X128521528Y-126768472D01*
X128351900Y-126629261D01*
X128211000Y-126553948D01*
X128211000Y-125828449D01*
X128270912Y-125768537D01*
X128351348Y-125648155D01*
X128406754Y-125514393D01*
X128435000Y-125372393D01*
X128435000Y-125227611D01*
X128406754Y-125085611D01*
X128351348Y-124951849D01*
X128270912Y-124831467D01*
X128168535Y-124729090D01*
X128048153Y-124648654D01*
X127914391Y-124593248D01*
X127772391Y-124565002D01*
X127627609Y-124565002D01*
X127485609Y-124593248D01*
X127351847Y-124648654D01*
X127231465Y-124729090D01*
X127129088Y-124831467D01*
X127048652Y-124951849D01*
X126993246Y-125085611D01*
X126965000Y-125227611D01*
X126965000Y-125372393D01*
X126993246Y-125514393D01*
X127048652Y-125648155D01*
X127129088Y-125768537D01*
X127231465Y-125870914D01*
X127249001Y-125882631D01*
X127249001Y-126553948D01*
X127108101Y-126629261D01*
X126938473Y-126768472D01*
X126799262Y-126938100D01*
X126695819Y-127131628D01*
X126632120Y-127341618D01*
X126626370Y-127400000D01*
X126293631Y-127400000D01*
X126287881Y-127341618D01*
X126224182Y-127131628D01*
X126120739Y-126938100D01*
X125981528Y-126768472D01*
X125811900Y-126629261D01*
X125671000Y-126553948D01*
X125671000Y-125609236D01*
X126673412Y-124606825D01*
X126691764Y-124591764D01*
X126751872Y-124518522D01*
X126791549Y-124444291D01*
X126796536Y-124434962D01*
X126824040Y-124344293D01*
X126833327Y-124250000D01*
X126831000Y-124226374D01*
X126831000Y-113808455D01*
X126920912Y-113718543D01*
X127001348Y-113598161D01*
X127056754Y-113464399D01*
X127085000Y-113322399D01*
X127085000Y-113177617D01*
X127056754Y-113035617D01*
X127001348Y-112901855D01*
X126920912Y-112781473D01*
X126818535Y-112679096D01*
X126698153Y-112598660D01*
X126564391Y-112543254D01*
X126422391Y-112515008D01*
X126277609Y-112515008D01*
X126135609Y-112543254D01*
X126001847Y-112598660D01*
X125881465Y-112679096D01*
X125779088Y-112781473D01*
X125698652Y-112901855D01*
X125643246Y-113035617D01*
X125615000Y-113177617D01*
X125615000Y-113322399D01*
X125643246Y-113464399D01*
X125698652Y-113598161D01*
X125779088Y-113718543D01*
X125869001Y-113808456D01*
X125869000Y-124050763D01*
X124866589Y-125053175D01*
X124848237Y-125068236D01*
X124826853Y-125094292D01*
X124788129Y-125141478D01*
X124743465Y-125225039D01*
X124715960Y-125315708D01*
X124706673Y-125410000D01*
X124709001Y-125433636D01*
X124709001Y-126553948D01*
X124568101Y-126629261D01*
X124398473Y-126768472D01*
X124259262Y-126938100D01*
X124155819Y-127131628D01*
X124092120Y-127341618D01*
X124086370Y-127400000D01*
X123753631Y-127400000D01*
X123747881Y-127341618D01*
X123684182Y-127131628D01*
X123580739Y-126938100D01*
X123441528Y-126768472D01*
X123271900Y-126629261D01*
X123131000Y-126553948D01*
X123131000Y-125649236D01*
X125023412Y-123756825D01*
X125041764Y-123741764D01*
X125101872Y-123668522D01*
X125146536Y-123584961D01*
X125174040Y-123494292D01*
X125181000Y-123423626D01*
X125181000Y-123423625D01*
X125183327Y-123400000D01*
X125181000Y-123376374D01*
X125181000Y-114473615D01*
X125183327Y-114449991D01*
X125177422Y-114390039D01*
X125174040Y-114355700D01*
X125146536Y-114265031D01*
X125101872Y-114181470D01*
X125041764Y-114108228D01*
X125023412Y-114093167D01*
X123535006Y-112604762D01*
X123535006Y-112477607D01*
X123506760Y-112335607D01*
X123451354Y-112201845D01*
X123370918Y-112081463D01*
X123268541Y-111979086D01*
X123148159Y-111898650D01*
X123014397Y-111843244D01*
X122872397Y-111814998D01*
X122727615Y-111814998D01*
X122585615Y-111843244D01*
X122451853Y-111898650D01*
X122331471Y-111979086D01*
X122229094Y-112081463D01*
X122148658Y-112201845D01*
X122093252Y-112335607D01*
X122065006Y-112477607D01*
X122065006Y-112622389D01*
X122093252Y-112764389D01*
X122148658Y-112898151D01*
X122229094Y-113018533D01*
X122331471Y-113120910D01*
X122451853Y-113201346D01*
X122585615Y-113256752D01*
X122727615Y-113284998D01*
X122854770Y-113284998D01*
X124219001Y-114649230D01*
X124219000Y-123200763D01*
X122326589Y-125093175D01*
X122308237Y-125108236D01*
X122280957Y-125141477D01*
X122248129Y-125181478D01*
X122203465Y-125265039D01*
X122175960Y-125355708D01*
X122166673Y-125450000D01*
X122169001Y-125473636D01*
X122169001Y-126553948D01*
X122028101Y-126629261D01*
X121858473Y-126768472D01*
X121719262Y-126938100D01*
X121615819Y-127131628D01*
X121552120Y-127341618D01*
X121546370Y-127400000D01*
X121213631Y-127400000D01*
X121207881Y-127341618D01*
X121144182Y-127131628D01*
X121040739Y-126938100D01*
X120901528Y-126768472D01*
X120731900Y-126629261D01*
X120581000Y-126548603D01*
X120581000Y-125473626D01*
X120583327Y-125450000D01*
X120574040Y-125355707D01*
X120552603Y-125285040D01*
X120546536Y-125265039D01*
X120501872Y-125181478D01*
X120441764Y-125108236D01*
X120423412Y-125093175D01*
X119481000Y-124150764D01*
X119481000Y-117382925D01*
X119496000Y-117382925D01*
X119496000Y-117817075D01*
X119580699Y-118242883D01*
X119746841Y-118643985D01*
X119988042Y-119004968D01*
X120295032Y-119311958D01*
X120656015Y-119553159D01*
X121057117Y-119719301D01*
X121482925Y-119804000D01*
X121917075Y-119804000D01*
X122342883Y-119719301D01*
X122743985Y-119553159D01*
X123104968Y-119311958D01*
X123411958Y-119004968D01*
X123653159Y-118643985D01*
X123819301Y-118242883D01*
X123904000Y-117817075D01*
X123904000Y-117382925D01*
X123819301Y-116957117D01*
X123653159Y-116556015D01*
X123411958Y-116195032D01*
X123104968Y-115888042D01*
X122743985Y-115646841D01*
X122342883Y-115480699D01*
X121917075Y-115396000D01*
X121482925Y-115396000D01*
X121057117Y-115480699D01*
X120656015Y-115646841D01*
X120295032Y-115888042D01*
X119988042Y-116195032D01*
X119746841Y-116556015D01*
X119580699Y-116957117D01*
X119496000Y-117382925D01*
X119481000Y-117382925D01*
X119481000Y-114774236D01*
X120273411Y-113981825D01*
X120291764Y-113966764D01*
X120351872Y-113893522D01*
X120396536Y-113809961D01*
X120424040Y-113719292D01*
X120430303Y-113655708D01*
X120433327Y-113625000D01*
X120431000Y-113601374D01*
X120431000Y-110776341D01*
X123926000Y-110776341D01*
X123926000Y-111003659D01*
X123970347Y-111226609D01*
X124057338Y-111436624D01*
X124183629Y-111625632D01*
X124344368Y-111786371D01*
X124533376Y-111912662D01*
X124743391Y-111999653D01*
X124966341Y-112044000D01*
X125193659Y-112044000D01*
X125416609Y-111999653D01*
X125626624Y-111912662D01*
X125815632Y-111786371D01*
X125976371Y-111625632D01*
X126102662Y-111436624D01*
X126189653Y-111226609D01*
X126234000Y-111003659D01*
X126234000Y-110776341D01*
X126466000Y-110776341D01*
X126466000Y-111003659D01*
X126510347Y-111226609D01*
X126597338Y-111436624D01*
X126723629Y-111625632D01*
X126884368Y-111786371D01*
X127073376Y-111912662D01*
X127283391Y-111999653D01*
X127506341Y-112044000D01*
X127733659Y-112044000D01*
X127956609Y-111999653D01*
X128166624Y-111912662D01*
X128355632Y-111786371D01*
X128516371Y-111625632D01*
X128642662Y-111436624D01*
X128729653Y-111226609D01*
X128774000Y-111003659D01*
X128774000Y-110776341D01*
X128729653Y-110553391D01*
X128642662Y-110343376D01*
X128516371Y-110154368D01*
X128355632Y-109993629D01*
X128166624Y-109867338D01*
X127956609Y-109780347D01*
X127733659Y-109736000D01*
X127506341Y-109736000D01*
X127283391Y-109780347D01*
X127073376Y-109867338D01*
X126884368Y-109993629D01*
X126723629Y-110154368D01*
X126597338Y-110343376D01*
X126510347Y-110553391D01*
X126466000Y-110776341D01*
X126234000Y-110776341D01*
X126189653Y-110553391D01*
X126102662Y-110343376D01*
X125976371Y-110154368D01*
X125815632Y-109993629D01*
X125626624Y-109867338D01*
X125416609Y-109780347D01*
X125193659Y-109736000D01*
X124966341Y-109736000D01*
X124743391Y-109780347D01*
X124533376Y-109867338D01*
X124344368Y-109993629D01*
X124183629Y-110154368D01*
X124057338Y-110343376D01*
X123970347Y-110553391D01*
X123926000Y-110776341D01*
X120431000Y-110776341D01*
X120431000Y-96999236D01*
X121573092Y-95857144D01*
X123944743Y-95857144D01*
X124006968Y-96074641D01*
X124110429Y-96275820D01*
X124251150Y-96452949D01*
X124423724Y-96599221D01*
X124621518Y-96709015D01*
X124836931Y-96778112D01*
X124872856Y-96785257D01*
X125053000Y-96715158D01*
X125053000Y-95677000D01*
X125107000Y-95677000D01*
X125107000Y-96715158D01*
X125287144Y-96785257D01*
X125323069Y-96778112D01*
X125538482Y-96709015D01*
X125736276Y-96599221D01*
X125908850Y-96452949D01*
X126049571Y-96275820D01*
X126153032Y-96074641D01*
X126215257Y-95857144D01*
X126145185Y-95677000D01*
X125107000Y-95677000D01*
X125053000Y-95677000D01*
X124014815Y-95677000D01*
X123944743Y-95857144D01*
X121573092Y-95857144D01*
X121987380Y-95442856D01*
X123944743Y-95442856D01*
X124014815Y-95623000D01*
X125053000Y-95623000D01*
X125053000Y-94584842D01*
X125107000Y-94584842D01*
X125107000Y-95623000D01*
X126145185Y-95623000D01*
X126215257Y-95442856D01*
X126153032Y-95225359D01*
X126049571Y-95024180D01*
X125908850Y-94847051D01*
X125736276Y-94700779D01*
X125538482Y-94590985D01*
X125323069Y-94521888D01*
X125287144Y-94514743D01*
X125107000Y-94584842D01*
X125053000Y-94584842D01*
X124872856Y-94514743D01*
X124836931Y-94521888D01*
X124621518Y-94590985D01*
X124423724Y-94700779D01*
X124251150Y-94847051D01*
X124110429Y-95024180D01*
X124006968Y-95225359D01*
X123944743Y-95442856D01*
X121987380Y-95442856D01*
X124599237Y-92831000D01*
X153991553Y-92831000D01*
X154081465Y-92920912D01*
X154201847Y-93001348D01*
X154335609Y-93056754D01*
X154477609Y-93085000D01*
X154622391Y-93085000D01*
X154764391Y-93056754D01*
X154898153Y-93001348D01*
X155018535Y-92920912D01*
X155120912Y-92818535D01*
X155201348Y-92698153D01*
X155256754Y-92564391D01*
X155285000Y-92422391D01*
X155285000Y-92277609D01*
X155256754Y-92135609D01*
X155201348Y-92001847D01*
X155120912Y-91881465D01*
X155018535Y-91779088D01*
X154898153Y-91698652D01*
X154764391Y-91643246D01*
X154622391Y-91615000D01*
X154477609Y-91615000D01*
X154335609Y-91643246D01*
X154201847Y-91698652D01*
X154081465Y-91779088D01*
X153991553Y-91869000D01*
X124423623Y-91869000D01*
X124399999Y-91866673D01*
X124376375Y-91869000D01*
X124376374Y-91869000D01*
X124305708Y-91875960D01*
X124215039Y-91903464D01*
X124131478Y-91948128D01*
X124058236Y-92008236D01*
X124043175Y-92026588D01*
X119626589Y-96443175D01*
X119608237Y-96458236D01*
X119593176Y-96476588D01*
X119548129Y-96531478D01*
X119503465Y-96615039D01*
X119475960Y-96705708D01*
X119466673Y-96800000D01*
X119469001Y-96823636D01*
X119469000Y-113425763D01*
X118676589Y-114218175D01*
X118658237Y-114233236D01*
X118643176Y-114251588D01*
X118598129Y-114306478D01*
X118553465Y-114390039D01*
X118525960Y-114480708D01*
X118516673Y-114575000D01*
X118519001Y-114598636D01*
X118519000Y-124326374D01*
X118516673Y-124350000D01*
X118519000Y-124373625D01*
X118525960Y-124444291D01*
X118553464Y-124534960D01*
X118598128Y-124618522D01*
X118658236Y-124691764D01*
X118676594Y-124706830D01*
X119619001Y-125649238D01*
X119619001Y-126559294D01*
X119488101Y-126629261D01*
X119318473Y-126768472D01*
X119179262Y-126938100D01*
X119075819Y-127131628D01*
X119012120Y-127341618D01*
X119006370Y-127400000D01*
X118129000Y-127400000D01*
X118129000Y-87358302D01*
X127246000Y-87358302D01*
X127246000Y-87841698D01*
X127340306Y-88315805D01*
X127525293Y-88762405D01*
X127793854Y-89164334D01*
X128135666Y-89506146D01*
X128537595Y-89774707D01*
X128984195Y-89959694D01*
X129458302Y-90054000D01*
X129941698Y-90054000D01*
X130415805Y-89959694D01*
X130862405Y-89774707D01*
X131264334Y-89506146D01*
X131606146Y-89164334D01*
X131874707Y-88762405D01*
X132059694Y-88315805D01*
X132154000Y-87841698D01*
X132154000Y-87358302D01*
X151246000Y-87358302D01*
X151246000Y-87841698D01*
X151340306Y-88315805D01*
X151525293Y-88762405D01*
X151793854Y-89164334D01*
X152135666Y-89506146D01*
X152537595Y-89774707D01*
X152984195Y-89959694D01*
X153458302Y-90054000D01*
X153941698Y-90054000D01*
X154415805Y-89959694D01*
X154862405Y-89774707D01*
X155264334Y-89506146D01*
X155606146Y-89164334D01*
X155874707Y-88762405D01*
X156059694Y-88315805D01*
X156154000Y-87841698D01*
X156154000Y-87358302D01*
X156059694Y-86884195D01*
X155874707Y-86437595D01*
X155606146Y-86035666D01*
X155264334Y-85693854D01*
X154862405Y-85425293D01*
X154415805Y-85240306D01*
X153941698Y-85146000D01*
X153458302Y-85146000D01*
X152984195Y-85240306D01*
X152537595Y-85425293D01*
X152135666Y-85693854D01*
X151793854Y-86035666D01*
X151525293Y-86437595D01*
X151340306Y-86884195D01*
X151246000Y-87358302D01*
X132154000Y-87358302D01*
X132059694Y-86884195D01*
X131874707Y-86437595D01*
X131606146Y-86035666D01*
X131264334Y-85693854D01*
X130862405Y-85425293D01*
X130415805Y-85240306D01*
X129941698Y-85146000D01*
X129458302Y-85146000D01*
X128984195Y-85240306D01*
X128537595Y-85425293D01*
X128135666Y-85693854D01*
X127793854Y-86035666D01*
X127525293Y-86437595D01*
X127340306Y-86884195D01*
X127246000Y-87358302D01*
X118129000Y-87358302D01*
X118129000Y-71129000D01*
X165271001Y-71129000D01*
X165271000Y-127400000D01*
G37*
X165271000Y-127400000D02*
X164393631Y-127400000D01*
X164387881Y-127341618D01*
X164324182Y-127131628D01*
X164220739Y-126938100D01*
X164081528Y-126768472D01*
X163911900Y-126629261D01*
X163718372Y-126525818D01*
X163508382Y-126462119D01*
X163290000Y-126440610D01*
X163071619Y-126462119D01*
X162861629Y-126525818D01*
X162668101Y-126629261D01*
X162498473Y-126768472D01*
X162359262Y-126938100D01*
X162255819Y-127131628D01*
X162192120Y-127341618D01*
X162186370Y-127400000D01*
X161853631Y-127400000D01*
X161847881Y-127341618D01*
X161784182Y-127131628D01*
X161680739Y-126938100D01*
X161541528Y-126768472D01*
X161371900Y-126629261D01*
X161231000Y-126553948D01*
X161231000Y-125473626D01*
X161233327Y-125450000D01*
X161224040Y-125355707D01*
X161196536Y-125265038D01*
X161162562Y-125201478D01*
X161151872Y-125181478D01*
X161091764Y-125108236D01*
X161073406Y-125093170D01*
X157281000Y-121300764D01*
X157281000Y-117382925D01*
X159496000Y-117382925D01*
X159496000Y-117817075D01*
X159580699Y-118242883D01*
X159746841Y-118643985D01*
X159988042Y-119004968D01*
X160295032Y-119311958D01*
X160656015Y-119553159D01*
X161057117Y-119719301D01*
X161482925Y-119804000D01*
X161917075Y-119804000D01*
X162342883Y-119719301D01*
X162743985Y-119553159D01*
X163104968Y-119311958D01*
X163411958Y-119004968D01*
X163653159Y-118643985D01*
X163819301Y-118242883D01*
X163904000Y-117817075D01*
X163904000Y-117382925D01*
X163819301Y-116957117D01*
X163653159Y-116556015D01*
X163411958Y-116195032D01*
X163104968Y-115888042D01*
X162743985Y-115646841D01*
X162342883Y-115480699D01*
X161917075Y-115396000D01*
X161482925Y-115396000D01*
X161057117Y-115480699D01*
X160656015Y-115646841D01*
X160295032Y-115888042D01*
X159988042Y-116195032D01*
X159746841Y-116556015D01*
X159580699Y-116957117D01*
X159496000Y-117382925D01*
X157281000Y-117382925D01*
X157281000Y-111703003D01*
X157364368Y-111786371D01*
X157553376Y-111912662D01*
X157763391Y-111999653D01*
X157986341Y-112044000D01*
X158213659Y-112044000D01*
X158436609Y-111999653D01*
X158646624Y-111912662D01*
X158835632Y-111786371D01*
X158996371Y-111625632D01*
X159122662Y-111436624D01*
X159209653Y-111226609D01*
X159254000Y-111003659D01*
X159254000Y-110776341D01*
X159209653Y-110553391D01*
X159122662Y-110343376D01*
X158996371Y-110154368D01*
X158835632Y-109993629D01*
X158646624Y-109867338D01*
X158436609Y-109780347D01*
X158213659Y-109736000D01*
X157986341Y-109736000D01*
X157763391Y-109780347D01*
X157553376Y-109867338D01*
X157364368Y-109993629D01*
X157281000Y-110076997D01*
X157281000Y-106980000D01*
X160574287Y-106980000D01*
X160581122Y-107049396D01*
X160601364Y-107116125D01*
X160634235Y-107177624D01*
X160678473Y-107231527D01*
X160732376Y-107275765D01*
X160793875Y-107308636D01*
X160860604Y-107328878D01*
X160930000Y-107335713D01*
X161714500Y-107334000D01*
X161803000Y-107245500D01*
X161803000Y-106457000D01*
X161857000Y-106457000D01*
X161857000Y-107245500D01*
X161945500Y-107334000D01*
X162644288Y-107335526D01*
X162644288Y-108250000D01*
X162651123Y-108319396D01*
X162671365Y-108386125D01*
X162704236Y-108447623D01*
X162748474Y-108501526D01*
X162802377Y-108545764D01*
X162863875Y-108578635D01*
X162930604Y-108598877D01*
X163000000Y-108605712D01*
X164800000Y-108605712D01*
X164869396Y-108598877D01*
X164936125Y-108578635D01*
X164997623Y-108545764D01*
X165051526Y-108501526D01*
X165095764Y-108447623D01*
X165128635Y-108386125D01*
X165148877Y-108319396D01*
X165155712Y-108250000D01*
X165155712Y-107150000D01*
X165148877Y-107080604D01*
X165128635Y-107013875D01*
X165095764Y-106952377D01*
X165051526Y-106898474D01*
X164997623Y-106854236D01*
X164936125Y-106821365D01*
X164869396Y-106801123D01*
X164800000Y-106794288D01*
X163084981Y-106794288D01*
X163084000Y-106545500D01*
X162995500Y-106457000D01*
X161857000Y-106457000D01*
X161803000Y-106457000D01*
X160664500Y-106457000D01*
X160576000Y-106545500D01*
X160574287Y-106980000D01*
X157281000Y-106980000D01*
X157281000Y-105880000D01*
X160574287Y-105880000D01*
X160576000Y-106314500D01*
X160664500Y-106403000D01*
X161803000Y-106403000D01*
X161803000Y-105614500D01*
X161857000Y-105614500D01*
X161857000Y-106403000D01*
X162995500Y-106403000D01*
X163084000Y-106314500D01*
X163085109Y-106033316D01*
X163151954Y-106053593D01*
X163275000Y-106065712D01*
X164525000Y-106065712D01*
X164648046Y-106053593D01*
X164766363Y-106017702D01*
X164875405Y-105959418D01*
X164970981Y-105880981D01*
X165049418Y-105785405D01*
X165107702Y-105676363D01*
X165143593Y-105558046D01*
X165155712Y-105435000D01*
X165155712Y-104885000D01*
X165143593Y-104761954D01*
X165107702Y-104643637D01*
X165049418Y-104534595D01*
X164970981Y-104439019D01*
X164875405Y-104360582D01*
X164766363Y-104302298D01*
X164648046Y-104266407D01*
X164525000Y-104254288D01*
X163275000Y-104254288D01*
X163151954Y-104266407D01*
X163033637Y-104302298D01*
X162924595Y-104360582D01*
X162829019Y-104439019D01*
X162750582Y-104534595D01*
X162692298Y-104643637D01*
X162656407Y-104761954D01*
X162644288Y-104885000D01*
X162644288Y-105435000D01*
X162653099Y-105524455D01*
X161945500Y-105526000D01*
X161857000Y-105614500D01*
X161803000Y-105614500D01*
X161714500Y-105526000D01*
X160930000Y-105524287D01*
X160860604Y-105531122D01*
X160793875Y-105551364D01*
X160732376Y-105584235D01*
X160678473Y-105628473D01*
X160634235Y-105682376D01*
X160601364Y-105743875D01*
X160581122Y-105810604D01*
X160574287Y-105880000D01*
X157281000Y-105880000D01*
X157281000Y-102823623D01*
X157283327Y-102799999D01*
X157281000Y-102776374D01*
X157274040Y-102705708D01*
X157246536Y-102615039D01*
X157201872Y-102531478D01*
X157141764Y-102458236D01*
X157123412Y-102443175D01*
X153501000Y-98820764D01*
X153501000Y-96699844D01*
X153566624Y-96672662D01*
X153755632Y-96546371D01*
X153916371Y-96385632D01*
X154042662Y-96196624D01*
X154129653Y-95986609D01*
X154174000Y-95763659D01*
X154174000Y-95536341D01*
X154406000Y-95536341D01*
X154406000Y-95763659D01*
X154450347Y-95986609D01*
X154537338Y-96196624D01*
X154663629Y-96385632D01*
X154824368Y-96546371D01*
X155013376Y-96672662D01*
X155223391Y-96759653D01*
X155446341Y-96804000D01*
X155673659Y-96804000D01*
X155896609Y-96759653D01*
X156106624Y-96672662D01*
X156295632Y-96546371D01*
X156456371Y-96385632D01*
X156582662Y-96196624D01*
X156669653Y-95986609D01*
X156714000Y-95763659D01*
X156714000Y-95536341D01*
X156669653Y-95313391D01*
X156582662Y-95103376D01*
X156456371Y-94914368D01*
X156392003Y-94850000D01*
X156944288Y-94850000D01*
X156944288Y-96450000D01*
X156951123Y-96519396D01*
X156971365Y-96586125D01*
X157004236Y-96647623D01*
X157048474Y-96701526D01*
X157102377Y-96745764D01*
X157163875Y-96778635D01*
X157230604Y-96798877D01*
X157300000Y-96805712D01*
X158900000Y-96805712D01*
X158969396Y-96798877D01*
X159036125Y-96778635D01*
X159097623Y-96745764D01*
X159151526Y-96701526D01*
X159195764Y-96647623D01*
X159228635Y-96586125D01*
X159248877Y-96519396D01*
X159255712Y-96450000D01*
X159255712Y-94850000D01*
X159248877Y-94780604D01*
X159228635Y-94713875D01*
X159195764Y-94652377D01*
X159151526Y-94598474D01*
X159097623Y-94554236D01*
X159036125Y-94521365D01*
X158969396Y-94501123D01*
X158900000Y-94494288D01*
X157300000Y-94494288D01*
X157230604Y-94501123D01*
X157163875Y-94521365D01*
X157102377Y-94554236D01*
X157048474Y-94598474D01*
X157004236Y-94652377D01*
X156971365Y-94713875D01*
X156951123Y-94780604D01*
X156944288Y-94850000D01*
X156392003Y-94850000D01*
X156295632Y-94753629D01*
X156106624Y-94627338D01*
X155896609Y-94540347D01*
X155673659Y-94496000D01*
X155446341Y-94496000D01*
X155223391Y-94540347D01*
X155013376Y-94627338D01*
X154824368Y-94753629D01*
X154663629Y-94914368D01*
X154537338Y-95103376D01*
X154450347Y-95313391D01*
X154406000Y-95536341D01*
X154174000Y-95536341D01*
X154129653Y-95313391D01*
X154042662Y-95103376D01*
X153916371Y-94914368D01*
X153755632Y-94753629D01*
X153566624Y-94627338D01*
X153356609Y-94540347D01*
X153133659Y-94496000D01*
X152906341Y-94496000D01*
X152683391Y-94540347D01*
X152473376Y-94627338D01*
X152284368Y-94753629D01*
X152123629Y-94914368D01*
X151997338Y-95103376D01*
X151910347Y-95313391D01*
X151866000Y-95536341D01*
X151866000Y-95763659D01*
X151910347Y-95986609D01*
X151997338Y-96196624D01*
X152123629Y-96385632D01*
X152284368Y-96546371D01*
X152473376Y-96672662D01*
X152539001Y-96699845D01*
X152539000Y-98996374D01*
X152536673Y-99020000D01*
X152540613Y-99060000D01*
X152545960Y-99114291D01*
X152573464Y-99204960D01*
X152618128Y-99288522D01*
X152678236Y-99361764D01*
X152696594Y-99376830D01*
X156319000Y-102999237D01*
X156319000Y-110016997D01*
X156295632Y-109993629D01*
X156106624Y-109867338D01*
X155896609Y-109780347D01*
X155673659Y-109736000D01*
X155446341Y-109736000D01*
X155223391Y-109780347D01*
X155013376Y-109867338D01*
X154824368Y-109993629D01*
X154781000Y-110036997D01*
X154781000Y-102823626D01*
X154783327Y-102800000D01*
X154774040Y-102705707D01*
X154765142Y-102676374D01*
X154746536Y-102615039D01*
X154701872Y-102531478D01*
X154641764Y-102458236D01*
X154623412Y-102443175D01*
X150961000Y-98780764D01*
X150961000Y-96699844D01*
X151026624Y-96672662D01*
X151215632Y-96546371D01*
X151376371Y-96385632D01*
X151502662Y-96196624D01*
X151589653Y-95986609D01*
X151634000Y-95763659D01*
X151634000Y-95536341D01*
X151589653Y-95313391D01*
X151502662Y-95103376D01*
X151376371Y-94914368D01*
X151215632Y-94753629D01*
X151026624Y-94627338D01*
X150816609Y-94540347D01*
X150593659Y-94496000D01*
X150366341Y-94496000D01*
X150143391Y-94540347D01*
X149933376Y-94627338D01*
X149744368Y-94753629D01*
X149583629Y-94914368D01*
X149457338Y-95103376D01*
X149370347Y-95313391D01*
X149326000Y-95536341D01*
X149326000Y-95763659D01*
X149370347Y-95986609D01*
X149457338Y-96196624D01*
X149583629Y-96385632D01*
X149744368Y-96546371D01*
X149933376Y-96672662D01*
X149999001Y-96699845D01*
X149999000Y-98956374D01*
X149996673Y-98980000D01*
X150000613Y-99020000D01*
X150005960Y-99074291D01*
X150033464Y-99164960D01*
X150078128Y-99248522D01*
X150138236Y-99321764D01*
X150156594Y-99336830D01*
X153819000Y-102999237D01*
X153819000Y-110056997D01*
X153755632Y-109993629D01*
X153566624Y-109867338D01*
X153356609Y-109780347D01*
X153133659Y-109736000D01*
X152906341Y-109736000D01*
X152683391Y-109780347D01*
X152473376Y-109867338D01*
X152284368Y-109993629D01*
X152281000Y-109996997D01*
X152281000Y-102823623D01*
X152283327Y-102799999D01*
X152281000Y-102776374D01*
X152274040Y-102705708D01*
X152246536Y-102615039D01*
X152201872Y-102531478D01*
X152141764Y-102458236D01*
X152123412Y-102443175D01*
X148421000Y-98740764D01*
X148421000Y-96699844D01*
X148486624Y-96672662D01*
X148675632Y-96546371D01*
X148836371Y-96385632D01*
X148962662Y-96196624D01*
X149049653Y-95986609D01*
X149094000Y-95763659D01*
X149094000Y-95536341D01*
X149049653Y-95313391D01*
X148962662Y-95103376D01*
X148836371Y-94914368D01*
X148675632Y-94753629D01*
X148486624Y-94627338D01*
X148276609Y-94540347D01*
X148053659Y-94496000D01*
X147826341Y-94496000D01*
X147603391Y-94540347D01*
X147393376Y-94627338D01*
X147204368Y-94753629D01*
X147043629Y-94914368D01*
X146917338Y-95103376D01*
X146830347Y-95313391D01*
X146786000Y-95536341D01*
X146786000Y-95763659D01*
X146830347Y-95986609D01*
X146917338Y-96196624D01*
X147043629Y-96385632D01*
X147204368Y-96546371D01*
X147393376Y-96672662D01*
X147459001Y-96699845D01*
X147459000Y-98916374D01*
X147456673Y-98940000D01*
X147465960Y-99034291D01*
X147493464Y-99124960D01*
X147538128Y-99208522D01*
X147598236Y-99281764D01*
X147616594Y-99296830D01*
X151319000Y-102999237D01*
X151319000Y-110096997D01*
X151215632Y-109993629D01*
X151026624Y-109867338D01*
X150816609Y-109780347D01*
X150593659Y-109736000D01*
X150366341Y-109736000D01*
X150143391Y-109780347D01*
X149933376Y-109867338D01*
X149744368Y-109993629D01*
X149681000Y-110056997D01*
X149681000Y-102823627D01*
X149683327Y-102800000D01*
X149674040Y-102705707D01*
X149646536Y-102615038D01*
X149601871Y-102531477D01*
X149597858Y-102526587D01*
X149541764Y-102458236D01*
X149523406Y-102443170D01*
X145881000Y-98800764D01*
X145881000Y-96699844D01*
X145946624Y-96672662D01*
X146135632Y-96546371D01*
X146296371Y-96385632D01*
X146422662Y-96196624D01*
X146509653Y-95986609D01*
X146554000Y-95763659D01*
X146554000Y-95536341D01*
X146509653Y-95313391D01*
X146422662Y-95103376D01*
X146296371Y-94914368D01*
X146135632Y-94753629D01*
X145946624Y-94627338D01*
X145736609Y-94540347D01*
X145513659Y-94496000D01*
X145286341Y-94496000D01*
X145063391Y-94540347D01*
X144853376Y-94627338D01*
X144664368Y-94753629D01*
X144503629Y-94914368D01*
X144377338Y-95103376D01*
X144290347Y-95313391D01*
X144246000Y-95536341D01*
X144246000Y-95763659D01*
X144290347Y-95986609D01*
X144377338Y-96196624D01*
X144503629Y-96385632D01*
X144664368Y-96546371D01*
X144853376Y-96672662D01*
X144919001Y-96699845D01*
X144919000Y-98976374D01*
X144916673Y-99000000D01*
X144925960Y-99094291D01*
X144953464Y-99184960D01*
X144998128Y-99268522D01*
X145058236Y-99341764D01*
X145076594Y-99356830D01*
X148719000Y-102999236D01*
X148719000Y-110036997D01*
X148675632Y-109993629D01*
X148486624Y-109867338D01*
X148276609Y-109780347D01*
X148053659Y-109736000D01*
X147826341Y-109736000D01*
X147603391Y-109780347D01*
X147393376Y-109867338D01*
X147204368Y-109993629D01*
X147131000Y-110066997D01*
X147131000Y-102873623D01*
X147133327Y-102849999D01*
X147127840Y-102794292D01*
X147124040Y-102755708D01*
X147096536Y-102665039D01*
X147051872Y-102581478D01*
X146991764Y-102508236D01*
X146973412Y-102493175D01*
X143341000Y-98860764D01*
X143341000Y-96699844D01*
X143406624Y-96672662D01*
X143595632Y-96546371D01*
X143756371Y-96385632D01*
X143882662Y-96196624D01*
X143969653Y-95986609D01*
X144014000Y-95763659D01*
X144014000Y-95536341D01*
X143969653Y-95313391D01*
X143882662Y-95103376D01*
X143756371Y-94914368D01*
X143595632Y-94753629D01*
X143406624Y-94627338D01*
X143196609Y-94540347D01*
X142973659Y-94496000D01*
X142746341Y-94496000D01*
X142523391Y-94540347D01*
X142313376Y-94627338D01*
X142124368Y-94753629D01*
X141963629Y-94914368D01*
X141837338Y-95103376D01*
X141750347Y-95313391D01*
X141706000Y-95536341D01*
X141706000Y-95763659D01*
X141750347Y-95986609D01*
X141837338Y-96196624D01*
X141963629Y-96385632D01*
X142124368Y-96546371D01*
X142313376Y-96672662D01*
X142379001Y-96699845D01*
X142379000Y-99036374D01*
X142376673Y-99060000D01*
X142381101Y-99104960D01*
X142385960Y-99154291D01*
X142413464Y-99244960D01*
X142458128Y-99328522D01*
X142518236Y-99401764D01*
X142536594Y-99416830D01*
X146169000Y-103049237D01*
X146169000Y-110026997D01*
X146135632Y-109993629D01*
X145946624Y-109867338D01*
X145736609Y-109780347D01*
X145513659Y-109736000D01*
X145286341Y-109736000D01*
X145063391Y-109780347D01*
X144853376Y-109867338D01*
X144664368Y-109993629D01*
X144581000Y-110076997D01*
X144581000Y-102723623D01*
X144583327Y-102699999D01*
X144581000Y-102676374D01*
X144574040Y-102605708D01*
X144546536Y-102515039D01*
X144501872Y-102431478D01*
X144441764Y-102358236D01*
X144423412Y-102343175D01*
X140801000Y-98720764D01*
X140801000Y-96699844D01*
X140866624Y-96672662D01*
X141055632Y-96546371D01*
X141216371Y-96385632D01*
X141342662Y-96196624D01*
X141429653Y-95986609D01*
X141474000Y-95763659D01*
X141474000Y-95536341D01*
X141429653Y-95313391D01*
X141342662Y-95103376D01*
X141216371Y-94914368D01*
X141055632Y-94753629D01*
X140866624Y-94627338D01*
X140656609Y-94540347D01*
X140433659Y-94496000D01*
X140206341Y-94496000D01*
X139983391Y-94540347D01*
X139773376Y-94627338D01*
X139584368Y-94753629D01*
X139423629Y-94914368D01*
X139297338Y-95103376D01*
X139210347Y-95313391D01*
X139166000Y-95536341D01*
X139166000Y-95763659D01*
X139210347Y-95986609D01*
X139297338Y-96196624D01*
X139423629Y-96385632D01*
X139584368Y-96546371D01*
X139773376Y-96672662D01*
X139839001Y-96699845D01*
X139839000Y-98896374D01*
X139836673Y-98920000D01*
X139845960Y-99014291D01*
X139873464Y-99104960D01*
X139918128Y-99188522D01*
X139978236Y-99261764D01*
X139996594Y-99276830D01*
X143619000Y-102899237D01*
X143619001Y-110016998D01*
X143595632Y-109993629D01*
X143406624Y-109867338D01*
X143196609Y-109780347D01*
X142973659Y-109736000D01*
X142746341Y-109736000D01*
X142523391Y-109780347D01*
X142313376Y-109867338D01*
X142124368Y-109993629D01*
X142081000Y-110036997D01*
X142081000Y-102823626D01*
X142083327Y-102800000D01*
X142074040Y-102705707D01*
X142065142Y-102676374D01*
X142046536Y-102615039D01*
X142001872Y-102531478D01*
X141941764Y-102458236D01*
X141923412Y-102443175D01*
X138261000Y-98780764D01*
X138261000Y-96699844D01*
X138326624Y-96672662D01*
X138515632Y-96546371D01*
X138676371Y-96385632D01*
X138802662Y-96196624D01*
X138889653Y-95986609D01*
X138934000Y-95763659D01*
X138934000Y-95536341D01*
X138889653Y-95313391D01*
X138802662Y-95103376D01*
X138676371Y-94914368D01*
X138515632Y-94753629D01*
X138326624Y-94627338D01*
X138116609Y-94540347D01*
X137893659Y-94496000D01*
X137666341Y-94496000D01*
X137443391Y-94540347D01*
X137233376Y-94627338D01*
X137044368Y-94753629D01*
X136883629Y-94914368D01*
X136757338Y-95103376D01*
X136670347Y-95313391D01*
X136626000Y-95536341D01*
X136626000Y-95763659D01*
X136670347Y-95986609D01*
X136757338Y-96196624D01*
X136883629Y-96385632D01*
X137044368Y-96546371D01*
X137233376Y-96672662D01*
X137299001Y-96699845D01*
X137299000Y-98956374D01*
X137296673Y-98980000D01*
X137300613Y-99020000D01*
X137305960Y-99074291D01*
X137333464Y-99164960D01*
X137378128Y-99248522D01*
X137438236Y-99321764D01*
X137456594Y-99336830D01*
X141119000Y-102999237D01*
X141119001Y-110056998D01*
X141055632Y-109993629D01*
X140866624Y-109867338D01*
X140656609Y-109780347D01*
X140433659Y-109736000D01*
X140206341Y-109736000D01*
X139983391Y-109780347D01*
X139773376Y-109867338D01*
X139584368Y-109993629D01*
X139481000Y-110096997D01*
X139481000Y-102723626D01*
X139483327Y-102700000D01*
X139474040Y-102605707D01*
X139465696Y-102578203D01*
X139446536Y-102515039D01*
X139401872Y-102431478D01*
X139341764Y-102358236D01*
X139323412Y-102343175D01*
X135721000Y-98740764D01*
X135721000Y-96699844D01*
X135786624Y-96672662D01*
X135975632Y-96546371D01*
X136136371Y-96385632D01*
X136262662Y-96196624D01*
X136349653Y-95986609D01*
X136394000Y-95763659D01*
X136394000Y-95536341D01*
X136349653Y-95313391D01*
X136262662Y-95103376D01*
X136136371Y-94914368D01*
X135975632Y-94753629D01*
X135786624Y-94627338D01*
X135576609Y-94540347D01*
X135353659Y-94496000D01*
X135126341Y-94496000D01*
X134903391Y-94540347D01*
X134693376Y-94627338D01*
X134504368Y-94753629D01*
X134343629Y-94914368D01*
X134217338Y-95103376D01*
X134130347Y-95313391D01*
X134086000Y-95536341D01*
X134086000Y-95763659D01*
X134130347Y-95986609D01*
X134217338Y-96196624D01*
X134343629Y-96385632D01*
X134504368Y-96546371D01*
X134693376Y-96672662D01*
X134759001Y-96699845D01*
X134759000Y-98916374D01*
X134756673Y-98940000D01*
X134765960Y-99034291D01*
X134793464Y-99124960D01*
X134838128Y-99208522D01*
X134898236Y-99281764D01*
X134916594Y-99296830D01*
X138519000Y-102899237D01*
X138519001Y-109996998D01*
X138515632Y-109993629D01*
X138326624Y-109867338D01*
X138116609Y-109780347D01*
X137893659Y-109736000D01*
X137666341Y-109736000D01*
X137443391Y-109780347D01*
X137233376Y-109867338D01*
X137044368Y-109993629D01*
X136981000Y-110056997D01*
X136981000Y-102823627D01*
X136983327Y-102800000D01*
X136974040Y-102705707D01*
X136946536Y-102615038D01*
X136901871Y-102531477D01*
X136897858Y-102526587D01*
X136841764Y-102458236D01*
X136823406Y-102443170D01*
X133181000Y-98800764D01*
X133181000Y-96699844D01*
X133246624Y-96672662D01*
X133435632Y-96546371D01*
X133596371Y-96385632D01*
X133722662Y-96196624D01*
X133809653Y-95986609D01*
X133854000Y-95763659D01*
X133854000Y-95536341D01*
X133809653Y-95313391D01*
X133722662Y-95103376D01*
X133596371Y-94914368D01*
X133435632Y-94753629D01*
X133246624Y-94627338D01*
X133036609Y-94540347D01*
X132813659Y-94496000D01*
X132586341Y-94496000D01*
X132363391Y-94540347D01*
X132153376Y-94627338D01*
X131964368Y-94753629D01*
X131803629Y-94914368D01*
X131677338Y-95103376D01*
X131590347Y-95313391D01*
X131546000Y-95536341D01*
X131546000Y-95763659D01*
X131590347Y-95986609D01*
X131677338Y-96196624D01*
X131803629Y-96385632D01*
X131964368Y-96546371D01*
X132153376Y-96672662D01*
X132219000Y-96699844D01*
X132219001Y-98976364D01*
X132216673Y-99000000D01*
X132225960Y-99094292D01*
X132247398Y-99164960D01*
X132253465Y-99184961D01*
X132298129Y-99268522D01*
X132358237Y-99341764D01*
X132376589Y-99356825D01*
X136019000Y-102999236D01*
X136019000Y-110036997D01*
X135975632Y-109993629D01*
X135786624Y-109867338D01*
X135576609Y-109780347D01*
X135353659Y-109736000D01*
X135126341Y-109736000D01*
X134903391Y-109780347D01*
X134693376Y-109867338D01*
X134504368Y-109993629D01*
X134481000Y-110016997D01*
X134481000Y-102823626D01*
X134483327Y-102799999D01*
X134474040Y-102705707D01*
X134465142Y-102676374D01*
X134446536Y-102615039D01*
X134401872Y-102531478D01*
X134341764Y-102458236D01*
X134323412Y-102443175D01*
X130641000Y-98760764D01*
X130641000Y-96699844D01*
X130706624Y-96672662D01*
X130895632Y-96546371D01*
X131056371Y-96385632D01*
X131182662Y-96196624D01*
X131269653Y-95986609D01*
X131314000Y-95763659D01*
X131314000Y-95536341D01*
X131269653Y-95313391D01*
X131182662Y-95103376D01*
X131056371Y-94914368D01*
X130895632Y-94753629D01*
X130706624Y-94627338D01*
X130496609Y-94540347D01*
X130273659Y-94496000D01*
X130046341Y-94496000D01*
X129823391Y-94540347D01*
X129613376Y-94627338D01*
X129424368Y-94753629D01*
X129263629Y-94914368D01*
X129137338Y-95103376D01*
X129050347Y-95313391D01*
X129006000Y-95536341D01*
X129006000Y-95763659D01*
X129050347Y-95986609D01*
X129137338Y-96196624D01*
X129263629Y-96385632D01*
X129424368Y-96546371D01*
X129613376Y-96672662D01*
X129679001Y-96699845D01*
X129679000Y-98936374D01*
X129676673Y-98960000D01*
X129685960Y-99054291D01*
X129713464Y-99144960D01*
X129758128Y-99228522D01*
X129818236Y-99301764D01*
X129836594Y-99316830D01*
X133519000Y-102999237D01*
X133519000Y-110076997D01*
X133435632Y-109993629D01*
X133246624Y-109867338D01*
X133036609Y-109780347D01*
X132813659Y-109736000D01*
X132586341Y-109736000D01*
X132363391Y-109780347D01*
X132153376Y-109867338D01*
X131964368Y-109993629D01*
X131881000Y-110076997D01*
X131881000Y-102823623D01*
X131883327Y-102799999D01*
X131881000Y-102776374D01*
X131874040Y-102705708D01*
X131846536Y-102615039D01*
X131801872Y-102531478D01*
X131741764Y-102458236D01*
X131723412Y-102443175D01*
X128101000Y-98820764D01*
X128101000Y-96699844D01*
X128166624Y-96672662D01*
X128355632Y-96546371D01*
X128516371Y-96385632D01*
X128642662Y-96196624D01*
X128729653Y-95986609D01*
X128774000Y-95763659D01*
X128774000Y-95536341D01*
X128729653Y-95313391D01*
X128642662Y-95103376D01*
X128516371Y-94914368D01*
X128355632Y-94753629D01*
X128166624Y-94627338D01*
X127956609Y-94540347D01*
X127733659Y-94496000D01*
X127506341Y-94496000D01*
X127283391Y-94540347D01*
X127073376Y-94627338D01*
X126884368Y-94753629D01*
X126723629Y-94914368D01*
X126597338Y-95103376D01*
X126510347Y-95313391D01*
X126466000Y-95536341D01*
X126466000Y-95763659D01*
X126510347Y-95986609D01*
X126597338Y-96196624D01*
X126723629Y-96385632D01*
X126884368Y-96546371D01*
X127073376Y-96672662D01*
X127139001Y-96699845D01*
X127139000Y-98996374D01*
X127136673Y-99020000D01*
X127140613Y-99060000D01*
X127145960Y-99114291D01*
X127173464Y-99204960D01*
X127218128Y-99288522D01*
X127278236Y-99361764D01*
X127296594Y-99376830D01*
X130919000Y-102999237D01*
X130919000Y-110016997D01*
X130895632Y-109993629D01*
X130706624Y-109867338D01*
X130496609Y-109780347D01*
X130273659Y-109736000D01*
X130046341Y-109736000D01*
X129823391Y-109780347D01*
X129613376Y-109867338D01*
X129424368Y-109993629D01*
X129263629Y-110154368D01*
X129137338Y-110343376D01*
X129050347Y-110553391D01*
X129006000Y-110776341D01*
X129006000Y-111003659D01*
X129050347Y-111226609D01*
X129137338Y-111436624D01*
X129263629Y-111625632D01*
X129424368Y-111786371D01*
X129613376Y-111912662D01*
X129823391Y-111999653D01*
X130046341Y-112044000D01*
X130273659Y-112044000D01*
X130496609Y-111999653D01*
X130706624Y-111912662D01*
X130895632Y-111786371D01*
X130919000Y-111763003D01*
X130919001Y-121476364D01*
X130916673Y-121500000D01*
X130925960Y-121594292D01*
X130927692Y-121600000D01*
X130953465Y-121684961D01*
X130998129Y-121768522D01*
X131058237Y-121841764D01*
X131076589Y-121856825D01*
X134869000Y-125649236D01*
X134869000Y-126553949D01*
X134728101Y-126629261D01*
X134558473Y-126768472D01*
X134419262Y-126938100D01*
X134315819Y-127131628D01*
X134252120Y-127341618D01*
X134246370Y-127400000D01*
X133907638Y-127400000D01*
X133897327Y-127316188D01*
X133828869Y-127108746D01*
X133721256Y-126918645D01*
X133578624Y-126753191D01*
X133406454Y-126618743D01*
X133211363Y-126520467D01*
X133010884Y-126464262D01*
X132837000Y-126534855D01*
X132837000Y-127400000D01*
X132783000Y-127400000D01*
X132783000Y-126534855D01*
X132609116Y-126464262D01*
X132408637Y-126520467D01*
X132213546Y-126618743D01*
X132041376Y-126753191D01*
X131898744Y-126918645D01*
X131791131Y-127108746D01*
X131722673Y-127316188D01*
X131712362Y-127400000D01*
X131367638Y-127400000D01*
X131357327Y-127316188D01*
X131288869Y-127108746D01*
X131181256Y-126918645D01*
X131038624Y-126753191D01*
X130866454Y-126618743D01*
X130671363Y-126520467D01*
X130470884Y-126464262D01*
X130297000Y-126534855D01*
X130297000Y-127400000D01*
X130243000Y-127400000D01*
X130243000Y-126534855D01*
X130069116Y-126464262D01*
X129868637Y-126520467D01*
X129673546Y-126618743D01*
X129501376Y-126753191D01*
X129358744Y-126918645D01*
X129251131Y-127108746D01*
X129182673Y-127316188D01*
X129172362Y-127400000D01*
X128833631Y-127400000D01*
X128827881Y-127341618D01*
X128764182Y-127131628D01*
X128660739Y-126938100D01*
X128521528Y-126768472D01*
X128351900Y-126629261D01*
X128211000Y-126553948D01*
X128211000Y-125828449D01*
X128270912Y-125768537D01*
X128351348Y-125648155D01*
X128406754Y-125514393D01*
X128435000Y-125372393D01*
X128435000Y-125227611D01*
X128406754Y-125085611D01*
X128351348Y-124951849D01*
X128270912Y-124831467D01*
X128168535Y-124729090D01*
X128048153Y-124648654D01*
X127914391Y-124593248D01*
X127772391Y-124565002D01*
X127627609Y-124565002D01*
X127485609Y-124593248D01*
X127351847Y-124648654D01*
X127231465Y-124729090D01*
X127129088Y-124831467D01*
X127048652Y-124951849D01*
X126993246Y-125085611D01*
X126965000Y-125227611D01*
X126965000Y-125372393D01*
X126993246Y-125514393D01*
X127048652Y-125648155D01*
X127129088Y-125768537D01*
X127231465Y-125870914D01*
X127249001Y-125882631D01*
X127249001Y-126553948D01*
X127108101Y-126629261D01*
X126938473Y-126768472D01*
X126799262Y-126938100D01*
X126695819Y-127131628D01*
X126632120Y-127341618D01*
X126626370Y-127400000D01*
X126293631Y-127400000D01*
X126287881Y-127341618D01*
X126224182Y-127131628D01*
X126120739Y-126938100D01*
X125981528Y-126768472D01*
X125811900Y-126629261D01*
X125671000Y-126553948D01*
X125671000Y-125609236D01*
X126673412Y-124606825D01*
X126691764Y-124591764D01*
X126751872Y-124518522D01*
X126791549Y-124444291D01*
X126796536Y-124434962D01*
X126824040Y-124344293D01*
X126833327Y-124250000D01*
X126831000Y-124226374D01*
X126831000Y-113808455D01*
X126920912Y-113718543D01*
X127001348Y-113598161D01*
X127056754Y-113464399D01*
X127085000Y-113322399D01*
X127085000Y-113177617D01*
X127056754Y-113035617D01*
X127001348Y-112901855D01*
X126920912Y-112781473D01*
X126818535Y-112679096D01*
X126698153Y-112598660D01*
X126564391Y-112543254D01*
X126422391Y-112515008D01*
X126277609Y-112515008D01*
X126135609Y-112543254D01*
X126001847Y-112598660D01*
X125881465Y-112679096D01*
X125779088Y-112781473D01*
X125698652Y-112901855D01*
X125643246Y-113035617D01*
X125615000Y-113177617D01*
X125615000Y-113322399D01*
X125643246Y-113464399D01*
X125698652Y-113598161D01*
X125779088Y-113718543D01*
X125869001Y-113808456D01*
X125869000Y-124050763D01*
X124866589Y-125053175D01*
X124848237Y-125068236D01*
X124826853Y-125094292D01*
X124788129Y-125141478D01*
X124743465Y-125225039D01*
X124715960Y-125315708D01*
X124706673Y-125410000D01*
X124709001Y-125433636D01*
X124709001Y-126553948D01*
X124568101Y-126629261D01*
X124398473Y-126768472D01*
X124259262Y-126938100D01*
X124155819Y-127131628D01*
X124092120Y-127341618D01*
X124086370Y-127400000D01*
X123753631Y-127400000D01*
X123747881Y-127341618D01*
X123684182Y-127131628D01*
X123580739Y-126938100D01*
X123441528Y-126768472D01*
X123271900Y-126629261D01*
X123131000Y-126553948D01*
X123131000Y-125649236D01*
X125023412Y-123756825D01*
X125041764Y-123741764D01*
X125101872Y-123668522D01*
X125146536Y-123584961D01*
X125174040Y-123494292D01*
X125181000Y-123423626D01*
X125181000Y-123423625D01*
X125183327Y-123400000D01*
X125181000Y-123376374D01*
X125181000Y-114473615D01*
X125183327Y-114449991D01*
X125177422Y-114390039D01*
X125174040Y-114355700D01*
X125146536Y-114265031D01*
X125101872Y-114181470D01*
X125041764Y-114108228D01*
X125023412Y-114093167D01*
X123535006Y-112604762D01*
X123535006Y-112477607D01*
X123506760Y-112335607D01*
X123451354Y-112201845D01*
X123370918Y-112081463D01*
X123268541Y-111979086D01*
X123148159Y-111898650D01*
X123014397Y-111843244D01*
X122872397Y-111814998D01*
X122727615Y-111814998D01*
X122585615Y-111843244D01*
X122451853Y-111898650D01*
X122331471Y-111979086D01*
X122229094Y-112081463D01*
X122148658Y-112201845D01*
X122093252Y-112335607D01*
X122065006Y-112477607D01*
X122065006Y-112622389D01*
X122093252Y-112764389D01*
X122148658Y-112898151D01*
X122229094Y-113018533D01*
X122331471Y-113120910D01*
X122451853Y-113201346D01*
X122585615Y-113256752D01*
X122727615Y-113284998D01*
X122854770Y-113284998D01*
X124219001Y-114649230D01*
X124219000Y-123200763D01*
X122326589Y-125093175D01*
X122308237Y-125108236D01*
X122280957Y-125141477D01*
X122248129Y-125181478D01*
X122203465Y-125265039D01*
X122175960Y-125355708D01*
X122166673Y-125450000D01*
X122169001Y-125473636D01*
X122169001Y-126553948D01*
X122028101Y-126629261D01*
X121858473Y-126768472D01*
X121719262Y-126938100D01*
X121615819Y-127131628D01*
X121552120Y-127341618D01*
X121546370Y-127400000D01*
X121213631Y-127400000D01*
X121207881Y-127341618D01*
X121144182Y-127131628D01*
X121040739Y-126938100D01*
X120901528Y-126768472D01*
X120731900Y-126629261D01*
X120581000Y-126548603D01*
X120581000Y-125473626D01*
X120583327Y-125450000D01*
X120574040Y-125355707D01*
X120552603Y-125285040D01*
X120546536Y-125265039D01*
X120501872Y-125181478D01*
X120441764Y-125108236D01*
X120423412Y-125093175D01*
X119481000Y-124150764D01*
X119481000Y-117382925D01*
X119496000Y-117382925D01*
X119496000Y-117817075D01*
X119580699Y-118242883D01*
X119746841Y-118643985D01*
X119988042Y-119004968D01*
X120295032Y-119311958D01*
X120656015Y-119553159D01*
X121057117Y-119719301D01*
X121482925Y-119804000D01*
X121917075Y-119804000D01*
X122342883Y-119719301D01*
X122743985Y-119553159D01*
X123104968Y-119311958D01*
X123411958Y-119004968D01*
X123653159Y-118643985D01*
X123819301Y-118242883D01*
X123904000Y-117817075D01*
X123904000Y-117382925D01*
X123819301Y-116957117D01*
X123653159Y-116556015D01*
X123411958Y-116195032D01*
X123104968Y-115888042D01*
X122743985Y-115646841D01*
X122342883Y-115480699D01*
X121917075Y-115396000D01*
X121482925Y-115396000D01*
X121057117Y-115480699D01*
X120656015Y-115646841D01*
X120295032Y-115888042D01*
X119988042Y-116195032D01*
X119746841Y-116556015D01*
X119580699Y-116957117D01*
X119496000Y-117382925D01*
X119481000Y-117382925D01*
X119481000Y-114774236D01*
X120273411Y-113981825D01*
X120291764Y-113966764D01*
X120351872Y-113893522D01*
X120396536Y-113809961D01*
X120424040Y-113719292D01*
X120430303Y-113655708D01*
X120433327Y-113625000D01*
X120431000Y-113601374D01*
X120431000Y-110776341D01*
X123926000Y-110776341D01*
X123926000Y-111003659D01*
X123970347Y-111226609D01*
X124057338Y-111436624D01*
X124183629Y-111625632D01*
X124344368Y-111786371D01*
X124533376Y-111912662D01*
X124743391Y-111999653D01*
X124966341Y-112044000D01*
X125193659Y-112044000D01*
X125416609Y-111999653D01*
X125626624Y-111912662D01*
X125815632Y-111786371D01*
X125976371Y-111625632D01*
X126102662Y-111436624D01*
X126189653Y-111226609D01*
X126234000Y-111003659D01*
X126234000Y-110776341D01*
X126466000Y-110776341D01*
X126466000Y-111003659D01*
X126510347Y-111226609D01*
X126597338Y-111436624D01*
X126723629Y-111625632D01*
X126884368Y-111786371D01*
X127073376Y-111912662D01*
X127283391Y-111999653D01*
X127506341Y-112044000D01*
X127733659Y-112044000D01*
X127956609Y-111999653D01*
X128166624Y-111912662D01*
X128355632Y-111786371D01*
X128516371Y-111625632D01*
X128642662Y-111436624D01*
X128729653Y-111226609D01*
X128774000Y-111003659D01*
X128774000Y-110776341D01*
X128729653Y-110553391D01*
X128642662Y-110343376D01*
X128516371Y-110154368D01*
X128355632Y-109993629D01*
X128166624Y-109867338D01*
X127956609Y-109780347D01*
X127733659Y-109736000D01*
X127506341Y-109736000D01*
X127283391Y-109780347D01*
X127073376Y-109867338D01*
X126884368Y-109993629D01*
X126723629Y-110154368D01*
X126597338Y-110343376D01*
X126510347Y-110553391D01*
X126466000Y-110776341D01*
X126234000Y-110776341D01*
X126189653Y-110553391D01*
X126102662Y-110343376D01*
X125976371Y-110154368D01*
X125815632Y-109993629D01*
X125626624Y-109867338D01*
X125416609Y-109780347D01*
X125193659Y-109736000D01*
X124966341Y-109736000D01*
X124743391Y-109780347D01*
X124533376Y-109867338D01*
X124344368Y-109993629D01*
X124183629Y-110154368D01*
X124057338Y-110343376D01*
X123970347Y-110553391D01*
X123926000Y-110776341D01*
X120431000Y-110776341D01*
X120431000Y-96999236D01*
X121573092Y-95857144D01*
X123944743Y-95857144D01*
X124006968Y-96074641D01*
X124110429Y-96275820D01*
X124251150Y-96452949D01*
X124423724Y-96599221D01*
X124621518Y-96709015D01*
X124836931Y-96778112D01*
X124872856Y-96785257D01*
X125053000Y-96715158D01*
X125053000Y-95677000D01*
X125107000Y-95677000D01*
X125107000Y-96715158D01*
X125287144Y-96785257D01*
X125323069Y-96778112D01*
X125538482Y-96709015D01*
X125736276Y-96599221D01*
X125908850Y-96452949D01*
X126049571Y-96275820D01*
X126153032Y-96074641D01*
X126215257Y-95857144D01*
X126145185Y-95677000D01*
X125107000Y-95677000D01*
X125053000Y-95677000D01*
X124014815Y-95677000D01*
X123944743Y-95857144D01*
X121573092Y-95857144D01*
X121987380Y-95442856D01*
X123944743Y-95442856D01*
X124014815Y-95623000D01*
X125053000Y-95623000D01*
X125053000Y-94584842D01*
X125107000Y-94584842D01*
X125107000Y-95623000D01*
X126145185Y-95623000D01*
X126215257Y-95442856D01*
X126153032Y-95225359D01*
X126049571Y-95024180D01*
X125908850Y-94847051D01*
X125736276Y-94700779D01*
X125538482Y-94590985D01*
X125323069Y-94521888D01*
X125287144Y-94514743D01*
X125107000Y-94584842D01*
X125053000Y-94584842D01*
X124872856Y-94514743D01*
X124836931Y-94521888D01*
X124621518Y-94590985D01*
X124423724Y-94700779D01*
X124251150Y-94847051D01*
X124110429Y-95024180D01*
X124006968Y-95225359D01*
X123944743Y-95442856D01*
X121987380Y-95442856D01*
X124599237Y-92831000D01*
X153991553Y-92831000D01*
X154081465Y-92920912D01*
X154201847Y-93001348D01*
X154335609Y-93056754D01*
X154477609Y-93085000D01*
X154622391Y-93085000D01*
X154764391Y-93056754D01*
X154898153Y-93001348D01*
X155018535Y-92920912D01*
X155120912Y-92818535D01*
X155201348Y-92698153D01*
X155256754Y-92564391D01*
X155285000Y-92422391D01*
X155285000Y-92277609D01*
X155256754Y-92135609D01*
X155201348Y-92001847D01*
X155120912Y-91881465D01*
X155018535Y-91779088D01*
X154898153Y-91698652D01*
X154764391Y-91643246D01*
X154622391Y-91615000D01*
X154477609Y-91615000D01*
X154335609Y-91643246D01*
X154201847Y-91698652D01*
X154081465Y-91779088D01*
X153991553Y-91869000D01*
X124423623Y-91869000D01*
X124399999Y-91866673D01*
X124376375Y-91869000D01*
X124376374Y-91869000D01*
X124305708Y-91875960D01*
X124215039Y-91903464D01*
X124131478Y-91948128D01*
X124058236Y-92008236D01*
X124043175Y-92026588D01*
X119626589Y-96443175D01*
X119608237Y-96458236D01*
X119593176Y-96476588D01*
X119548129Y-96531478D01*
X119503465Y-96615039D01*
X119475960Y-96705708D01*
X119466673Y-96800000D01*
X119469001Y-96823636D01*
X119469000Y-113425763D01*
X118676589Y-114218175D01*
X118658237Y-114233236D01*
X118643176Y-114251588D01*
X118598129Y-114306478D01*
X118553465Y-114390039D01*
X118525960Y-114480708D01*
X118516673Y-114575000D01*
X118519001Y-114598636D01*
X118519000Y-124326374D01*
X118516673Y-124350000D01*
X118519000Y-124373625D01*
X118525960Y-124444291D01*
X118553464Y-124534960D01*
X118598128Y-124618522D01*
X118658236Y-124691764D01*
X118676594Y-124706830D01*
X119619001Y-125649238D01*
X119619001Y-126559294D01*
X119488101Y-126629261D01*
X119318473Y-126768472D01*
X119179262Y-126938100D01*
X119075819Y-127131628D01*
X119012120Y-127341618D01*
X119006370Y-127400000D01*
X118129000Y-127400000D01*
X118129000Y-87358302D01*
X127246000Y-87358302D01*
X127246000Y-87841698D01*
X127340306Y-88315805D01*
X127525293Y-88762405D01*
X127793854Y-89164334D01*
X128135666Y-89506146D01*
X128537595Y-89774707D01*
X128984195Y-89959694D01*
X129458302Y-90054000D01*
X129941698Y-90054000D01*
X130415805Y-89959694D01*
X130862405Y-89774707D01*
X131264334Y-89506146D01*
X131606146Y-89164334D01*
X131874707Y-88762405D01*
X132059694Y-88315805D01*
X132154000Y-87841698D01*
X132154000Y-87358302D01*
X151246000Y-87358302D01*
X151246000Y-87841698D01*
X151340306Y-88315805D01*
X151525293Y-88762405D01*
X151793854Y-89164334D01*
X152135666Y-89506146D01*
X152537595Y-89774707D01*
X152984195Y-89959694D01*
X153458302Y-90054000D01*
X153941698Y-90054000D01*
X154415805Y-89959694D01*
X154862405Y-89774707D01*
X155264334Y-89506146D01*
X155606146Y-89164334D01*
X155874707Y-88762405D01*
X156059694Y-88315805D01*
X156154000Y-87841698D01*
X156154000Y-87358302D01*
X156059694Y-86884195D01*
X155874707Y-86437595D01*
X155606146Y-86035666D01*
X155264334Y-85693854D01*
X154862405Y-85425293D01*
X154415805Y-85240306D01*
X153941698Y-85146000D01*
X153458302Y-85146000D01*
X152984195Y-85240306D01*
X152537595Y-85425293D01*
X152135666Y-85693854D01*
X151793854Y-86035666D01*
X151525293Y-86437595D01*
X151340306Y-86884195D01*
X151246000Y-87358302D01*
X132154000Y-87358302D01*
X132059694Y-86884195D01*
X131874707Y-86437595D01*
X131606146Y-86035666D01*
X131264334Y-85693854D01*
X130862405Y-85425293D01*
X130415805Y-85240306D01*
X129941698Y-85146000D01*
X129458302Y-85146000D01*
X128984195Y-85240306D01*
X128537595Y-85425293D01*
X128135666Y-85693854D01*
X127793854Y-86035666D01*
X127525293Y-86437595D01*
X127340306Y-86884195D01*
X127246000Y-87358302D01*
X118129000Y-87358302D01*
X118129000Y-71129000D01*
X165271001Y-71129000D01*
X165271000Y-127400000D01*
M02*
